<svg width="171" height="38" viewBox="0 0 171 38" fill="none" xmlns="http://www.w3.org/2000/svg">
<path d="M130.935 18.2091C130.712 18.2506 130.469 18.2177 130.205 18.1106C129.942 18.0034 129.706 17.8491 129.497 17.6476C129.306 17.4457 129.181 17.2334 129.121 17.0104C129.039 16.6199 129.077 16.1338 129.234 15.5521C129.409 14.9514 129.659 14.3214 129.983 13.6619C130.325 12.9835 130.705 12.3324 131.123 11.7085C131.56 11.0844 132.007 10.544 132.466 10.0875C132.942 9.61194 133.384 9.28639 133.792 9.11083C133.995 8.9764 134.152 8.88948 134.263 8.85009C134.393 8.79169 134.523 8.77994 134.654 8.81485C134.804 8.84942 135.021 8.93878 135.303 9.08292C135.566 9.15275 135.764 9.23311 135.896 9.32402C136.028 9.41492 136.2 9.59846 136.41 9.87462C136.565 10.1518 136.682 10.4297 136.762 10.7083C136.842 10.9868 136.913 11.3029 136.975 11.6565C137.133 12.1203 137.195 12.4272 137.16 12.5772C137.125 12.7086 137.071 12.8122 136.998 12.8883C136.852 13.0777 136.817 13.1717 136.891 13.1703C136.891 13.1703 136.883 13.2078 136.865 13.2828C136.866 13.3388 136.831 13.4328 136.758 13.5648C136.635 13.9778 136.541 14.409 136.474 14.8583C136.426 15.2886 136.442 15.643 136.522 15.9216C136.679 16.3294 136.954 16.5671 137.347 16.6345C137.741 16.7019 138.139 16.5265 138.542 16.1083C138.744 15.9552 138.938 15.821 139.122 15.7055C139.307 15.5714 139.4 15.5791 139.403 15.7284C139.403 15.7284 139.431 15.7558 139.488 15.8108C139.545 15.8471 139.611 15.8645 139.685 15.8632C139.779 15.8614 139.835 15.8977 139.855 15.972C139.894 16.046 139.896 16.1487 139.861 16.28C139.845 16.3923 139.791 16.524 139.7 16.675C139.426 16.9602 139.289 17.1494 139.291 17.2427C139.291 17.2427 139.254 17.2807 139.181 17.3567C139.126 17.4138 139.025 17.509 138.878 17.6424C138.546 17.8539 138.119 17.9645 137.596 17.9741C137.092 17.9834 136.698 17.888 136.415 17.6879C136.131 17.4877 135.864 17.2126 135.615 16.8625C135.385 16.512 135.23 16.2068 135.15 15.9469L135.005 15.6696L134.203 16.2165C134.002 16.4255 133.781 16.6256 133.542 16.8168C133.321 17.0075 133.175 17.1409 133.101 17.217C133.047 17.2927 132.983 17.3592 132.909 17.4165C132.854 17.4736 132.789 17.5028 132.715 17.5042C132.64 17.5055 132.575 17.5067 132.519 17.5078C132.463 17.5088 132.435 17.5093 132.435 17.5093C132.436 17.584 132.344 17.679 132.16 17.7944C131.994 17.9095 131.79 18.0066 131.549 18.0858C131.326 18.1646 131.122 18.2057 130.935 18.2091ZM130.627 16.7026C130.739 16.7005 130.934 16.6129 131.211 16.4397C131.506 16.2476 131.828 16.0269 132.179 15.7778C132.547 15.5282 132.869 15.2796 133.145 15.0318C133.439 14.7836 133.641 14.5932 133.751 14.4605C133.824 14.3845 133.943 14.2609 134.108 14.0898C134.272 13.9001 134.419 13.7387 134.547 13.6057C134.967 13.1125 135.256 12.5751 135.413 11.9934C135.57 11.3931 135.543 10.9268 135.331 10.5947C135.253 10.3907 135.158 10.2805 135.045 10.2639C134.933 10.2473 134.701 10.3169 134.349 10.4728C134.127 10.6076 133.852 10.8647 133.523 11.2442C133.212 11.6046 132.875 12.0309 132.511 12.5231C132.165 12.9962 131.838 13.4877 131.53 13.9974C131.222 14.5072 130.969 14.9786 130.772 15.4117C130.574 15.8447 130.478 16.1826 130.482 16.4252C130.484 16.4998 130.503 16.5648 130.542 16.6201C130.599 16.6751 130.627 16.7026 130.627 16.7026Z" fill="#2F94F9"/>
<path d="M119.812 27.7121C119.401 27.7197 119.008 27.6523 118.632 27.5099C118.237 27.3678 117.869 27.1319 117.527 26.8021C117.351 26.3946 117.225 26.1263 117.148 25.997C117.053 25.8867 116.881 25.7219 116.635 25.5024C116.633 25.4091 116.667 25.2311 116.737 24.9684C116.807 24.7244 116.915 24.5077 117.061 24.3183C117.444 23.8445 117.912 23.4158 118.465 23.0322C119.019 22.6672 119.666 22.3472 120.408 22.0721C120.501 22.0331 120.593 21.9847 120.685 21.927C120.797 21.8876 120.899 21.867 120.992 21.8653C121.086 21.8636 121.141 21.8066 121.157 21.6942C121.192 21.5816 121.276 21.5707 121.409 21.6616C121.501 21.6225 121.575 21.5745 121.63 21.5175C121.685 21.4605 121.778 21.4494 121.909 21.4843C121.909 21.4843 122.012 21.4544 122.216 21.3946C122.439 21.3345 122.689 21.2552 122.968 21.1567C123.246 21.0769 123.487 20.9978 123.691 20.9193C123.914 20.8592 124.026 20.8291 124.026 20.8291C124.054 20.3245 124.053 19.8018 124.025 19.2609C124.015 18.7196 123.858 18.3211 123.555 18.0654C123.364 17.8635 123.211 17.633 123.094 17.3737C122.996 17.1142 122.869 16.8365 122.714 16.5406C122.748 16.3719 122.811 16.2308 122.902 16.1171C122.994 16.0034 123.123 15.9076 123.289 15.8299C123.641 15.6554 124.065 15.3861 124.563 15.0222C125.078 14.6393 125.602 14.1909 126.134 13.677C126.666 13.1631 127.132 12.613 127.532 12.0269C127.786 11.6488 127.873 11.2925 127.792 10.9579C127.73 10.623 127.399 10.4237 126.801 10.3601C126.428 10.367 126.01 10.5054 125.548 10.7753C125.086 11.0265 124.607 11.3714 124.111 11.81C123.815 11.9275 123.599 11.9035 123.466 11.7379C123.332 11.5537 123.225 11.3503 123.146 11.1277C123.18 10.9217 123.251 10.743 123.361 10.5917C123.469 10.4216 123.588 10.2607 123.716 10.109C123.862 9.95696 123.99 9.79591 124.099 9.62587C124.247 9.54845 124.376 9.47139 124.487 9.39467C124.597 9.29928 124.717 9.21305 124.846 9.13599C124.957 9.05927 125.067 9.00121 125.179 8.96181C125.308 8.90341 125.438 8.873 125.569 8.87059C125.681 8.86852 125.793 8.84779 125.904 8.8084C126.015 8.75034 126.136 8.7201 126.266 8.71769C127.144 8.73882 127.841 9.06201 128.357 9.68726C128.872 10.3125 129.108 10.9336 129.063 11.5505C129.037 12.1671 128.735 12.9755 128.156 13.9757C127.993 14.2588 127.719 14.5625 127.333 14.8871C126.965 15.2112 126.57 15.5266 126.146 15.8331C125.741 16.1393 125.382 16.4073 125.068 16.6372C124.755 16.8483 124.571 16.9824 124.516 17.0394C124.688 17.2416 124.871 17.5836 125.067 18.0654C125.262 18.5286 125.42 19.0017 125.541 19.4849C125.681 19.9864 125.707 20.378 125.619 20.6597C125.806 20.6936 126.039 20.6706 126.318 20.5908C126.615 20.5293 126.848 20.497 127.016 20.4939C127.187 20.6587 127.358 20.8143 127.529 20.9605C127.699 21.1067 127.786 21.2638 127.789 21.4317C127.829 21.543 127.803 21.6462 127.711 21.7412C127.638 21.8359 127.555 21.8935 127.462 21.9139C127.22 21.9557 126.913 21.9707 126.539 21.9589C126.165 21.9471 125.803 22.0192 125.451 22.175C125.197 22.5718 124.981 23.0052 124.803 23.4752C124.625 23.9639 124.391 24.463 124.102 24.9724C123.813 25.5005 123.356 26.041 122.732 26.594C122.511 26.7848 122.281 26.957 122.041 27.1108C121.802 27.2833 121.607 27.3709 121.458 27.3737C121.161 27.4725 120.873 27.5525 120.594 27.6136C120.334 27.6745 120.073 27.7073 119.812 27.7121ZM118.582 26.3066C118.583 26.3439 118.723 26.3506 119.002 26.3268C119.264 26.322 119.58 26.2695 119.952 26.1693C120.342 26.0874 120.685 25.9597 120.981 25.7862C121.35 25.5553 121.662 25.2789 121.918 24.9568C122.173 24.6533 122.419 24.322 122.655 23.963C122.746 23.8119 122.836 23.6422 122.926 23.4539C123.016 23.2842 123.088 23.1055 123.14 22.9178C123.007 22.7709 122.792 22.7842 122.497 22.9577C122.201 23.1312 121.85 23.2964 121.442 23.4533C121.015 23.6105 120.497 23.8441 119.886 24.1541C119.295 24.4824 118.844 24.8361 118.534 25.2153C118.443 25.3476 118.342 25.4708 118.232 25.5849C118.123 25.6989 118.003 25.8038 117.874 25.8996C117.97 26.0285 118.075 26.1292 118.188 26.2018C118.301 26.2744 118.433 26.3093 118.582 26.3066Z" fill="#2F94F9"/>
<path d="M118.635 19.0244C118.015 18.8118 117.531 18.4006 117.184 17.791C116.836 17.1626 116.61 16.5507 116.506 15.9552C116.487 15.9555 116.432 15.9939 116.34 16.0702C116.266 16.1276 116.174 16.2227 116.065 16.3554C115.808 16.6215 115.488 16.9541 115.103 17.3533C114.718 17.7338 114.314 18.0773 113.89 18.3839C113.484 18.6714 113.095 18.8 112.721 18.7695C112.57 18.679 112.409 18.5792 112.239 18.4704C112.088 18.3425 111.936 18.2146 111.784 18.0867C111.708 18.0134 111.641 17.94 111.584 17.8664C111.545 17.7924 111.506 17.7091 111.467 17.6165C111.252 17.0604 111.131 16.5678 111.104 16.1389C111.077 15.6913 111.116 15.2519 111.22 14.8206C111.342 14.3702 111.482 13.8729 111.64 13.3285C111.658 13.2722 111.719 13.0377 111.823 12.625C111.946 12.212 112.087 11.7427 112.245 11.217C112.404 10.6913 112.554 10.2218 112.695 9.80846C112.856 9.39476 112.973 9.1499 113.046 9.07386C113.102 9.07283 113.158 9.0718 113.214 9.07076C113.288 9.05072 113.353 9.04018 113.409 9.03915C113.596 9.0357 113.737 9.09844 113.833 9.22736C113.91 9.33796 114.004 9.42022 114.117 9.47415C114.249 9.52772 114.344 9.60066 114.402 9.69294C114.498 9.87785 114.44 10.2803 114.228 10.9004C114.015 11.5017 113.785 12.1874 113.538 12.9574C113.308 13.6525 113.115 14.3561 112.961 15.0685C112.805 15.7621 112.807 16.3409 112.965 16.8047C113.095 16.8023 113.27 16.687 113.49 16.4589C113.728 16.2118 113.912 16.0404 114.041 15.9447C114.225 15.8292 114.464 15.6101 114.757 15.2873C115.068 14.9455 115.37 14.6039 115.662 14.2624C115.954 13.9023 116.155 13.6279 116.263 13.4392C116.336 13.3258 116.444 13.1185 116.588 12.8171C116.731 12.4971 116.874 12.1584 117.017 11.801C117.178 11.4246 117.302 11.077 117.39 10.7579C117.496 10.4386 117.538 10.2138 117.517 10.0835C117.495 9.89719 117.511 9.75687 117.566 9.66252C117.638 9.54916 117.748 9.44444 117.896 9.34837C117.989 9.34664 118.092 9.34475 118.204 9.34268C118.316 9.34061 118.419 9.34805 118.512 9.36499C118.627 9.49356 118.75 9.61264 118.883 9.7222C119.016 9.83177 119.148 9.95067 119.282 10.0789C119.381 10.4318 119.334 10.9087 119.14 11.5098C118.946 12.1108 118.752 12.7585 118.56 13.4528C118.367 14.1471 118.249 14.8494 118.207 15.5597C118.163 16.2513 118.361 16.8544 118.8 17.369C119.189 17.1938 119.485 17.0297 119.687 16.8766C119.908 16.7045 120.119 16.5325 120.322 16.3608C120.524 16.1703 120.781 15.9789 121.095 15.7864C121.284 15.8949 121.428 16.1163 121.528 16.4505C121.627 16.7847 121.679 17.0545 121.683 17.2598C121.609 17.3172 121.535 17.3745 121.462 17.4319C121.406 17.4703 121.361 17.5271 121.325 17.6025C121.217 17.8472 120.998 18.0939 120.666 18.3427C120.335 18.5916 119.984 18.7941 119.613 18.9503C119.243 19.0878 118.916 19.1125 118.635 19.0244Z" fill="#2F94F9"/>
<path d="M102.407 18.7919C102.26 18.9066 102.046 18.9386 101.765 18.8878C101.484 18.837 101.259 18.7851 101.09 18.7322C101.051 18.6583 101.013 18.575 100.973 18.4823C100.934 18.3897 100.905 18.3062 100.885 18.2319C100.864 18.139 100.844 18.046 100.824 17.953C100.822 17.8597 100.802 17.776 100.763 17.7021C100.818 17.6451 100.864 17.5882 100.9 17.5315C100.955 17.4745 101.01 17.4268 101.065 17.3884C101.159 17.3867 101.261 17.3848 101.373 17.3828C101.485 17.3807 101.588 17.3788 101.681 17.3771C101.774 17.338 101.847 17.2807 101.902 17.205C101.975 17.1103 102.067 17.0619 102.179 17.0598C102.585 16.791 102.979 16.3729 103.36 15.8058C103.761 15.2383 104.141 14.6059 104.502 13.9084C104.881 13.2106 105.214 12.5324 105.5 11.8736C105.805 11.1959 106.056 10.6312 106.253 10.1794C106.252 10.1421 106.252 10.1141 106.252 10.0955C106.251 10.0768 106.241 10.0583 106.222 10.04C106.093 10.0797 105.953 10.1196 105.805 10.1597C105.656 10.1811 105.507 10.2212 105.359 10.28C105.34 10.299 105.313 10.3182 105.276 10.3375C105.239 10.3569 105.211 10.376 105.193 10.395C104.991 10.5668 104.721 10.6185 104.384 10.55C104.065 10.4812 103.838 10.3267 103.703 10.0865C103.664 10.0125 103.626 9.94791 103.587 9.89261C103.549 9.8373 103.501 9.77284 103.444 9.69922C103.515 9.52987 103.624 9.36917 103.771 9.2171C103.936 9.04603 104.111 8.9401 104.297 8.89933C104.799 8.77804 105.292 8.68493 105.776 8.61997C106.279 8.53601 106.782 8.50805 107.287 8.53607C107.792 8.56409 108.288 8.66694 108.777 8.84461C108.871 8.86155 108.955 8.87866 109.03 8.89595C109.105 8.91323 109.18 8.94918 109.256 9.00379C109.369 9.07638 109.483 9.1583 109.596 9.24955C109.71 9.3408 109.815 9.43222 109.91 9.52381C110.042 9.63338 110.147 9.7528 110.224 9.88206C110.301 10.0113 110.351 10.1598 110.373 10.3274C110.413 10.5133 110.436 10.709 110.439 10.9143C110.462 11.1192 110.456 11.3247 110.423 11.5307C110.338 11.999 110.199 12.5617 110.006 13.2187C109.831 13.8567 109.673 14.4103 109.532 14.8797C109.322 15.6117 109.138 16.2685 108.981 16.8502C108.823 17.4132 108.675 17.9667 108.535 18.5107C108.294 18.5899 108.061 18.5848 107.835 18.4956C107.609 18.4065 107.411 18.2701 107.239 18.0866C107.16 17.8267 107.118 17.5847 107.114 17.3608C107.109 17.1181 107.17 16.8743 107.296 16.6293C107.422 16.3656 107.509 16.0279 107.558 15.6163C107.606 15.2046 107.721 14.8758 107.904 14.6297C107.939 14.5544 107.957 14.4887 107.956 14.4327C107.954 14.3207 107.987 14.1054 108.056 13.7868C108.143 13.4678 108.24 13.1113 108.344 12.7173C108.449 12.3046 108.544 11.9201 108.631 11.5638C108.736 11.2071 108.806 10.9351 108.84 10.7478C108.875 10.6351 108.873 10.5325 108.834 10.4398C108.814 10.3468 108.803 10.2444 108.801 10.1324C108.65 10.0605 108.434 10.0085 108.154 9.97631C107.892 9.94381 107.716 10.0404 107.627 10.2661C107.609 10.3038 107.591 10.3508 107.574 10.4071C107.574 10.4444 107.566 10.4819 107.548 10.5196C107.407 10.9889 107.21 11.4407 106.956 11.8747C106.722 12.3085 106.509 12.9005 106.317 13.6508C106.265 13.8572 106.185 14.0547 106.076 14.2434C105.986 14.4131 105.905 14.6013 105.834 14.808C105.835 14.8266 105.826 14.8455 105.807 14.8645C105.808 14.8831 105.799 14.902 105.781 14.921C105.781 14.9396 105.772 14.9585 105.754 14.9775C105.626 15.1479 105.508 15.3274 105.399 15.5161C105.309 15.6858 105.21 15.865 105.101 16.0537C104.794 16.5821 104.383 17.0751 103.868 17.5327C103.373 17.9899 102.886 18.4097 102.407 18.7919Z" fill="#2F94F9"/>
<path d="M99.2645 18.7379C98.8788 19.0811 98.4251 19.2855 97.9036 19.3512C97.4007 19.4165 96.9047 19.3509 96.4157 19.1546C95.9263 18.9396 95.5188 18.6111 95.1933 18.169C94.8684 17.7643 94.6545 17.3015 94.5516 16.7806C94.4482 16.2411 94.426 15.5414 94.4848 14.6815C94.5273 13.9526 94.7472 13.2204 95.1443 12.4849C95.5411 11.7308 96.0235 11.0591 96.5914 10.4699C97.1779 9.88028 97.7584 9.46816 98.3328 9.23351C98.6094 9.04171 98.8411 8.95342 99.0281 8.96863C99.2334 8.96484 99.5417 8.97782 99.953 9.00756C100.383 9.05563 100.702 9.13375 100.909 9.24194C101.135 9.34979 101.316 9.49582 101.45 9.68005C101.735 9.95483 101.927 10.2313 102.025 10.5096C102.123 10.7691 102.175 11.0296 102.179 11.2908C102.112 11.7028 101.842 12.2119 101.368 12.8181C100.912 13.4053 100.305 13.8926 99.5462 14.28C99.138 14.4182 98.6912 14.4825 98.2056 14.4728C97.72 14.4631 97.3165 14.3492 96.995 14.1311C96.6377 13.9883 96.4049 14.0206 96.2967 14.228C96.1882 14.4167 96.0942 14.8851 96.0146 15.6334C95.9531 16.344 96.0187 16.8655 96.2115 17.198C96.404 17.5119 96.6594 17.6939 96.9777 17.744C97.3524 17.8117 97.6427 17.8624 97.8487 17.8959C98.073 17.9105 98.3421 17.8215 98.6559 17.629C98.9511 17.4368 99.1358 17.3307 99.2101 17.3107C99.2841 17.272 99.3394 17.2336 99.376 17.1956C99.431 17.1386 99.5501 17.015 99.7333 16.825C99.8615 16.6919 99.9624 16.5967 100.036 16.5393C100.109 16.4633 100.193 16.4244 100.286 16.4227C100.379 16.421 100.464 16.4661 100.54 16.558C100.616 16.6313 100.692 16.6859 100.768 16.7218C100.954 16.7184 100.994 16.8297 100.886 17.0557C100.797 17.2814 100.606 17.5556 100.313 17.8784C100.02 18.1826 99.6703 18.4691 99.2645 18.7379ZM99.1269 12.8035C99.3305 12.7064 99.5427 12.5717 99.7636 12.3996C99.9841 12.2089 100.167 12.0095 100.313 11.8014C100.476 11.5743 100.557 11.3862 100.554 11.2368C100.549 10.9756 100.424 10.7632 100.178 10.5997C99.9323 10.4175 99.5679 10.3962 99.085 10.5359C98.8808 10.5956 98.65 10.7399 98.3929 10.9687C98.1354 11.1788 97.8878 11.4168 97.65 11.6825C97.4308 11.948 97.2485 12.1847 97.103 12.3928C96.9761 12.6005 96.9317 12.7226 96.9697 12.7593C97.0274 12.8516 97.1874 12.9233 97.4498 12.9745C97.7117 13.007 98.0012 13.0109 98.3181 12.9864C98.6537 12.9616 98.9233 12.9006 99.1269 12.8035Z" fill="#2F94F9"/>
<path d="M84.8182 24.8857C84.597 25.0392 84.3635 25.0342 84.1178 24.8707C83.8907 24.7068 83.7181 24.458 83.5999 24.1241C83.4817 23.7902 83.4845 23.4355 83.6083 23.0598C83.6435 22.9471 83.6961 22.7594 83.7659 22.4968C83.8361 22.2528 83.8788 22.0373 83.894 21.8503C83.9102 21.7193 83.9621 21.4943 84.0495 21.1753C84.1373 20.875 84.2345 20.5745 84.3409 20.2738C84.4661 19.9727 84.5648 19.7562 84.637 19.6242C84.7455 19.4355 84.8162 19.2195 84.8491 18.9762C84.9006 18.7325 84.9251 18.5454 84.9227 18.4147C84.9576 18.2834 85.0015 18.1332 85.0544 17.9642C85.126 17.7948 85.1982 17.6628 85.2711 17.5681C85.3057 17.4181 85.3588 17.2585 85.4303 17.0891C85.5015 16.9011 85.5826 16.7409 85.6735 16.6085C85.7084 16.4772 85.7335 16.318 85.7487 16.1311C85.7826 15.9437 85.8367 15.8401 85.911 15.82C85.9283 15.745 85.9362 15.6702 85.9348 15.5955C85.9521 15.5205 85.9876 15.4172 86.0411 15.2855C86.0747 15.0795 86.1531 14.7794 86.2765 14.385C86.4 13.9907 86.5507 13.5585 86.7287 13.0885C86.924 12.5434 87.0078 12.0285 86.9802 11.5435C86.9709 11.0396 86.8252 10.7343 86.5432 10.6275C86.3925 10.5556 86.2973 10.4546 86.2576 10.3247C86.2175 10.1761 86.2334 10.0264 86.3053 9.87573C86.3772 9.72504 86.4873 9.62032 86.6355 9.56157C86.8021 9.48382 86.9789 9.45255 87.1659 9.46777C87.3715 9.48264 87.5495 9.51669 87.6999 9.56992C87.8499 9.60449 87.9159 9.64061 87.8979 9.67829C87.8996 9.7716 87.9473 9.82673 88.041 9.84367C88.0773 9.78699 88.1531 9.85094 88.2686 10.0355C88.4023 10.2011 88.5273 10.3948 88.6434 10.6167C88.7595 10.8386 88.8184 10.9962 88.8201 11.0895C88.7842 11.1648 88.7664 11.2118 88.7667 11.2305C88.7667 11.2305 88.804 11.2298 88.8787 11.2284C88.8787 11.2284 88.9805 11.1799 89.1841 11.0828C89.3873 10.967 89.5997 10.8417 89.8212 10.707C90.0611 10.5532 90.2177 10.4383 90.291 10.3622C90.291 10.3622 90.3373 10.3427 90.4299 10.3036C90.5408 10.2456 90.633 10.1785 90.7062 10.1025C91.0767 9.94631 91.4775 9.9109 91.9085 9.99629C92.3581 10.0813 92.7158 10.2428 92.9816 10.4806C93.3635 10.9403 93.5584 11.3847 93.5663 11.814C93.5929 12.2429 93.4816 12.7864 93.2324 13.4444C93.1968 13.5384 93.1157 13.6986 92.9892 13.925C92.881 14.1324 92.7726 14.3304 92.6641 14.5191C92.5552 14.6892 92.5008 14.7742 92.5008 14.7742C92.0839 15.454 91.5904 16.0232 91.0201 16.4818C90.4498 16.9404 89.8691 17.3432 89.2781 17.6902C89.0939 17.8243 88.8998 17.9305 88.6959 18.009C88.5103 18.0684 88.343 18.1088 88.194 18.1303C88.0447 18.133 87.9417 18.1162 87.885 18.08C87.677 17.9344 87.4845 17.6206 87.3076 17.1385C87.2187 17.3828 87.1299 17.6272 87.041 17.8715C86.9705 18.0968 86.9266 18.247 86.9093 18.322C86.8931 18.453 86.8765 18.5653 86.8596 18.659C86.8423 18.734 86.7968 18.8002 86.7232 18.8575C86.7232 18.8575 86.7146 18.895 86.6973 18.97C86.68 19.045 86.6167 19.1582 86.5075 19.3096C86.3309 19.8543 86.1715 20.324 86.0294 20.7187C85.8877 21.132 85.7728 21.4795 85.6846 21.7612C85.5968 22.0615 85.527 22.3242 85.4751 22.5492C85.4471 23.0538 85.3536 23.5503 85.1946 24.0386C85.0359 24.5457 84.9105 24.828 84.8182 24.8857ZM88.0023 16.8456C88.0762 16.8069 88.233 16.7013 88.4725 16.5288C88.7303 16.3374 89.0157 16.1174 89.3285 15.8689C89.6409 15.6018 89.9257 15.3538 90.1829 15.125C90.4587 14.8959 90.6422 14.7245 90.7335 14.6108C90.8797 14.44 91.0164 14.2602 91.1436 14.0711C91.2704 13.8634 91.3689 13.6375 91.4391 13.3935C91.4924 13.2432 91.5546 13.074 91.6258 12.886C91.697 12.698 91.759 12.5195 91.8119 12.3505C91.8838 12.1998 91.9091 12.05 91.8876 11.901C91.8845 11.733 91.826 11.5941 91.7119 11.4842C91.6369 11.4669 91.414 11.527 91.0431 11.6646C90.6719 11.7834 90.2649 11.987 89.8222 12.2752C89.3791 12.5448 88.9935 12.8973 88.6655 13.3327C88.2829 13.8439 88.0033 14.3718 87.8266 14.9165C87.6686 15.4608 87.6024 15.9195 87.628 16.2924C87.6722 16.665 87.797 16.8494 88.0023 16.8456Z" fill="#2F94F9"/>
<path d="M72.47 20.0449C72.2277 20.068 72.0314 20.053 71.881 19.9997C71.7303 19.9278 71.5418 19.8286 71.3154 19.7021C70.899 19.3924 70.5852 19.0808 70.374 18.7674C70.1812 18.4349 70.0912 18.1098 70.104 17.7922C70.1382 17.6235 70.1354 17.4742 70.0957 17.3442C70.0746 17.2139 70.0641 17.1488 70.0641 17.1488C69.9504 17.0576 69.912 17.0022 69.949 16.9829C69.9856 16.9449 70.0126 16.8884 70.0299 16.8134C70.1785 16.7733 70.1953 16.6703 70.0802 16.5044C70.0214 16.3561 70.0432 16.0197 70.1456 15.495C70.2662 14.9514 70.4249 14.4443 70.6216 13.974C70.7111 13.7669 70.8367 13.4939 70.9985 13.1549C71.1789 12.8155 71.378 12.4757 71.5958 12.1357C71.8132 11.7769 72.0133 11.4932 72.1962 11.2844C72.5981 10.8103 72.9557 10.4583 73.2689 10.2284C73.6003 9.97962 73.97 9.77676 74.3778 9.61987C74.7483 9.46367 75.0174 9.37469 75.185 9.35292C75.3526 9.33116 75.588 9.43883 75.8911 9.67594C76.3414 9.79831 76.6808 9.97874 76.9093 10.2172C77.156 10.4367 77.3492 10.7879 77.4888 11.2707C77.6481 11.8092 77.7067 12.4522 77.6645 13.1998C77.6406 13.9284 77.3407 14.8767 76.7648 16.0449C76.4237 16.7793 76.0792 17.3364 75.7315 17.7163C75.4025 18.0957 74.9991 18.4952 74.5214 18.9148C74.1724 19.22 73.8501 19.4593 73.5545 19.6328C73.259 19.8063 72.8975 19.9436 72.47 20.0449ZM74.6481 16.6721C75.011 16.1053 75.2908 15.5867 75.4875 15.1163C75.7025 14.6269 75.8686 14.0171 75.9858 13.2868C76.0193 13.0808 76.024 12.8287 75.9998 12.5304C75.9753 12.2135 75.9233 11.9251 75.8438 11.6652C75.783 11.4049 75.6964 11.2665 75.5841 11.2499C75.3398 11.161 75.0691 11.166 74.7722 11.2649C74.475 11.345 74.1525 11.575 73.8048 11.9548C73.4944 12.334 73.2129 12.7592 72.9602 13.2307C72.7262 13.7017 72.5117 14.2191 72.3168 14.7828C72.1218 15.3465 71.9369 15.9474 71.762 16.5854C71.5884 17.298 71.6078 17.8391 71.8199 18.2086C72.0508 18.5777 72.4165 18.6643 72.9169 18.4684C73.4171 18.2537 73.9941 17.655 74.6481 16.6721Z" fill="#2F94F9"/>
<path d="M63.3286 20.2137C63.273 20.2334 63.1418 20.2078 62.9351 20.1369C62.7281 20.0474 62.5021 19.9396 62.257 19.8134C62.0303 19.6682 61.8504 19.5315 61.7174 19.4033C61.5646 19.2194 61.4212 19.0354 61.2871 18.8511C61.1713 18.6479 61.111 18.4157 61.1062 18.1544C60.9704 17.8768 60.8904 17.5889 60.8662 17.2907C60.8604 16.9734 60.8454 16.6656 60.8212 16.3673C60.7939 15.9011 60.8878 15.4233 61.1028 14.9339C61.3174 14.4258 61.4878 14.0493 61.614 13.8043C61.7025 13.5412 61.8829 13.2019 62.1553 12.7861C62.446 12.3513 62.8022 11.9247 63.2238 11.5061C63.6455 11.0876 64.0876 10.7621 64.55 10.5295C64.8459 10.3747 65.1423 10.2478 65.4392 10.149C65.7544 10.0312 66.1187 10.0431 66.532 10.1848C66.7383 10.237 66.889 10.3089 66.9841 10.4005C67.0791 10.4921 67.1835 10.5835 67.2972 10.6748C67.4444 10.56 67.5607 10.2872 67.6461 9.85621C67.7498 9.40621 67.8058 8.90109 67.8142 8.34084C67.8408 7.76159 67.8027 7.21153 67.6997 6.69068C67.615 6.15081 67.4485 5.72448 67.2 5.41169C66.7407 4.80406 66.2387 4.41193 65.694 4.23529C65.1493 4.05865 64.5345 4.12601 63.8494 4.43738C63.6237 4.3482 63.4152 4.17469 63.2237 3.91685C63.0509 3.65866 62.9994 3.39823 63.0693 3.13556C63.2162 3.00216 63.4004 2.86807 63.6219 2.73329C63.8435 2.59851 64.0659 2.51039 64.2892 2.46893C64.5494 2.40811 64.81 2.36596 65.071 2.34247C65.3506 2.31864 65.6412 2.38795 65.9429 2.55041C66.9193 2.84976 67.6555 3.28425 68.1514 3.85385C68.6656 4.40445 69.0235 5.07929 69.225 5.87838C69.4264 6.67746 69.5554 7.59923 69.6121 8.6437C69.6549 8.94163 69.6692 9.21207 69.6551 9.45505C69.6592 9.67901 69.6383 10.0621 69.5923 10.6044C69.4101 10.8505 69.3408 11.1411 69.3843 11.4764C69.4462 11.7926 69.4144 12.0919 69.2889 12.3743C69.2761 12.6919 69.2063 12.9546 69.0794 13.1623C68.9526 13.37 68.8909 13.5672 68.8943 13.7538C68.5756 14.6932 68.1352 15.6162 67.5732 16.5227C67.0298 17.4289 66.4002 18.2153 65.6844 18.882C64.9686 19.5486 64.1834 19.9925 63.3286 20.2137ZM63.127 18.3971C63.3151 18.4683 63.5936 18.3885 63.9628 18.1576C64.3316 17.9081 64.7083 17.5838 65.093 17.1846C65.4773 16.7668 65.7967 16.3688 66.0511 15.9907C66.142 15.8583 66.2594 15.6415 66.4032 15.3401C66.5656 15.0384 66.7096 14.7463 66.8351 14.464C66.9792 14.1813 67.0599 14.0024 67.0772 13.9274C67.2366 13.4577 67.3218 13.0174 67.3329 12.6065C67.3623 12.1765 67.3104 11.8974 67.1774 11.7692C66.9676 11.5304 66.6306 11.4806 66.1664 11.6198C65.7209 11.7587 65.2956 11.9813 64.8905 12.2875C64.5961 12.517 64.331 12.8206 64.0952 13.1983C63.8778 13.5571 63.6506 13.888 63.4134 14.1911C63.4345 14.3214 63.3993 14.4341 63.3077 14.5291C63.2347 14.6238 63.1525 14.7187 63.0609 14.8137C62.8269 15.2848 62.6763 15.7263 62.6093 16.1383C62.5418 16.5316 62.509 16.7749 62.5107 16.8682C62.5162 17.1668 62.5686 17.4739 62.6678 17.7895C62.7669 18.105 62.92 18.3076 63.127 18.3971Z" fill="#2F94F9"/>
<path d="M48.5663 19.5902C48.1758 19.6721 47.9243 19.7047 47.812 19.6881C47.718 19.6525 47.5666 19.5433 47.3579 19.3604C47.0565 19.2166 46.8011 19.0347 46.5917 18.8145C46.4009 18.594 46.2566 18.3633 46.1588 18.1224C46.0794 17.8625 46.0474 17.6483 46.063 17.48C46.1069 16.8258 46.2526 16.123 46.5001 15.3716C46.7476 14.6202 47.0516 13.8958 47.4121 13.1984C47.7726 12.5009 48.1631 11.9056 48.5834 11.4125C49.022 10.9003 49.4452 10.5657 49.853 10.4088C50.2236 10.2526 50.5771 10.1901 50.9138 10.2212C51.2504 10.2524 51.4963 10.4252 51.6515 10.7397C51.9414 11.2758 51.8825 11.6222 51.4746 11.7791C51.4186 11.7802 51.3538 11.8094 51.2802 11.8667C51.2062 11.9054 51.1699 11.9621 51.1713 12.0368C51.2467 12.0727 51.4521 12.0783 51.7877 12.0534C52.123 12.0099 52.4579 11.9477 52.7925 11.8668C53.1453 11.767 53.3769 11.6693 53.4872 11.5739C53.5981 11.5159 53.6816 11.4863 53.7376 11.4853C53.7936 11.4843 53.9339 11.5004 54.1585 11.5335C54.4775 11.621 54.6383 11.7301 54.6407 11.8607C54.642 11.9354 54.6714 12.0095 54.7288 12.0831C54.7858 12.1381 54.8517 12.1649 54.9263 12.1635C55.0573 12.1797 55.0402 12.2641 54.875 12.4165C54.7284 12.5685 54.4709 12.7787 54.1025 13.0468C53.752 13.2773 53.5308 13.4308 53.4389 13.5072C53.3652 13.5645 53.3583 13.6954 53.4181 13.8996C53.574 14.2515 53.5909 14.6619 53.4688 15.1309C53.3468 15.5999 53.1223 16.0801 52.7953 16.5716C52.4683 17.063 52.0662 17.5279 51.5889 17.9661C51.1299 18.3853 50.6325 18.7492 50.0968 19.0578C49.5794 19.3474 49.0692 19.5249 48.5663 19.5902ZM48.0677 18.3672C48.1423 18.3658 48.2723 18.326 48.4575 18.2479C48.6425 18.1512 48.7904 18.0738 48.9013 18.0157C48.9746 17.9397 49.0664 17.854 49.1766 17.7586C49.3052 17.6442 49.4066 17.577 49.481 17.5569C49.5556 17.5556 49.6484 17.5258 49.7594 17.4678C49.87 17.3911 50.026 17.2481 50.2275 17.0391C50.4287 16.8113 50.6933 16.4797 51.0213 16.0442C51.387 15.6267 51.6694 15.2481 51.8685 14.9084C52.0672 14.55 52.1172 14.2224 52.0183 13.9255C51.9983 13.8512 51.9414 13.8055 51.8478 13.7886C51.7728 13.7713 51.6693 13.7265 51.5373 13.6543C51.3506 13.6577 51.1725 13.6144 51.0028 13.5241C50.8514 13.4149 50.6715 13.2782 50.4631 13.114L50.0048 12.5624L49.5377 13.0471C49.2446 13.3512 48.9356 13.805 48.6107 14.4085C48.3041 14.9929 48.0445 15.5951 47.8319 16.2152C47.619 16.8165 47.4971 17.2949 47.4663 17.6501C47.4528 17.9304 47.5029 18.1162 47.6167 18.2075C47.7304 18.2987 47.8807 18.3519 48.0677 18.3672Z" fill="#2F94F9"/>
<path d="M36.446 20.262C36.257 20.1348 36.1148 20.0161 36.0194 19.9059C35.924 19.7956 35.8838 19.6377 35.8986 19.432C35.9308 19.1514 35.9814 18.8611 36.0506 18.5611C36.1194 18.2424 36.207 17.9327 36.3135 17.632C36.3632 17.2951 36.4224 16.9579 36.4908 16.6206C36.5779 16.2829 36.7214 15.9629 36.9212 15.6605C37.2219 14.7588 37.4952 13.8856 37.7409 13.0409C38.005 12.1772 38.3597 11.1625 38.8049 9.99674C38.8944 9.78972 38.9757 9.63886 39.0486 9.54416C39.1399 9.43046 39.2218 9.31693 39.2944 9.20357C39.3116 9.12857 39.3669 9.09021 39.4603 9.08849C39.5719 9.06776 39.6936 9.08418 39.8252 9.13776C39.9566 9.17267 40.0604 9.2361 40.1368 9.32804C40.2111 9.30799 40.316 9.42741 40.4515 9.68629C40.6056 9.94482 40.6654 10.1491 40.6308 10.2991C40.6322 10.3737 40.6154 10.4767 40.5805 10.6081C40.5456 10.7394 40.4918 10.8617 40.4193 10.9751C40.346 11.0511 40.2734 11.1645 40.2015 11.3152C40.1293 11.4472 40.0205 11.6266 39.8754 11.8533C39.6984 12.3793 39.5478 12.8208 39.4238 13.1779C39.2997 13.5349 39.1484 13.9391 38.9701 14.3904C38.8429 14.5795 38.7449 14.8333 38.6761 15.152C38.6073 15.4707 38.5383 15.78 38.4692 16.08C38.3447 16.4183 38.2291 16.7285 38.1223 17.0105C38.0342 17.2922 37.9908 17.4704 37.9921 17.545C37.8691 17.958 37.774 18.3705 37.7069 18.7825C37.6395 19.1758 37.5246 19.5233 37.3621 19.8251C37.3486 20.1054 37.2681 20.2935 37.1205 20.3896C36.9916 20.4853 36.7668 20.4428 36.446 20.262ZM43.1452 20.5864C42.8459 20.5546 42.6209 20.5027 42.4702 20.4308C42.3192 20.3403 42.0356 20.1495 41.6195 19.8585C41.3914 19.6386 41.0771 19.299 40.6765 18.8397C40.276 18.3803 39.8749 17.893 39.4733 17.3777C39.0714 16.8437 38.7363 16.3924 38.4681 16.024L39.5875 14.4631C39.8356 14.7572 40.0368 15.0335 40.1909 15.2921C40.3451 15.5506 40.4696 15.7256 40.5647 15.8172C41.0057 16.4439 41.3511 16.9509 41.6009 17.3384C41.8695 17.7255 42.1086 18.0384 42.3184 18.2773C42.5282 18.5161 42.7468 18.7268 42.9742 18.9093C43.2203 19.0914 43.5225 19.2819 43.8809 19.4806C43.9376 19.5169 43.9946 19.5719 44.052 19.6455C44.1093 19.7191 44.1301 19.8308 44.1141 19.9804C44.0433 20.1871 43.9617 20.3193 43.8694 20.377C43.7955 20.4157 43.554 20.4855 43.1452 20.5864ZM38.3785 15.7176C38.2606 15.4024 38.2921 15.0844 38.4729 14.7637C38.672 14.424 38.8916 14.1865 39.1318 14.0514C39.2041 13.9194 39.2772 13.834 39.3511 13.7953C39.4434 13.7376 39.4982 13.6712 39.5155 13.5962C39.5514 13.5209 39.6429 13.4165 39.7898 13.2831C39.9553 13.1494 40.1024 13.0253 40.231 12.9109C40.5261 12.7188 40.8579 12.4886 41.2264 12.2204C41.6131 11.9332 41.9812 11.6464 42.3307 11.3599C42.6801 11.0734 42.9743 10.8252 43.2131 10.6155C43.4706 10.4053 43.6268 10.2718 43.6818 10.2147C43.7364 10.139 43.8102 10.091 43.9031 10.0706C44.0144 10.0312 44.1548 10.0473 44.3241 10.1189C44.5491 10.1707 44.7001 10.2613 44.7772 10.3905C44.8539 10.5011 44.8954 10.7244 44.9016 11.0604C44.9614 11.2646 44.8815 11.4901 44.662 11.7369C44.4609 11.9646 44.1483 12.2225 43.7242 12.5103C43.5766 12.6064 43.3739 12.7502 43.116 12.9416C42.8768 13.1328 42.6655 13.314 42.482 13.4854C42.3527 13.5625 42.1591 13.6968 41.9013 13.8882C41.6618 14.0607 41.4502 14.2326 41.2667 14.404C41.1191 14.5001 40.9263 14.6717 40.6881 14.9188C40.4496 15.1473 40.2101 15.3197 39.9695 15.4362C39.3827 16.0071 38.9962 16.313 38.8103 16.3537C38.6243 16.3945 38.4804 16.1825 38.3785 15.7176Z" fill="#2F94F9"/>
<path d="M31.253 20.442C31.0277 20.3714 30.7842 20.3293 30.5226 20.3154C30.2606 20.2829 30.0346 20.1751 29.8445 19.9919C29.5974 19.7537 29.4056 19.4772 29.2691 19.1624C29.1509 18.8285 29.126 18.4929 29.1945 18.1556C29.2467 17.9492 29.2711 17.7528 29.2676 17.5661C29.2638 17.3608 29.3069 17.164 29.3967 16.9756C29.4116 16.77 29.4548 16.5825 29.5264 16.4132C29.5976 16.2251 29.6688 16.0371 29.74 15.8491C29.8648 15.5294 29.9709 15.2101 30.0584 14.8911C30.1645 14.5717 30.2894 14.2614 30.4332 13.96C30.7025 13.3763 30.9908 12.8108 31.2981 12.2637C31.624 11.7163 31.9123 11.1509 32.1629 10.5675C32.2348 10.4168 32.317 10.3219 32.4097 10.2829C32.5206 10.2248 32.6321 10.1947 32.7441 10.1927C32.8934 10.1899 33.0432 10.2152 33.1935 10.2684C33.3439 10.3216 33.4754 10.3659 33.5881 10.4011C33.6472 10.5681 33.7337 10.7065 33.8478 10.8164C33.9618 10.9263 34.0021 11.0843 33.9685 11.2903C33.7141 11.6684 33.4693 12.0556 33.2339 12.452C33.0168 12.8294 32.7999 13.2162 32.5832 13.6122C32.3848 13.9893 32.1867 14.385 31.989 14.7994C31.8635 15.0818 31.7664 15.3823 31.6976 15.7009C31.6288 16.0196 31.5317 16.3201 31.4062 16.6025C31.2811 16.9035 31.1936 17.2225 31.1438 17.5595C31.0937 17.8778 31.0249 18.1965 30.9374 18.5155C30.9205 18.6091 30.9222 18.7024 30.9426 18.7954C30.9813 18.8694 31.0477 18.9242 31.1417 18.9598C31.4012 18.8616 31.661 18.7728 31.9209 18.6933C32.1808 18.6139 32.4118 18.4882 32.614 18.3165C32.9818 18.011 33.2756 17.7442 33.4954 17.5161C33.7149 17.2693 33.8872 16.9954 34.0123 16.6944C34.1371 16.3747 34.2228 15.9624 34.2695 15.4574C34.2861 15.3451 34.2749 15.2426 34.2359 15.15C34.1965 15.0387 34.1387 14.9464 34.0627 14.8731C33.8934 14.8016 33.7332 14.7205 33.5821 14.63C33.4494 14.5204 33.3445 14.401 33.2675 14.2717C33.2087 14.1234 33.2056 13.9555 33.2582 13.7678C33.328 13.5051 33.4739 13.3157 33.6957 13.1996C33.9363 13.0832 34.1594 13.0324 34.365 13.0472C34.4027 13.0652 34.4311 13.0834 34.4501 13.1017C34.4877 13.1197 34.5163 13.1471 34.5356 13.1841C34.6863 13.256 34.8375 13.3559 34.9892 13.4838C35.1406 13.593 35.2731 13.6932 35.3868 13.7845C35.4653 13.9884 35.5721 14.2105 35.7072 14.4507C35.8423 14.6909 35.9145 15.063 35.9238 15.5669C35.9431 16.612 35.6789 17.4664 35.131 18.13C34.6018 18.7932 33.8938 19.3757 33.0069 19.8775C32.8777 19.9545 32.7387 20.0131 32.5901 20.0532C32.4598 20.0743 32.3395 20.1325 32.2293 20.2279C32.2103 20.2096 32.1264 20.2205 31.9778 20.2605C31.8289 20.282 31.6801 20.3127 31.5315 20.3528C31.3828 20.3929 31.29 20.4226 31.253 20.442Z" fill="#2F94F9"/>
<path d="M19.32 21.0824C19.2446 21.0464 19.1406 20.9737 19.0079 20.8641C18.8938 20.7542 18.7891 20.6441 18.6937 20.5339C18.6367 20.4789 18.5892 20.4331 18.5512 20.3965C18.5128 20.3412 18.4748 20.3045 18.4371 20.2866C18.4347 20.1559 18.461 20.0621 18.5159 20.0051C18.5896 19.9477 18.663 19.881 18.7363 19.805C18.8089 19.6916 18.9292 19.6334 19.0971 19.6303C19.2651 19.6272 19.3949 19.5781 19.4865 19.483C19.8179 19.2342 20.1586 18.9759 20.5083 18.708C20.8581 18.4402 21.1511 18.1268 21.3871 17.7677C21.6415 17.3896 21.8954 16.9835 22.1488 16.5494C22.4021 16.1153 22.6463 15.6907 22.8814 15.2757C22.9536 15.1436 23.0706 14.9081 23.2324 14.569C23.3942 14.23 23.5468 13.9005 23.6902 13.5804C23.852 13.2414 23.941 13.0064 23.9572 12.8754C23.7882 12.8225 23.6287 12.7788 23.4787 12.7442C23.3471 12.6906 23.2156 12.6464 23.0842 12.6115C22.9114 12.3533 22.8153 12.2057 22.796 12.1687C22.7763 12.1131 22.7637 11.9359 22.7582 11.6373C22.754 11.4133 22.8728 11.2711 23.1144 11.2107C23.6532 11.07 24.1276 10.9772 24.5375 10.9323C24.966 10.8871 25.3846 10.8047 25.7931 10.6851C26.053 10.6056 26.3698 10.5718 26.7434 10.5835C27.117 10.5953 27.4918 10.6724 27.8679 10.8148C28.0372 10.8864 28.1789 10.9771 28.293 11.087C28.407 11.1969 28.5121 11.3257 28.6081 11.4733C28.857 11.8047 28.9836 12.0918 28.9881 12.3344C29.0113 12.5767 29.0062 12.8101 28.973 13.0348C28.9398 13.2594 28.9725 13.5109 29.071 13.7891C28.9496 14.2954 28.8273 14.7458 28.7039 15.1401C28.5801 15.5158 28.4653 15.8727 28.3596 16.2107C28.2534 16.53 28.1563 16.8305 28.0682 17.1122C27.98 17.3939 27.9105 17.6752 27.8597 17.9562C27.7906 18.2562 27.7028 18.5565 27.5963 18.8572C27.4898 19.1579 27.4115 19.4674 27.3614 19.7857C27.3286 20.029 27.2199 20.2084 27.0353 20.3238C26.8694 20.4389 26.6846 20.545 26.4811 20.6421C26.4068 20.6621 26.2758 20.6459 26.0881 20.5934C25.9188 20.5218 25.7582 20.4221 25.6065 20.2942C25.5467 20.0899 25.5246 19.9036 25.5402 19.7353C25.5557 19.567 25.59 19.3983 25.6428 19.2293C25.6961 19.079 25.7925 18.7412 25.9322 18.2158C26.0718 17.6905 26.2289 17.0995 26.4035 16.4428C26.5781 15.7862 26.7442 15.1763 26.9018 14.6133C27.0595 14.0503 27.1642 13.6563 27.2161 13.4313C27.3039 13.131 27.3277 12.9065 27.2876 12.7579C27.2662 12.6089 27.2356 12.4694 27.1959 12.3395C26.8012 12.1974 26.5297 12.1558 26.3815 12.2145C26.2515 12.2542 26.0842 12.2947 25.8796 12.3358C25.7877 12.4122 25.7146 12.4975 25.6603 12.5919C25.606 12.6862 25.5704 12.7802 25.5535 12.8739C25.3582 13.4189 25.1888 13.8515 25.0454 14.1715C24.9206 14.4912 24.7953 14.7829 24.6694 15.0466C24.5433 15.2916 24.399 15.565 24.2365 15.8667C24.0927 16.1681 23.9043 16.5823 23.6714 17.1094C23.5283 17.4481 23.3473 17.7595 23.1285 18.0436C22.9284 18.3273 22.7473 18.6294 22.5852 18.9497L22.2844 19.3474C22.3031 19.347 22.2298 19.4231 22.0646 19.5755C21.8994 19.7279 21.7342 19.8803 21.569 20.0327C21.4224 20.1848 21.3492 20.2608 21.3492 20.2608L20.4937 20.9487C20.4018 21.0251 20.2438 21.0653 20.0199 21.0695C19.7959 21.0736 19.5626 21.0779 19.32 21.0824Z" fill="#2F94F9"/>
<path d="M13.9668 20.8732C13.7242 20.8777 13.5274 20.8346 13.3764 20.7441C13.244 20.6532 13.0736 20.5256 12.8652 20.3614C12.5037 19.9947 12.2452 19.6448 12.0897 19.3116C11.9338 18.9597 11.881 18.6246 11.9311 18.3063C11.9843 18.156 12.0004 18.0157 11.9793 17.8854C11.9766 17.7361 11.9752 17.6614 11.9752 17.6614C11.8802 17.5698 11.8511 17.5143 11.8881 17.495C11.9248 17.457 11.961 17.4003 11.997 17.3249C12.109 17.3229 12.1444 17.2195 12.1033 17.0149C12.0632 16.8663 12.1318 16.5383 12.3092 16.031C12.4865 15.5236 12.711 15.0434 12.9827 14.5903C13.0912 14.4016 13.2547 14.1559 13.4731 13.8531C13.6912 13.5317 13.9282 13.2193 14.184 12.9158C14.4581 12.5934 14.7054 12.3368 14.9259 12.146C15.3852 11.7454 15.7905 11.4486 16.1416 11.2554C16.4928 11.0622 16.8728 10.9152 17.2817 10.8143C17.6906 10.7134 17.9697 10.6615 18.119 10.6588C18.2869 10.6557 18.5137 10.8008 18.7991 11.0943C19.2318 11.273 19.5439 11.4913 19.7354 11.7491C19.9455 12.0066 20.0832 12.3868 20.1485 12.8897C20.2148 13.4486 20.1801 14.0933 20.0442 14.8239C19.9266 15.5356 19.5044 16.4302 18.7775 17.5078C18.3233 18.1883 17.9034 18.7001 17.5177 19.0433C17.1316 19.3678 16.6709 19.6937 16.1355 20.021C15.7484 20.2895 15.3974 20.492 15.0825 20.6285C14.7673 20.7464 14.3954 20.8279 13.9668 20.8732ZM16.5996 17.8561C17.0382 17.3439 17.384 16.8614 17.637 16.4087C17.9087 15.9556 18.1595 15.3815 18.3894 14.6865C18.4602 14.4798 18.5022 14.227 18.5154 13.928C18.5282 13.6104 18.5135 13.3213 18.4714 13.0607C18.4475 12.7811 18.3793 12.6236 18.2666 12.5884C18.0402 12.4619 17.7689 12.4295 17.4527 12.4914C17.1361 12.5346 16.7941 12.7183 16.4267 13.0424C15.8571 13.5384 15.3644 14.1542 14.9485 14.89C14.5324 15.6072 14.1274 16.4268 13.7337 17.3489C13.4662 18.0259 13.4109 18.5684 13.5678 18.9762C13.743 19.3651 14.0908 19.4987 14.6113 19.377C15.1502 19.2364 15.8129 18.7294 16.5996 17.8561Z" fill="#2F94F9"/>
<path d="M6.39217 22.6654C6.24287 22.6681 6.07265 22.5499 5.88154 22.3107C5.69042 22.0715 5.60213 21.8398 5.61666 21.6155C5.62981 21.3165 5.70587 20.8857 5.84483 20.3231C5.9838 19.7604 6.14126 19.1881 6.31721 18.606C6.49316 18.024 6.65269 17.5637 6.7958 17.225C6.86494 16.925 6.92543 16.6625 6.97729 16.4375C7.04746 16.1935 7.09119 16.034 7.10847 15.959C7.16309 15.8833 7.24345 15.6858 7.34958 15.3664C7.47436 15.0467 7.57132 14.7369 7.64046 14.4369C7.67503 14.2869 7.74452 14.0056 7.84892 13.5929C7.97163 13.1612 8.11181 12.6639 8.26944 12.1009C8.44573 11.5375 8.61287 10.9837 8.77085 10.4394C8.94749 9.89466 9.09734 9.41582 9.2204 9.00281C9.34346 8.5898 9.42245 8.31762 9.45737 8.18629C9.60254 7.95957 9.71056 7.74287 9.78142 7.5362C9.85228 7.32952 9.89635 7.18868 9.91364 7.11368C10.0242 7.03696 10.0878 6.94244 10.1044 6.83011C10.1207 6.69912 10.1281 6.5963 10.1267 6.52165C10.125 6.42833 10.1516 6.35316 10.2066 6.29614C10.2802 6.23877 10.3163 6.17276 10.315 6.0981C10.3886 6.04073 10.4337 5.95588 10.4503 5.84356C10.4665 5.71257 10.5205 5.59955 10.612 5.50451L10.7432 5.02601L12.3944 4.96751C12.3612 5.19217 12.3104 5.47315 12.242 5.81047C12.1732 6.12913 12.0038 6.56167 11.7338 7.10808C11.6474 7.48307 11.5416 7.82108 11.4165 8.12211C11.31 8.42279 11.267 8.61962 11.2874 8.71259C11.2508 8.75061 11.1702 8.93879 11.0458 9.27715C10.94 9.61516 10.8076 10.0283 10.6486 10.5167C10.5082 11.0047 10.3586 11.4929 10.1996 11.9812C10.0592 12.4692 9.92716 12.9011 9.80341 13.2768C9.69798 13.6334 9.62746 13.8588 9.59186 13.9528C9.44806 14.2542 9.28819 14.6959 9.11224 15.2779C8.93629 15.8599 8.67081 16.6489 8.31581 17.645C8.17202 17.9464 7.99365 18.3977 7.78072 18.9991C7.58645 19.6001 7.42847 20.1445 7.30679 20.6321C7.11493 21.3638 6.97493 21.8705 6.88678 22.1521C6.81764 22.4521 6.75525 22.612 6.6996 22.6317C6.6443 22.67 6.54183 22.6813 6.39217 22.6654ZM6.30802 5.97606C5.78579 6.00438 5.39334 5.98362 5.13067 5.91379C4.88667 5.84362 4.79923 5.65853 4.86837 5.35854C4.92023 5.13354 5.03844 4.96333 5.22301 4.8479C5.40757 4.73247 5.67664 4.64349 6.03022 4.58095C6.23482 4.53983 6.49525 4.48835 6.8115 4.4265C7.14641 4.36431 7.46265 4.30246 7.76023 4.24095C8.37475 4.15493 8.87746 4.0803 9.26836 4.01707C9.67792 3.9535 10.097 3.89908 10.5256 3.85383C10.9541 3.80858 11.4947 3.76125 12.1472 3.71187C12.6878 3.66454 13.1445 3.6281 13.5174 3.60255C13.9087 3.55798 14.1043 3.5357 14.1043 3.5357C14.1603 3.53467 14.3566 3.54971 14.6932 3.58083C15.0299 3.61196 15.3947 3.6519 15.7876 3.70065C16.1806 3.7494 16.4711 3.80938 16.6591 3.88059C17.0901 3.96598 17.4004 4.09094 17.5902 4.25546C17.7986 4.41964 17.943 4.65968 18.0235 4.97558C18.0837 5.19851 18.0863 5.33849 18.0313 5.39551C17.976 5.43387 17.8744 5.49176 17.7265 5.56917C17.2996 5.70774 16.9835 5.77892 16.7782 5.78271C16.5729 5.7865 16.3388 5.74415 16.0758 5.65566C15.9807 5.56407 15.8672 5.48215 15.7352 5.40991C15.6218 5.33732 15.4155 5.28512 15.1162 5.25331C14.8352 5.20249 14.3864 5.1641 13.7698 5.13815C13.2483 5.20379 12.7915 5.24023 12.3996 5.24747C12.0077 5.25471 11.8126 5.30498 11.8143 5.3983L10.1641 5.51279L8.79494 5.67809C8.60865 5.7002 8.34788 5.73302 8.01263 5.77655C7.67703 5.80142 7.35093 5.83545 7.03435 5.87864C6.71741 5.90316 6.4753 5.93563 6.30802 5.97606Z" fill="#2F94F9"/>
<path d="M164.481 34.0576C162.864 32.5906 161.245 31.1276 159.605 29.6883C159.418 29.5262 159.231 29.3595 159.04 29.2018C158.985 29.1555 158.927 29.11 158.876 29.0625C158.701 28.9444 158.556 28.762 158.483 28.5033C158.415 28.2634 158.463 27.9363 158.599 27.7273C158.793 27.4323 159.138 27.1996 159.508 27.2328C160.023 27.2748 160.363 27.6436 160.73 27.9575C161.18 28.3459 161.626 28.7418 162.07 29.14C162.594 29.6064 163.116 30.0784 163.636 30.5476C162.785 24.0994 159.462 17.3629 153.208 14.5684C151.176 13.6616 148.892 13.2694 146.649 13.2557C145.326 13.2479 145.378 11.2074 146.704 11.2143C151.074 11.2325 155.241 12.6968 158.502 15.5986C161.464 18.2382 163.45 21.8292 164.631 25.5693C165.036 26.851 165.336 28.1602 165.55 29.486C165.939 27.9552 166.161 26.3892 166.253 24.8072C166.327 23.4996 168.385 23.5378 168.308 24.8544C168.182 27.0752 167.824 29.3066 167.124 31.4235C166.853 32.2513 166.542 33.106 166.103 33.8672C165.759 34.4697 164.958 34.4856 164.484 34.0564L164.481 34.0576ZM159.449 29.2703C159.47 29.2566 159.495 29.2456 159.516 29.2318C159.473 29.2342 159.427 29.2374 159.384 29.2315C159.45 29.2535 159.484 29.2699 159.448 29.2672L159.449 29.2703ZM158.968 29.1215L158.958 29.1156C158.958 29.1156 158.959 29.1203 158.965 29.1223L158.968 29.1215Z" fill="#2F94F9"/>
</svg>
