<svg width="87" height="61" viewBox="0 0 87 61" fill="none" xmlns="http://www.w3.org/2000/svg">
<path d="M73.9772 30.5393C73.6269 30.4307 73.3528 30.2881 73.1549 30.1114C72.9757 29.9355 72.8828 29.7072 72.8762 29.4267C72.8973 29.3716 72.9102 29.288 72.915 29.1761C72.9191 29.0829 72.9612 28.9726 73.0414 28.8453C73.0414 28.8453 73.0962 28.8757 73.2056 28.9365C73.3338 28.998 73.5486 28.998 73.8503 28.9363C74.2224 28.971 74.4851 28.945 74.6384 28.8582C74.7916 28.7714 75.0149 28.5755 75.3083 28.2706C75.5256 27.9997 75.7728 27.6834 76.05 27.3217C76.3458 26.9608 76.5456 26.6612 76.6493 26.4227C76.9566 26.2305 77.1791 26.0533 77.3169 25.8911C77.4555 25.7102 77.5848 25.5289 77.7047 25.3473C77.7088 25.254 77.744 25.0874 77.8104 24.8474C77.8776 24.5887 78.0308 24.287 78.2699 23.9424C78.4952 23.485 78.7079 23.1018 78.9081 22.7928C79.1091 22.4652 79.2116 22.2548 79.2156 22.1615C79.2156 22.1615 79.2464 22.0975 79.308 21.9693C79.3696 21.8412 79.3951 21.6835 79.3845 21.4962C79.4988 21.4451 79.5973 21.3279 79.68 21.1446C79.7821 20.9435 79.8282 20.74 79.8184 20.534C79.8209 20.4781 79.914 20.2672 80.098 19.9015C80.2828 19.5171 80.3929 19.1295 80.4285 18.7387C80.6626 18.0762 80.8376 17.4858 80.9534 16.9677C81.0887 16.4317 81.198 15.8479 81.2813 15.2162C81.3647 14.5845 81.4556 13.7757 81.5543 12.7897C81.6278 11.9521 81.6828 11.3286 81.7192 10.9191C81.7564 10.491 81.7611 10.1642 81.7335 9.9388C81.7245 9.7142 81.6503 9.48679 81.5107 9.25655C81.35 8.65172 81.2044 8.34648 81.0738 8.34084C81.0179 8.33843 80.9559 8.26101 80.8877 8.10859C80.839 7.93833 80.8576 7.72427 80.9435 7.4664C80.928 7.391 80.9596 7.30828 81.0383 7.21826C81.1169 7.12824 81.2397 7.09618 81.4068 7.12207C81.5373 7.12771 81.6748 7.1897 81.8191 7.30805C81.9829 7.40854 82.0912 7.4973 82.1439 7.57431C82.2217 7.50294 82.3296 7.60102 82.4675 7.86855C82.6249 8.11824 82.7851 8.51753 82.9483 9.06642C83.0489 9.33234 83.1231 9.55976 83.171 9.74867C83.2197 9.91893 83.2486 10.1164 83.2576 10.341C83.2673 10.5469 83.2545 10.8453 83.2189 11.2361C83.1841 11.6083 83.1336 12.1293 83.0673 12.799C83.0391 13.4518 82.9615 14.1677 82.8344 14.947C82.7268 15.7084 82.6009 16.4596 82.4568 17.2008C82.3134 17.9233 82.1636 18.5801 82.0073 19.1712C81.8558 19.6505 81.6533 20.2303 81.3997 20.9106C81.1469 21.5723 80.8657 22.2421 80.5562 22.9201C80.2653 23.5988 79.9869 24.2034 79.7211 24.7337C79.4739 25.2649 79.2709 25.6392 79.1121 25.8565C79.1494 25.8581 79.0886 25.9676 78.9297 26.1849C78.7895 26.4031 78.5905 26.6841 78.3328 27.028C78.0945 27.354 77.8465 27.6889 77.5887 28.0328C77.3302 28.3953 77.1113 28.7035 76.9322 28.9573C76.6356 29.3369 76.304 29.6589 75.9376 29.9233C75.5712 30.1877 75.2173 30.378 74.876 30.494C74.5347 30.61 74.2351 30.6251 73.9772 30.5393Z" fill="#2F94F9"/>
<path d="M68.9568 29.1733C68.7703 29.1652 68.6499 29.1413 68.5956 29.1016C68.5591 29.0814 68.5064 29.0043 68.4374 28.8706C68.443 28.74 68.4759 28.6293 68.5358 28.5385C68.6145 28.4485 68.7219 28.341 68.858 28.2161C69.0526 28.0377 69.2771 27.8138 69.5317 27.5446C69.7854 27.294 70.0208 27.0332 70.2381 26.7623C70.4739 26.4923 70.6421 26.2753 70.7426 26.1115C70.8261 25.9096 70.9018 25.67 70.9699 25.3926C71.0565 25.1161 71.1444 24.8116 71.2335 24.4792C71.24 24.33 71.2456 24.1994 71.2505 24.0875C71.2747 23.9578 71.3258 23.8572 71.4036 23.7859C71.5398 23.661 71.6541 23.6098 71.7465 23.6325C71.8576 23.656 71.9461 23.7719 72.0118 23.9803C72.0962 24.1895 72.1482 24.5 72.1677 24.9119C72.2246 25.3254 72.2085 25.6984 72.1194 26.0308C72.0303 26.3633 71.8727 26.7675 71.6466 27.2436C71.6037 27.3725 71.474 27.5631 71.2576 27.8153C71.0412 28.0675 70.8255 28.3011 70.6107 28.516C70.3959 28.731 70.2605 28.8372 70.2046 28.8348C70.13 28.8316 70.0639 28.8474 70.0064 28.8823C69.948 28.9358 69.8799 28.9983 69.8021 29.0697C69.7243 29.141 69.6108 29.1735 69.4616 29.1671C69.3302 29.1801 69.162 29.1821 68.9568 29.1733ZM74.1245 19.8396C73.7645 19.9548 73.4633 20.0072 73.2208 19.9968C72.9979 19.9684 72.7509 19.8457 72.48 19.6284C72.1402 19.2774 72.0335 18.9365 72.1599 18.6057C72.3057 18.257 72.6284 17.9253 73.1277 17.6105C73.4723 17.4199 73.7196 17.3184 73.8696 17.3062C74.0382 17.2948 74.2872 17.371 74.6164 17.5347C75.1606 17.9132 75.3861 18.3153 75.293 18.741C75.2185 19.1675 74.829 19.5337 74.1245 19.8396Z" fill="#2F94F9"/>
<path d="M55.2625 26.0033C54.6212 26.1437 54.1699 26.2083 53.9089 26.197C53.6478 26.1858 53.3737 26.0431 53.0866 25.7691C52.9973 25.6719 52.9454 25.5762 52.9308 25.4822C52.917 25.3695 52.8732 25.3022 52.7994 25.2803C52.7864 25.1489 52.8001 25.0468 52.8407 24.9738C52.9006 24.883 53.0255 24.8043 53.2152 24.7377C53.4877 24.9177 53.84 24.9796 54.2722 24.9235C54.7043 24.8675 55.1308 24.7271 55.5515 24.5023C55.9917 24.2598 56.3407 23.9666 56.5985 23.6227C56.9908 23.1912 57.298 22.7841 57.52 22.4013C57.7429 21.9999 57.8705 21.6411 57.9029 21.3249C57.9109 21.1384 57.8886 21.0066 57.8359 20.9296C57.8026 20.8347 57.7154 20.6908 57.5742 20.4979C57.2337 20.5953 56.9204 20.7126 56.6342 20.8497C56.3666 20.9876 56.1453 21.1368 55.9702 21.2974C55.3906 21.7395 54.9358 22.1029 54.6059 22.3876C54.2946 22.6731 54.0207 22.9602 53.784 23.2489C53.5659 23.5384 53.2875 23.9281 52.9487 24.4179C52.7915 24.598 52.6456 24.7318 52.511 24.8194C52.3951 24.9078 52.2719 24.9492 52.1413 24.9436C52.1811 25.319 52.0409 25.5371 51.7207 25.598C51.3144 25.4871 51.0213 25.353 50.8412 25.1957C50.662 25.0198 50.6197 24.7004 50.7145 24.2373C50.8003 23.9795 50.8882 23.675 50.9781 23.3239C51.0688 22.9541 51.1661 22.65 51.2698 22.4116C51.7689 21.2374 52.2065 20.1913 52.5824 19.2733C52.9771 18.3562 53.3134 17.7074 53.5914 17.3271L54.2757 15.7591C54.5919 15.7915 54.8315 15.8672 54.9945 15.9864C55.1584 16.0869 55.3441 16.3284 55.5518 16.7111C55.5478 16.8043 55.4428 17.0707 55.237 17.5103C55.0506 17.9319 54.8241 18.4173 54.5575 18.9663C54.3096 19.5161 54.0725 20.029 53.8465 20.505C53.6398 20.9632 53.4952 21.2839 53.4125 21.4672C53.3291 21.6691 53.3866 21.6342 53.5852 21.3626C53.8024 21.0917 54.1721 20.7527 54.6941 20.3455C54.947 20.1135 55.2551 19.9026 55.6183 19.7128C55.9823 19.5043 56.2879 19.3493 56.5352 19.2479C56.8011 19.1473 57.0184 19.0913 57.1871 19.0799C57.3557 19.0685 57.4778 19.0551 57.5532 19.0396C58.0194 19.0598 58.3871 19.1971 58.6564 19.4516C58.9265 19.6875 59.111 19.9571 59.21 20.2603C59.3277 20.5643 59.3825 20.8096 59.3744 20.9961C59.4175 21.2969 59.4423 21.5875 59.4489 21.8681C59.4749 22.1308 59.4441 22.4097 59.3567 22.7049C59.2943 22.8517 59.1828 23.0524 59.0224 23.307C58.8619 23.5617 58.673 23.8244 58.4558 24.0953C58.258 24.3483 58.025 24.5531 57.7566 24.7097C57.5815 24.8703 57.3501 25.0378 57.0623 25.2122C56.7745 25.3866 56.4685 25.5509 56.1442 25.705C55.8393 25.8413 55.5454 25.9408 55.2625 26.0033ZM61.0617 26.7022C60.7277 26.6504 60.4523 26.5357 60.2358 26.3582C60.0387 26.1629 59.9012 25.886 59.8233 25.5277C59.837 25.2106 59.8867 24.9232 59.9726 24.6653C60.0779 24.3896 60.1642 24.1224 60.2315 23.8637C60.3432 23.4388 60.4923 23.0155 60.6787 22.5938C60.865 22.1722 61.0328 21.7497 61.1818 21.3264C61.305 21.0701 61.4091 20.8224 61.4942 20.5832C61.5793 20.344 61.6644 20.1047 61.7494 19.8655C61.8556 19.5712 61.9613 19.2861 62.0666 19.0104C62.172 18.7347 62.2773 18.459 62.3826 18.1833C62.4677 17.9441 62.5345 17.6947 62.5831 17.4352C62.6503 17.1766 62.7082 16.9175 62.7568 16.658C62.9716 16.4431 63.1994 16.3595 63.4403 16.4073C63.6997 16.4558 64.0075 16.684 64.3636 17.0918C64.4471 17.3196 64.4849 17.5267 64.4769 17.7132C64.4696 17.8811 64.4153 18.0562 64.314 18.2387C64.2322 18.4033 64.1187 18.6506 63.9737 18.9807C63.8473 19.3115 63.7116 19.642 63.5665 19.972C63.4409 20.2842 63.3465 20.5231 63.2833 20.6885C63.2372 20.892 63.1201 21.2233 62.9321 21.6823C62.7628 22.142 62.5833 22.6201 62.3937 23.1164C62.2049 23.594 62.0668 23.9804 61.9793 24.2755C61.8553 24.5505 61.7597 24.8172 61.6925 25.0759C61.6253 25.3346 61.5552 25.6585 61.4824 26.0477C61.5124 26.2172 61.4784 26.3559 61.3803 26.4637C61.3017 26.5538 61.1955 26.6332 61.0617 26.7022Z" fill="#2F94F9"/>
<path d="M48.053 25.4957C47.8462 25.5242 47.6407 25.5246 47.4363 25.4971C47.232 25.4696 47.0394 25.3866 46.8585 25.248C46.7904 25.0955 46.7044 24.9237 46.6006 24.7323C46.5162 24.5232 46.5145 24.3456 46.5955 24.1996C46.6985 23.9799 46.7588 23.6648 46.7765 23.2546C46.8129 22.8451 46.9024 22.5033 47.045 22.2292C47.0653 22.1927 47.0758 22.1651 47.0766 22.1465C47.0969 22.11 47.1078 22.0731 47.1094 22.0358C47.1361 21.8501 47.1928 21.619 47.2795 21.3425C47.3856 21.0481 47.461 20.8178 47.5055 20.6516C47.5258 20.6151 47.5606 20.4578 47.61 20.1797C47.6594 19.9015 47.7095 19.6048 47.7605 19.2893C47.8115 18.9739 47.8399 18.7509 47.8455 18.6204C47.8495 18.5271 47.8807 18.4537 47.9391 18.4002C48.0169 18.3288 48.0209 18.2356 47.9512 18.1205C47.6407 18.3873 47.2512 18.7535 46.7827 19.2191C46.3328 19.6854 45.9011 20.1619 45.4878 20.6485C45.0752 21.1165 44.7493 21.5228 44.5102 21.8675C44.4697 21.9404 44.4203 22.0037 44.3619 22.0572C44.3036 22.1108 44.2545 22.1647 44.2148 22.219C44.1354 22.3277 44.0377 22.4262 43.9218 22.5147C43.8058 22.6031 43.7167 22.7207 43.6543 22.8674C43.3236 23.1708 43.0496 23.4579 42.8323 23.7288C42.6338 24.0005 42.3509 24.2778 41.9836 24.5609C41.7388 24.6064 41.5158 24.5781 41.3147 24.476C41.1322 24.3747 40.94 24.2823 40.7381 24.1988C40.7048 24.104 40.6622 24.0087 40.6103 23.9131C40.5592 23.7987 40.517 23.6942 40.4838 23.5993C40.5582 23.1728 40.6647 22.6542 40.8032 22.0436C40.9425 21.4144 41.0627 20.7937 41.1639 20.1815C41.2837 19.5701 41.3322 19.0957 41.3094 18.7584C41.2948 18.6644 41.2887 18.5894 41.2911 18.5334C41.2936 18.4775 41.3243 18.4134 41.3835 18.3412C41.3851 18.3039 41.3867 18.2666 41.3883 18.2293C41.4086 18.1928 41.4191 18.1653 41.42 18.1466C41.3307 18.0493 41.3161 17.9553 41.3761 17.8645C41.4361 17.7736 41.4401 17.6804 41.3882 17.5847C41.3703 17.5653 41.3432 17.5454 41.3067 17.5252C41.2888 17.5057 41.2617 17.4858 41.2252 17.4656C40.7875 18.0819 40.3141 18.6594 39.8051 19.1979C39.3155 19.7186 38.834 20.2677 38.3606 20.8451C38.0453 21.2238 37.7365 21.6683 37.4342 22.1784C37.1506 22.6893 36.815 23.1045 36.4275 23.4241C36.2913 23.549 36.1544 23.6925 36.0166 23.8547C35.8982 23.9991 35.7527 24.1236 35.58 24.2282C35.5371 24.3572 35.4581 24.4565 35.343 24.5263C35.2473 24.5782 35.1249 24.6009 34.9757 24.5945C34.6959 24.5824 34.4202 24.4771 34.1485 24.2785C33.8768 24.0799 33.7369 23.859 33.7287 23.6158C33.7344 23.4852 33.796 23.3571 33.9135 23.2314C33.9338 23.1949 33.9447 23.158 33.9463 23.1207C33.9666 23.0842 33.9864 23.057 34.0059 23.0392C34.3667 22.9053 34.7327 22.6502 35.1039 22.2739C35.4938 21.8984 35.8663 21.4941 36.2213 21.061C36.5772 20.6092 36.9014 20.2402 37.194 19.9539C37.4664 19.7041 37.6832 19.4426 37.8445 19.1693C38.0066 18.8773 38.2055 18.5963 38.4414 18.3262C38.7365 17.984 39.0327 17.6138 39.3302 17.2156C39.6463 16.8182 39.9527 16.4297 40.2493 16.0501C40.5646 15.6714 40.8779 15.3393 41.1892 15.0538C41.3165 15.134 41.4443 15.2049 41.5724 15.2665C41.7192 15.3289 41.8765 15.3637 42.0443 15.371C42.1327 15.4869 42.2118 15.6024 42.2816 15.7175C42.3708 15.8148 42.4693 15.9125 42.5772 16.0106C42.8286 16.2456 42.9929 16.5517 43.07 16.9287C43.1472 17.3057 43.1765 17.7087 43.158 18.1376C43.1314 18.753 43.0391 19.375 42.8812 20.0034C42.7427 20.614 42.6362 21.1326 42.5617 21.5591C42.5609 21.5777 42.5601 21.5964 42.5593 21.615C42.578 21.6158 42.5869 21.6256 42.5861 21.6442C43.0117 21.3076 43.3931 20.913 43.7302 20.4605C44.0674 20.0079 44.422 19.5842 44.7941 19.1892C45.4799 18.4528 45.9889 17.9143 46.3212 17.5736C46.6722 17.2338 46.9349 16.9929 47.1092 16.8509C47.2835 16.709 47.4577 16.5671 47.632 16.4251C47.7666 16.3375 47.921 16.2227 48.0953 16.0808C48.2891 15.921 48.5416 15.6984 48.8529 15.4129C49.0021 15.4193 49.1419 15.4253 49.2725 15.431C49.4217 15.4374 49.5615 15.4435 49.6921 15.4491C49.8372 15.5488 49.9459 15.6282 50.0181 15.6874C50.0911 15.7279 50.2107 15.7705 50.3769 15.815C50.3915 15.9091 50.4228 16.0505 50.4707 16.2395C50.5186 16.4284 50.5219 16.5686 50.4805 16.6603C50.4376 16.7892 50.4133 16.9189 50.4077 17.0495C50.402 17.18 50.3498 17.3086 50.2509 17.4351C50.092 17.6524 49.936 18.0194 49.7829 18.5359C49.6493 19.0346 49.525 19.5337 49.41 20.0332C49.3144 20.5149 49.2529 20.8579 49.2254 21.0622C49.1355 21.4133 49.0504 21.6525 48.9702 21.7799C48.8908 21.8885 48.8296 22.0073 48.7866 22.1363C48.7437 22.2652 48.7279 22.414 48.7393 22.5826C48.7515 22.7326 48.7268 22.8717 48.6652 22.9998C48.6458 23.0177 48.6263 23.0355 48.6069 23.0534C48.6069 23.0534 48.5972 23.0623 48.5777 23.0801C48.5696 23.2666 48.5612 23.4624 48.5523 23.6676C48.5629 23.8549 48.5184 24.0211 48.4187 24.1663C48.4503 24.2984 48.4536 24.4387 48.4285 24.5871C48.4034 24.7355 48.4156 24.8855 48.4651 25.0371C48.3873 25.1085 48.3188 25.1802 48.2597 25.2524C48.2005 25.3246 48.1316 25.4057 48.053 25.4957Z" fill="#2F94F9"/>
<path d="M16.5059 23.3202C16.3064 23.1808 16.1271 23.0049 15.9681 22.7925C15.81 22.5615 15.7381 22.2781 15.7526 21.9424C15.7607 21.7559 15.8117 21.4405 15.9056 20.9961C15.9995 20.5518 16.1239 20.0527 16.2786 19.4988C16.4333 18.945 16.5864 18.4285 16.7379 17.9492C16.9389 17.6216 17.1119 17.2927 17.2569 16.9627C17.402 16.6326 17.4761 16.4303 17.4794 16.3557C17.5263 16.1335 17.5842 15.8745 17.6531 15.5785C17.7405 15.2833 17.8268 15.0161 17.9119 14.7769C17.997 14.5377 18.059 14.4003 18.0979 14.3646C18.1951 14.2753 18.3094 14.2242 18.4408 14.2112C18.573 14.1796 18.7027 14.2039 18.83 14.2841C18.9768 14.3465 19.0835 14.4725 19.15 14.6622C19.3455 14.8949 19.4364 15.1697 19.4227 15.4868C19.4098 15.7852 19.2879 16.2283 19.0569 16.8162C18.873 17.182 18.6862 17.613 18.4966 18.1093C18.307 18.6055 18.1377 19.0653 17.9886 19.4886C17.859 19.8941 17.7816 20.171 17.7565 20.3194L17.1898 20.4631C17.5197 20.1784 17.8314 19.8835 18.1249 19.5786C18.4191 19.255 18.6355 19.0028 18.7741 18.8219C19.1097 18.4067 19.3954 18.064 19.6313 17.7939C19.8866 17.506 20.2096 17.165 20.6003 16.7708C20.9919 16.358 21.3668 16.1126 21.7252 16.0347C22.103 15.9389 22.3945 15.8954 22.5996 15.9043C23.0067 15.9966 23.3238 16.2252 23.5509 16.59C23.7975 16.9369 23.9436 17.4477 23.9892 18.1223C23.9779 18.3834 23.9366 18.6899 23.8654 19.0418C23.8128 19.3946 23.7865 19.5709 23.7865 19.5709C23.7865 19.5709 23.9441 19.3816 24.2594 19.0028C24.5934 18.6249 25.0315 18.2141 25.5738 17.7704C25.9395 17.5246 26.2909 17.3903 26.6282 17.3675C26.9663 17.3261 27.2599 17.4509 27.5089 17.7419C27.9825 18.0239 28.2822 18.4386 28.408 18.9858C28.5347 19.5145 28.543 20.1874 28.4329 21.0048C28.356 21.4873 28.331 21.8505 28.3578 22.0946C28.3854 22.32 28.4317 22.5462 28.4967 22.7732C28.6426 22.8542 28.6637 23.014 28.56 23.2524C28.4571 23.4721 28.3404 23.5792 28.2098 23.5736C28.0233 23.5655 27.8105 23.5189 27.5713 23.4339C27.3507 23.3496 27.1508 23.2195 26.9716 23.0436C26.8118 22.8499 26.7387 22.5945 26.7524 22.2774L26.8273 20.5431C26.8451 20.1328 26.8409 19.7963 26.8149 19.5336C26.8075 19.2717 26.7678 19.1112 26.6956 19.052C26.4953 18.9312 26.1916 19.0396 25.7847 19.377C25.3778 19.7144 24.9376 20.1718 24.4642 20.7493C23.9909 21.3267 23.5447 21.924 23.1257 22.5412C22.7464 23.104 22.5081 23.43 22.4108 23.5192C22.333 23.5906 22.1943 23.5566 21.9948 23.4172C21.5902 23.2689 21.3367 23.0805 21.2345 22.8518C21.1517 22.6054 21.1541 22.3346 21.2416 22.0394C21.3485 21.7264 21.4789 21.3023 21.6328 20.7671C21.8054 20.2327 21.9678 19.7166 22.1201 19.2187C22.2732 18.7021 22.3733 18.3328 22.4202 18.1106C22.3521 17.9582 22.2235 17.9059 22.0346 17.9538C21.8652 17.9839 21.6844 18.0601 21.4922 18.1826C21.262 18.3221 20.9795 18.5902 20.6448 18.9868C20.31 19.3834 19.9631 19.8448 19.604 20.3712C19.3649 20.7158 19.1165 21.0601 18.8588 21.404C18.6018 21.7292 18.3651 22.0179 18.1487 22.2701C17.9323 22.5224 17.7467 22.7105 17.5918 22.8346C17.313 23.2336 17.1262 23.4498 17.0313 23.483C16.9365 23.5163 16.7613 23.462 16.5059 23.3202Z" fill="#2F94F9"/>
<path d="M15.3442 7.15494C15.6118 7.44676 15.809 7.85698 15.9356 8.38561C16.063 8.89558 16.1337 9.42179 16.1477 9.96423C16.1802 10.5075 16.1504 10.9826 16.0581 11.3897C16.037 11.4448 16.0107 11.6212 15.9792 11.9188C15.9484 12.1977 15.9063 12.5229 15.8529 12.8942C15.7995 13.2656 15.7473 13.609 15.6963 13.9244C15.6461 14.2212 15.5911 14.415 15.5311 14.5059C15.4971 14.8594 15.389 15.2004 15.2066 15.5288C15.0437 15.8394 14.9263 16.18 14.8542 16.5505C14.855 16.5319 14.7942 16.6414 14.6719 16.879C14.5495 17.1166 14.4061 17.4093 14.2416 17.7572C14.0779 18.0865 13.9247 18.3881 13.7821 18.6622C13.6589 18.9185 13.5872 19.0649 13.5669 19.1014C13.118 19.9788 12.5478 20.851 11.8564 21.718C11.165 22.585 10.4525 23.2922 9.71884 23.8397C9.40997 24.0693 9.02651 24.2956 8.56846 24.5187C8.1104 24.7418 7.76988 24.8392 7.5469 24.8109C7.34337 24.7647 7.13903 24.7372 6.93389 24.7283C6.72794 24.7381 6.52199 24.7479 6.31605 24.7577C6.1101 24.7675 5.83237 24.7088 5.48287 24.5816C5.15202 24.4552 4.84022 24.3203 4.54747 24.1768C4.27417 24.0156 4.11036 23.9151 4.05602 23.8753C4.05602 23.8753 3.98424 23.8068 3.84069 23.6699C3.69794 23.5142 3.53694 23.3485 3.3577 23.1726C3.19791 22.9788 3.05557 22.8138 2.93066 22.6777C2.80576 22.5415 2.7433 22.4734 2.7433 22.4734C2.63544 22.3753 2.59324 22.2707 2.61673 22.1596C2.64021 22.0485 2.62599 21.9452 2.57407 21.8495C2.53999 21.7733 2.56348 21.6622 2.64452 21.5162C2.74421 21.3711 2.85282 21.2356 2.97036 21.1099C3.10654 20.985 3.20301 20.9144 3.25977 20.8982C3.38709 20.9784 3.50509 21.0583 3.61376 21.1377C3.74189 21.1993 3.86961 21.2702 3.99694 21.3504C3.98405 21.6488 4.11103 21.9533 4.37787 22.2637C4.66418 22.5564 4.95371 22.7744 5.24645 22.9178C5.30079 22.9575 5.41108 22.9997 5.57731 23.0442C5.76219 23.0896 5.94747 23.1256 6.13316 23.1523C6.31965 23.1604 6.42222 23.1648 6.44087 23.1656C6.90791 23.1671 7.39112 23.0105 7.8905 22.6957C8.40853 22.3818 8.87263 22.0188 9.2828 21.6068C9.71161 21.1956 10.0346 20.8546 10.2519 20.5837C10.5493 20.1855 10.7673 19.8959 10.906 19.7151C11.0454 19.5156 11.1459 19.3518 11.2074 19.2236C11.2885 19.0777 11.3898 18.8952 11.5113 18.6763C11.6337 18.4386 11.8355 18.0924 12.1167 17.6374C12.2796 17.3268 12.4308 17.0718 12.5702 16.8723C12.7104 16.6541 12.7853 16.4331 12.795 16.2094C12.5744 16.1251 12.2582 16.0927 11.8463 16.1123C11.4539 16.1141 11.0229 16.1421 10.5535 16.1966C10.1035 16.2332 9.6628 16.2702 9.23145 16.3077C8.81955 16.3272 8.48427 16.3034 8.2256 16.2362C7.98718 16.1325 7.82579 15.976 7.7414 15.7668C7.65782 15.539 7.5933 15.3027 7.54782 15.0578C7.51697 14.907 7.51368 14.7667 7.53797 14.637C7.58172 14.4894 7.69845 14.3824 7.88816 14.3158L10.0142 14.4077C10.6134 14.3775 11.1939 14.3465 11.7558 14.3147C12.3364 14.2838 12.8472 14.3525 13.2883 14.5211C13.3621 14.5429 13.4371 14.5368 13.5133 14.5028C13.5903 14.45 13.6398 14.3868 13.6617 14.313C13.7337 13.9424 13.8334 13.5824 13.9606 13.2329C14.0878 12.8834 14.1408 12.5213 14.1196 12.1467C14.1973 11.6456 14.2422 11.2552 14.2543 10.9755C14.2663 10.6957 14.2772 10.444 14.2869 10.2202C14.316 9.97853 14.3577 9.6627 14.4119 9.27267C14.424 8.99294 14.3817 8.67348 14.2851 8.31431C14.1894 7.93649 13.9858 7.67546 13.6744 7.53122C13.5097 7.44937 13.2981 7.37484 13.0394 7.30761C12.8002 7.22254 12.5788 7.15693 12.3753 7.11076C12.1912 7.04676 12.0992 7.01476 12.0992 7.01476C11.8616 6.89239 11.5624 6.89815 11.2016 7.03204C10.8595 7.16673 10.5246 7.34845 10.1971 7.5772C9.88828 7.80675 9.63697 8.00142 9.44323 8.1612C9.53326 8.23983 9.58598 8.31684 9.60141 8.39224C9.61683 8.46765 9.58685 8.51306 9.51144 8.52849C9.38009 8.5415 9.25686 8.58289 9.14174 8.65265C9.02743 8.70376 8.92123 8.78325 8.82315 8.89112C8.70642 8.99818 8.54589 9.03796 8.34155 9.01045C8.13722 8.98294 8.0111 8.87473 7.96321 8.68582C7.95342 8.47987 7.91405 8.31001 7.84509 8.17624C7.77614 8.04248 7.74448 7.91032 7.75012 7.77977C7.75656 7.63058 7.84773 7.46636 8.02363 7.28712C8.35759 6.90918 8.71791 6.56975 9.10459 6.26882C9.51072 5.95005 9.93349 5.67871 10.3729 5.4548C10.411 5.43776 10.5241 5.41463 10.7122 5.38538C10.919 5.35695 11.0613 5.30704 11.1391 5.23566C11.2177 5.14564 11.2931 5.13021 11.3653 5.18939C11.4561 5.24936 11.5404 5.24366 11.6183 5.17229C12.1705 5.3643 12.6408 5.50606 13.0292 5.59758C13.4363 5.6899 13.8129 5.83696 14.1592 6.03876C14.5242 6.24136 14.9191 6.61342 15.3442 7.15494Z" fill="#2F94F9"/>
<path d="M68.1128 54.9115C66.7115 53.2374 65.3143 51.5611 63.9415 49.8647C63.7871 49.6719 63.628 49.4777 63.478 49.2811C63.4339 49.2241 63.3908 49.1639 63.3454 49.1116C63.2344 48.9315 63.0578 48.7798 62.8022 48.6967C62.5653 48.6191 62.2366 48.654 62.0223 48.7818C61.7198 48.9636 61.4735 49.2994 61.4919 49.67C61.5133 50.1858 61.8683 50.5407 62.1673 50.9201C62.5374 51.3847 62.9152 51.8465 63.2953 52.3056C63.7405 52.8482 64.1913 53.389 64.6394 53.9273C58.2303 52.819 51.6317 49.2299 49.089 42.8694C48.264 40.8029 47.9632 38.5053 48.039 36.2634C48.0841 34.9414 46.0431 34.9118 45.9971 36.2368C45.8409 40.6039 47.1378 44.8261 49.9071 48.2006C52.4264 51.2658 55.9353 53.3933 59.6253 54.7226C60.8898 55.178 62.186 55.5306 63.5022 55.7973C61.9571 56.1246 60.3835 56.2839 58.7991 56.3126C57.4896 56.335 57.4457 58.3927 58.7643 58.3679C60.9884 58.3304 63.2322 58.0625 65.3754 57.4477C66.2134 57.2097 67.0797 56.9324 67.8579 56.5241C68.4736 56.2043 68.5215 55.4047 68.1115 54.9148L68.1128 54.9115ZM63.5302 49.692C63.5156 49.7133 63.5036 49.7369 63.489 49.7582C63.4931 49.7152 63.4981 49.6691 63.494 49.6254C63.5133 49.6922 63.5284 49.7272 63.5271 49.6911L63.5302 49.692ZM63.4006 49.2059L63.3951 49.1958C63.3951 49.1958 63.3998 49.1971 63.4015 49.2027L63.4006 49.2059Z" fill="#2F94F9"/>
</svg>
