<svg width="71" height="46" viewBox="0 0 71 46" fill="none" xmlns="http://www.w3.org/2000/svg">
<path d="M62.9552 42.3683C62.6454 42.315 62.3965 42.2243 62.2087 42.0961C62.0368 41.9666 61.9324 41.7829 61.8957 41.5452C61.9074 41.496 61.9092 41.4236 61.9008 41.328C61.8939 41.2483 61.9174 41.1498 61.9714 41.0327C61.9714 41.0327 62.0213 41.0524 62.1211 41.0919C62.2369 41.13 62.4195 41.1061 62.669 41.0201C62.9892 41.0082 63.2095 40.9569 63.3301 40.8661C63.4507 40.7753 63.6187 40.5839 63.8342 40.2921C63.9886 40.0377 64.1636 39.7414 64.3589 39.4032C64.5702 39.0636 64.7067 38.7867 64.7683 38.5725C65.0081 38.3749 65.1775 38.1995 65.2766 38.0464C65.3742 37.8772 65.4639 37.7088 65.5457 37.5411C65.5387 37.4614 65.5501 37.3158 65.5799 37.1045C65.6083 36.8771 65.7049 36.6037 65.8697 36.2842C66.0103 35.8704 66.1485 35.5211 66.2843 35.2362C66.4187 34.9354 66.4824 34.7452 66.4754 34.6655C66.4754 34.6655 66.4945 34.6076 66.5326 34.4918C66.5707 34.3761 66.5748 34.2392 66.545 34.0812C66.6364 34.0251 66.7071 33.9145 66.757 33.7495C66.8214 33.5673 66.838 33.3892 66.8067 33.2152C66.8026 33.1674 66.8583 32.9778 66.974 32.6465C67.0883 32.2993 67.1388 31.9576 67.1255 31.6215C67.2508 31.0324 67.3339 30.5112 67.3747 30.058C67.43 29.5874 67.458 29.079 67.4585 28.5329C67.4591 27.9868 67.4465 27.2893 67.4206 26.4403C67.39 25.7202 67.3673 25.1842 67.3527 24.8321C67.3367 24.4641 67.3044 24.1859 67.2558 23.9974C67.2232 23.8075 67.1348 23.6225 66.9906 23.4423C66.7868 22.9461 66.629 22.7029 66.5175 22.7126C66.4697 22.7168 66.4083 22.6579 66.3334 22.536C66.2731 22.3967 66.2651 22.2127 66.3094 21.984C66.2879 21.9216 66.3056 21.8478 66.3624 21.7625C66.4192 21.6773 66.52 21.6364 66.6648 21.6398C66.7764 21.6301 66.9001 21.6675 67.036 21.752C67.1864 21.8192 67.2883 21.8826 67.3417 21.9421C67.3999 21.8728 67.5025 21.9442 67.6494 22.1562C67.8109 22.3509 67.9915 22.6725 68.1912 23.1208C68.3063 23.3356 68.3947 23.5207 68.4565 23.6759C68.5168 23.8152 68.5633 23.9797 68.5959 24.1696C68.6271 24.3436 68.6493 24.5986 68.6626 24.9347C68.6744 25.2549 68.6894 25.7033 68.7076 26.2799C68.7562 26.8378 68.7699 27.4549 68.7485 28.1313C68.7417 28.7904 68.7183 29.4429 68.6783 30.0888C68.6368 30.7188 68.5826 31.2937 68.5155 31.8135C68.44 32.2377 68.3324 32.753 68.1925 33.3594C68.0513 33.9499 67.8868 34.5504 67.6991 35.1611C67.5274 35.7703 67.358 36.315 67.1911 36.7954C67.0402 37.2743 66.9093 37.6149 66.7984 37.8173C66.8303 37.8145 66.7908 37.9143 66.68 38.1167C66.5851 38.3177 66.4472 38.5787 66.2664 38.8996C66.1001 39.2032 65.9266 39.5155 65.7458 39.8364C65.5664 40.1732 65.4147 40.4595 65.2907 40.6951C65.0807 41.0507 64.8348 41.3613 64.5528 41.6268C64.2708 41.8923 63.9912 42.0933 63.714 42.2299C63.4368 42.3665 63.1839 42.4126 62.9552 42.3683Z" fill="#2F94F9"/>
<path d="M58.5355 41.7658C58.3761 41.7797 58.2711 41.7728 58.2205 41.745C58.1873 41.7319 58.1339 41.6723 58.0604 41.5663C58.0507 41.4547 58.0663 41.357 58.1071 41.2731C58.1639 41.1879 58.2433 41.0846 58.3451 40.9633C58.4906 40.79 58.6565 40.5748 58.8429 40.3176C59.0307 40.0764 59.2018 39.8286 59.3563 39.5742C59.5267 39.3184 59.6455 39.1153 59.7127 38.9649C59.7612 38.784 59.7989 38.572 59.8259 38.3287C59.8688 38.0841 59.9096 37.8155 59.9484 37.523C59.9373 37.3955 59.9275 37.2839 59.9192 37.1883C59.9254 37.0753 59.9576 36.9842 60.0158 36.9149C60.1177 36.7936 60.2091 36.7374 60.2902 36.7464C60.3872 36.754 60.4753 36.8427 60.5543 37.0125C60.6493 37.1809 60.728 37.439 60.7905 37.7869C60.8848 38.132 60.9126 38.4508 60.8739 38.7433C60.8351 39.0357 60.7461 39.3968 60.6069 39.8265C60.5848 39.9409 60.4958 40.1173 60.3399 40.3557C60.184 40.5942 60.0267 40.8167 59.8681 41.0232C59.7094 41.2298 59.6062 41.3352 59.5584 41.3393C59.4946 41.3449 59.4402 41.3657 59.3952 41.4017C59.3515 41.4537 59.3006 41.5144 59.2424 41.5837C59.1842 41.653 59.0913 41.6932 58.9638 41.7043C58.8536 41.73 58.7109 41.7505 58.5355 41.7658ZM61.8893 33.2583C61.5962 33.3963 61.346 33.4743 61.1388 33.4924C60.9461 33.4931 60.7226 33.4163 60.4682 33.2618C60.1404 33.0013 60.0118 32.7234 60.0824 32.4281C60.1676 32.1156 60.4048 31.7977 60.7943 31.4747C61.0659 31.2744 61.2648 31.1607 61.3909 31.1336C61.533 31.1051 61.753 31.1422 62.051 31.2447C62.5556 31.5058 62.792 31.8225 62.7602 32.1947C62.7444 32.5655 62.4541 32.92 61.8893 33.2583Z" fill="#2F94F9"/>
<path d="M46.5446 40.5948C46.0151 40.7855 45.6388 40.8906 45.4157 40.9101C45.1925 40.9295 44.9437 40.8388 44.6692 40.6379C44.5826 40.5651 44.5278 40.4896 44.5049 40.4113C44.4807 40.317 44.4359 40.2647 44.3708 40.2543C44.3451 40.1442 44.3455 40.0558 44.3718 39.9893C44.4126 39.9054 44.51 39.8246 44.6638 39.747C44.9154 39.8696 45.2218 39.883 45.5828 39.7873C45.9439 39.6916 46.2907 39.5248 46.6233 39.2871C46.9705 39.0319 47.2344 38.7439 47.4152 38.423C47.7007 38.0127 47.9165 37.6325 48.0626 37.2825C48.2074 36.9165 48.2759 36.5974 48.2682 36.325C48.2544 36.1656 48.2207 36.0561 48.1673 35.9965C48.1285 35.9196 48.0384 35.807 47.897 35.6587C47.6184 35.7794 47.3651 35.9139 47.1372 36.0622C46.9251 36.2092 46.7536 36.3607 46.6227 36.5166C46.1792 36.9568 45.8331 37.3162 45.5844 37.5949C45.3516 37.8722 45.1507 38.1466 44.9816 38.4183C44.8285 38.6887 44.6353 39.0508 44.4018 39.5048C44.2882 39.6753 44.1791 39.8053 44.0744 39.8947C43.9858 39.9828 43.8856 40.0316 43.774 40.0414C43.8497 40.356 43.7548 40.557 43.4893 40.6444C43.1317 40.5952 42.8677 40.5139 42.6971 40.4003C42.5252 40.2707 42.4538 40.0039 42.4828 39.5998C42.5271 39.3711 42.5679 39.1026 42.6053 38.7942C42.6413 38.4698 42.6901 38.2006 42.7517 37.9864C43.0453 36.9329 43.3008 35.9952 43.5183 35.1732C43.7516 34.3498 43.9653 33.761 44.1593 33.4068L44.5665 31.9981C44.8388 31.9905 45.0509 32.0282 45.2027 32.1113C45.3531 32.1785 45.5378 32.3632 45.7569 32.6653C45.7639 32.745 45.7043 32.983 45.5783 33.3795C45.4668 33.7586 45.3283 34.1963 45.1627 34.6925C45.0131 35.1874 44.8688 35.6497 44.7295 36.0794C44.6049 36.4918 44.5176 36.7805 44.4678 36.9454C44.4193 37.1263 44.4643 37.0903 44.6029 36.8373C44.7574 36.5829 45.0338 36.2536 45.4322 35.8495C45.6214 35.6242 45.8597 35.4107 46.1473 35.209C46.4335 34.9913 46.676 34.8256 46.8749 34.7119C47.0897 34.5968 47.2681 34.525 47.4102 34.4966C47.5523 34.4682 47.6545 34.4432 47.7169 34.4217C48.1153 34.3869 48.4432 34.4628 48.7003 34.6491C48.9561 34.8196 49.1429 35.0281 49.2608 35.2748C49.3946 35.5201 49.4685 35.7225 49.4823 35.8819C49.5524 36.1327 49.6058 36.377 49.6426 36.6147C49.6939 36.8351 49.6988 37.0756 49.6573 37.3362C49.6206 37.4679 49.5482 37.6508 49.4402 37.8851C49.3321 38.1194 49.2008 38.3637 49.0464 38.6181C48.9064 38.8551 48.7311 39.0551 48.5205 39.218C48.3895 39.374 48.2114 39.5421 47.9863 39.7223C47.7611 39.9026 47.5192 40.0762 47.2608 40.2433C47.0168 40.393 46.7781 40.5102 46.5446 40.5948ZM51.5511 40.5438C51.2614 40.5369 51.0146 40.4701 50.8109 40.3433C50.6216 40.1992 50.474 39.9792 50.3679 39.6833C50.3442 39.4123 50.3546 39.1625 50.3989 38.9338C50.4577 38.6878 50.5013 38.4511 50.5297 38.2238C50.5774 37.8502 50.6571 37.4739 50.7686 37.0947C50.88 36.7156 50.9756 36.3379 51.0552 35.9616C51.1314 35.7301 51.1923 35.5079 51.238 35.2952C51.2837 35.0824 51.3294 34.8696 51.3751 34.6568C51.4326 34.3949 51.4907 34.1409 51.5496 33.8948C51.6084 33.6488 51.6673 33.4027 51.7261 33.1567C51.7718 32.9439 51.8009 32.7246 51.8133 32.4986C51.8417 32.2713 51.8621 32.0447 51.8745 31.8187C52.0332 31.6122 52.2175 31.5158 52.4275 31.5296C52.6534 31.5421 52.9404 31.7017 53.2883 32.0087C53.3847 32.193 53.4398 32.3649 53.4537 32.5243C53.4662 32.6677 53.4396 32.8226 53.3738 32.989C53.3225 33.138 53.2536 33.3608 53.1671 33.6574C53.0965 33.9527 53.0179 34.2486 52.9313 34.5453C52.8593 34.8246 52.8056 35.038 52.7703 35.1857C52.7537 35.3638 52.6911 35.6583 52.5823 36.0693C52.4896 36.4789 52.3902 36.9052 52.2843 37.3481C52.177 37.775 52.1025 38.1187 52.061 38.3793C51.9862 38.6268 51.9346 38.8641 51.9063 39.0915C51.8779 39.3188 51.8544 39.6019 51.8358 39.9408C51.8802 40.0815 51.8667 40.2031 51.7953 40.3057C51.7385 40.391 51.6571 40.4703 51.5511 40.5438Z" fill="#2F94F9"/>
<path d="M40.3604 40.9653C40.1878 41.0125 40.0132 41.0358 39.8364 41.0351C39.6597 41.0345 39.4868 40.9853 39.3177 40.8876C39.2428 40.7657 39.1506 40.6291 39.0411 40.4781C38.9461 40.3097 38.9249 40.159 38.9775 40.0259C39.0406 39.8277 39.0568 39.5532 39.0262 39.2026C39.0116 38.8505 39.0496 38.5501 39.1404 38.3012C39.1535 38.268 39.1594 38.2434 39.158 38.2274C39.1712 38.1942 39.1764 38.1616 39.1736 38.1297C39.1756 37.9689 39.1981 37.7662 39.241 37.5216C39.2985 37.2596 39.3369 37.0555 39.3563 36.9092C39.3694 36.876 39.3815 36.7384 39.3926 36.4965C39.4036 36.2546 39.4133 35.9968 39.4215 35.7231C39.4298 35.4493 39.429 35.2567 39.4193 35.1451C39.4124 35.0654 39.4307 34.9995 39.4744 34.9476C39.5326 34.8782 39.5256 34.7985 39.4535 34.7085C39.2193 34.9698 38.929 35.3243 38.5826 35.7721C38.2521 36.2185 37.9383 36.6715 37.6411 37.131C37.3425 37.5746 37.1107 37.9562 36.9459 38.2757C36.9195 38.3423 36.8846 38.4015 36.8409 38.4535C36.7973 38.5055 36.7616 38.5568 36.7339 38.6074C36.6784 38.7086 36.6064 38.8032 36.5177 38.8913C36.429 38.9793 36.3663 39.0892 36.3296 39.2208C36.0823 39.5154 35.8814 39.7899 35.7269 40.0443C35.5883 40.2973 35.3787 40.5645 35.0981 40.8459C34.8951 40.9118 34.7024 40.9126 34.5201 40.8481C34.3538 40.7823 34.1802 40.7252 33.9993 40.6767C33.9604 40.5998 33.9136 40.5236 33.8589 40.4481C33.8027 40.3566 33.7552 40.2724 33.7164 40.1955C33.7323 39.8247 33.7651 39.3721 33.8149 38.8378C33.8632 38.2875 33.8964 37.7466 33.9143 37.215C33.9481 36.6821 33.9366 36.2735 33.8797 35.9894C33.8568 35.9111 33.8433 35.848 33.8391 35.8002C33.8349 35.7524 33.854 35.6945 33.8963 35.6266C33.8935 35.5947 33.8907 35.5628 33.8879 35.531C33.9011 35.4977 33.907 35.4731 33.9056 35.4571C33.8189 35.3844 33.796 35.3061 33.8369 35.2222C33.8778 35.1384 33.8708 35.0587 33.8161 34.9831C33.7987 34.9686 33.7734 34.9547 33.7402 34.9416C33.7228 34.927 33.6975 34.9132 33.6643 34.9C33.3608 35.4725 33.0228 36.0159 32.65 36.5303C32.2918 37.0272 31.9437 37.5474 31.6056 38.0909C31.3798 38.4478 31.1668 38.8599 30.9666 39.327C30.7823 39.7928 30.5433 40.183 30.2495 40.4977C30.1477 40.619 30.0472 40.7563 29.9482 40.9095C29.8636 41.0453 29.7538 41.1673 29.6187 41.2755C29.5966 41.3898 29.5404 41.483 29.4504 41.5551C29.3748 41.6099 29.2733 41.6428 29.1458 41.654C28.9067 41.6748 28.6607 41.616 28.4077 41.4774C28.1547 41.3389 28.0112 41.1667 27.9772 40.9608C27.9675 40.8493 28.0055 40.7335 28.0915 40.6136C28.1046 40.5803 28.1098 40.5478 28.107 40.5159C28.1202 40.4826 28.134 40.4573 28.1486 40.44C28.4403 40.2861 28.723 40.0285 28.9967 39.6674C29.2863 39.3049 29.5579 38.9198 29.8114 38.5123C30.0636 38.0888 30.2981 37.7391 30.515 37.4632C30.7187 37.2206 30.8739 36.9742 30.9805 36.724C31.0858 36.4578 31.2237 36.1969 31.3941 35.9411C31.6068 35.6174 31.8174 35.2698 32.0259 34.8983C32.2504 34.5254 32.4676 34.1611 32.6775 33.8056C32.9033 33.4486 33.1327 33.1315 33.3655 32.8542C33.4826 32.9083 33.599 32.9543 33.7148 32.9924C33.8465 33.0291 33.984 33.0412 34.1275 33.0287C34.2155 33.1174 34.2956 33.2068 34.3677 33.2968C34.4543 33.3696 34.549 33.4417 34.6515 33.513C34.8914 33.6848 35.065 33.9267 35.1725 34.2385C35.28 34.5503 35.3497 34.8896 35.3817 35.2562C35.4276 35.7822 35.4183 36.321 35.354 36.8727C35.3042 37.407 35.2714 37.8596 35.2555 38.2304C35.2569 38.2463 35.2583 38.2623 35.2597 38.2782C35.2756 38.2768 35.2843 38.2841 35.2857 38.3C35.61 37.9666 35.8902 37.5888 36.1264 37.1667C36.3627 36.7446 36.6169 36.345 36.8892 35.9679C37.3901 35.2658 37.7629 34.7515 38.0074 34.425C38.2679 34.0971 38.4644 33.8632 38.5967 33.7232C38.729 33.5831 38.8614 33.4431 38.9937 33.3031C39.0983 33.2137 39.2168 33.0989 39.3492 32.9589C39.4961 32.8016 39.6859 32.5843 39.9187 32.307C40.0462 32.2959 40.1658 32.2855 40.2773 32.2757C40.4049 32.2646 40.5244 32.2542 40.636 32.2445C40.7704 32.313 40.8716 32.3685 40.9396 32.4107C41.0061 32.437 41.1125 32.4599 41.2587 32.4793C41.2816 32.5576 41.3239 32.6743 41.3856 32.8296C41.4473 32.9848 41.4657 33.1036 41.4408 33.1861C41.4187 33.3005 41.4124 33.4134 41.4222 33.525C41.4319 33.6366 41.4018 33.7516 41.3318 33.8702C41.221 34.0726 41.1292 34.4018 41.0565 34.8578C40.9984 35.2965 40.9483 35.7345 40.9061 36.1718C40.8785 36.5918 40.8643 36.8902 40.8637 37.0669C40.8263 37.3753 40.7806 37.5881 40.7266 37.7052C40.6712 37.8064 40.6324 37.9142 40.6102 38.0285C40.5881 38.1429 40.5912 38.2711 40.6197 38.4132C40.6467 38.5393 40.6412 38.6602 40.6031 38.776C40.5886 38.7933 40.574 38.8106 40.5595 38.828C40.5595 38.828 40.5522 38.8366 40.5377 38.854C40.5516 39.0134 40.5661 39.1807 40.5814 39.3561C40.6113 39.5141 40.5919 39.6603 40.5233 39.7948C40.5649 39.9036 40.5833 40.0224 40.5785 40.1513C40.5737 40.2802 40.6007 40.4064 40.6597 40.5297C40.6015 40.599 40.5512 40.6676 40.509 40.7356C40.4667 40.8035 40.4172 40.8801 40.3604 40.9653Z" fill="#2F94F9"/>
<path d="M13.3072 42.6253C13.1221 42.529 12.9502 42.3994 12.7915 42.2366C12.6313 42.0578 12.5388 41.825 12.5138 41.5381C12.4999 41.3787 12.5081 41.1049 12.5385 40.7168C12.5689 40.3287 12.6191 39.8907 12.689 39.4028C12.7588 38.9149 12.8315 38.4588 12.907 38.0347C13.0413 37.7339 13.1518 37.4351 13.2384 37.1385C13.3249 36.8419 13.3654 36.6617 13.3599 36.5979C13.3751 36.4038 13.3955 36.1772 13.4211 35.918C13.4626 35.6574 13.5062 35.4207 13.5519 35.208C13.5976 34.9952 13.635 34.8715 13.6641 34.8368C13.7368 34.7502 13.8283 34.694 13.9385 34.6684C14.0473 34.6268 14.1602 34.633 14.2774 34.687C14.4091 34.7237 14.5137 34.819 14.5914 34.9728C14.7834 35.1488 14.8912 35.3723 14.9148 35.6432C14.9371 35.8983 14.8828 36.2885 14.7519 36.8138C14.6362 37.1451 14.5254 37.5322 14.4195 37.9751C14.3136 38.418 14.2208 38.8276 14.1412 39.2039C14.0761 39.5629 14.0412 39.8069 14.0363 39.9358L13.5707 40.1209C13.8194 39.8423 14.0515 39.557 14.267 39.2652C14.4811 38.9574 14.6369 38.719 14.7346 38.5499C14.9736 38.1596 15.1783 37.8366 15.3488 37.5809C15.5338 37.3078 15.7704 36.982 16.0586 36.6035C16.3454 36.2091 16.6368 35.9589 16.9327 35.8528C17.2431 35.7294 17.486 35.66 17.6613 35.6447C18.0176 35.6779 18.3125 35.8369 18.5461 36.1217C18.7943 36.3891 18.9753 36.807 19.089 37.3752C19.1085 37.5984 19.1075 37.8635 19.0861 38.1705C19.0806 38.4761 19.0779 38.629 19.0779 38.629C19.0779 38.629 19.1908 38.4505 19.4167 38.0935C19.6585 37.7352 19.9851 37.3373 20.3967 36.8999C20.6801 36.6503 20.9639 36.4971 21.248 36.4402C21.5307 36.3674 21.7941 36.4408 22.0381 36.6604C22.472 36.8474 22.7728 37.1665 22.9407 37.6176C23.1071 38.0528 23.189 38.6239 23.1864 39.3308C23.1747 39.7494 23.1938 40.0609 23.2438 40.2653C23.2923 40.4538 23.3568 40.6409 23.4372 40.8266C23.5703 40.8793 23.606 41.0127 23.5444 41.2268C23.4814 41.4251 23.3941 41.529 23.2825 41.5388C23.1231 41.5527 22.937 41.5368 22.7243 41.4911C22.5274 41.444 22.3431 41.3557 22.1712 41.2261C22.0138 41.0792 21.9233 40.8703 21.8997 40.5993L21.7704 39.1169C21.7399 38.7663 21.6989 38.4808 21.6476 38.2604C21.6122 38.0386 21.5605 37.9066 21.4926 37.8643C21.3089 37.784 21.0629 37.9098 20.7546 38.2419C20.4463 38.5739 20.1231 39.0116 19.785 39.555C19.4469 40.0985 19.1341 40.6557 18.8467 41.2269C18.5869 41.7474 18.4206 42.051 18.3479 42.1376C18.2897 42.2069 18.168 42.1934 17.983 42.0972C17.6226 42.0162 17.3862 41.8842 17.2739 41.7012C17.1761 41.501 17.148 41.2706 17.1896 41.01C17.2456 40.732 17.3093 40.3571 17.3806 39.8851C17.4678 39.4118 17.5484 38.955 17.6225 38.5149C17.6952 38.0589 17.7391 37.7339 17.7543 37.5398C17.6794 37.4178 17.5644 37.3877 17.4091 37.4494C17.2685 37.4938 17.1233 37.5787 16.9736 37.7042C16.7935 37.8484 16.5832 38.1077 16.3428 38.482C16.1024 38.8562 15.8589 39.287 15.6123 39.7743C15.4474 40.0938 15.2746 40.414 15.0937 40.7349C14.9115 41.0399 14.7425 41.3116 14.5866 41.5501C14.4307 41.7885 14.2939 41.9691 14.1761 42.0918C13.9835 42.4619 13.8488 42.6664 13.7719 42.7052C13.695 42.744 13.5401 42.7174 13.3072 42.6253Z" fill="#2F94F9"/>
<path d="M10.522 29.0158C10.7819 29.2341 10.9951 29.5608 11.1615 29.996C11.3266 30.4152 11.4452 30.8546 11.5174 31.314C11.6055 31.7721 11.633 32.1793 11.5998 32.5355C11.588 32.5847 11.5853 32.7375 11.5916 32.9939C11.5965 33.2344 11.5969 33.5155 11.5928 33.837C11.5887 34.1586 11.5825 34.4563 11.5743 34.73C11.5646 34.9878 11.5394 35.1587 11.4985 35.2425C11.509 35.5468 11.455 35.8486 11.3365 36.148C11.2326 36.4301 11.1707 36.7326 11.1507 37.0556C11.1493 37.0396 11.1098 37.1395 11.0322 37.355C10.9546 37.5706 10.8653 37.8353 10.7642 38.1493C10.6617 38.4473 10.5651 38.7207 10.4743 38.9696C10.3981 39.201 10.3535 39.3334 10.3403 39.3667C10.0563 40.1624 9.66877 40.9671 9.17759 41.7808C8.68641 42.5945 8.15951 43.2749 7.59689 43.8218C7.35992 44.0513 7.05919 44.2863 6.69471 44.5268C6.33023 44.7674 6.05165 44.888 5.85899 44.8888C5.68087 44.8722 5.50415 44.8715 5.32881 44.8868C5.15487 44.918 4.98092 44.9493 4.80698 44.9805C4.63303 45.0117 4.39047 44.9927 4.07928 44.9235C3.78403 44.8529 3.50402 44.7729 3.23926 44.6835C2.98905 44.5769 2.83865 44.5097 2.78805 44.482C2.78805 44.482 2.71943 44.4317 2.58218 44.3313C2.44355 44.2149 2.28828 44.0919 2.11638 43.9623C1.95903 43.8154 1.8197 43.6911 1.6984 43.5892C1.57709 43.4874 1.51644 43.4365 1.51644 43.4365C1.41385 43.3651 1.36636 43.2809 1.37396 43.1839C1.38157 43.0868 1.35798 43.0006 1.30322 42.925C1.26578 42.8641 1.27338 42.767 1.32602 42.634C1.3946 42.4995 1.47185 42.3723 1.55776 42.2524C1.65961 42.1311 1.73375 42.0604 1.78017 42.0403C1.89731 42.0943 2.00648 42.149 2.10767 42.2044C2.22342 42.2425 2.33986 42.2886 2.45699 42.3426C2.47923 42.5977 2.62101 42.8423 2.88234 43.0765C3.15821 43.2933 3.42853 43.4464 3.69329 43.5358C3.74389 43.5635 3.84231 43.587 3.98854 43.6064C4.15072 43.6244 4.3122 43.6344 4.47298 43.6364C4.63238 43.6225 4.72004 43.6149 4.73598 43.6135C5.13308 43.5628 5.52634 43.376 5.91575 43.0529C6.32111 42.7285 6.67517 42.3684 6.97794 41.9726C7.29664 41.5754 7.53324 41.2496 7.68774 40.9952C7.89626 40.6237 8.04936 40.3534 8.14704 40.1843C8.24333 39.9992 8.31052 39.8488 8.34861 39.7331C8.40125 39.6 8.46705 39.4336 8.54601 39.234C8.62358 39.0185 8.75658 38.7017 8.94499 38.2838C9.04888 38.0017 9.14897 37.7681 9.24526 37.5831C9.34016 37.3821 9.37928 37.1859 9.3626 36.9947C9.16577 36.9476 8.89341 36.9553 8.54552 37.0177C8.21218 37.0628 7.84904 37.1346 7.45611 37.2331C7.07773 37.3143 6.70732 37.3948 6.34488 37.4746C5.99699 37.537 5.70938 37.5541 5.48206 37.5257C5.2679 37.4641 5.11333 37.3491 5.01834 37.1807C4.92197 36.9963 4.84084 36.8027 4.77496 36.5996C4.73196 36.4749 4.71357 36.356 4.71978 36.2431C4.74054 36.1128 4.82784 36.0088 4.98168 35.9311L6.79878 35.7727C7.30468 35.6804 7.79464 35.5895 8.26866 35.5C8.75861 35.4091 9.20042 35.4108 9.59409 35.5049C9.65924 35.5153 9.7223 35.5018 9.78328 35.4643C9.84287 35.411 9.87785 35.3517 9.88823 35.2865C9.90826 34.9636 9.95289 34.6465 10.0221 34.3353C10.0914 34.0241 10.0961 33.7105 10.0365 33.3945C10.0468 32.96 10.0415 32.6232 10.0206 32.3841C9.9998 32.145 9.98104 31.9298 9.96437 31.7385C9.96224 31.5299 9.96253 31.2569 9.96522 30.9194C9.94438 30.6803 9.87294 30.4135 9.7509 30.1189C9.62747 29.8085 9.4254 29.6093 9.1447 29.5213C8.99569 29.4701 8.80752 29.4303 8.5802 29.4019C8.36742 29.3562 8.17198 29.3251 7.99387 29.3085C7.8303 29.2746 7.74852 29.2576 7.74852 29.2576C7.53297 29.18 7.27933 29.2182 6.98759 29.3721C6.7118 29.5247 6.44745 29.7163 6.19454 29.9472C5.95757 30.1766 5.76564 30.37 5.61875 30.5274C5.70401 30.5842 5.75739 30.6438 5.77889 30.7061C5.80038 30.7685 5.77995 30.8104 5.71758 30.8319C5.60739 30.8576 5.50726 30.9065 5.41718 30.9786C5.32571 31.0347 5.2443 31.1141 5.17294 31.2167C5.08564 31.3207 4.95363 31.3723 4.7769 31.3717C4.60018 31.371 4.48096 31.2931 4.41924 31.1379C4.38802 30.9639 4.33566 30.8239 4.26218 30.7179C4.18869 30.6119 4.14708 30.5031 4.13736 30.3915C4.12624 30.264 4.18546 30.1143 4.31502 29.9424C4.55681 29.584 4.82529 29.2555 5.12046 28.9567C5.43017 28.6406 5.7593 28.363 6.10785 28.1238C6.13834 28.1051 6.23189 28.0728 6.38851 28.0271C6.56106 27.9799 6.67644 27.9217 6.73464 27.8523C6.79145 27.7671 6.85382 27.7456 6.92174 27.7879C7.00561 27.8287 7.07664 27.8145 7.13484 27.7452C7.62554 27.847 8.04103 27.9151 8.38132 27.9497C8.73754 27.9829 9.07403 28.066 9.39078 28.199C9.72347 28.3306 10.1005 28.6028 10.522 29.0158Z" fill="#2F94F9"/>
<path d="M21.9663 5.97346C23.5164 7.51079 25.0627 9.05065 26.5865 10.6128C26.7582 10.7905 26.9346 10.9691 27.1021 11.151C27.1513 11.2037 27.1998 11.2596 27.2498 11.3075C27.377 11.4766 27.5668 11.6113 27.829 11.6703C28.0721 11.7257 28.3962 11.6605 28.5977 11.5135C28.8821 11.3045 29.0963 10.9473 29.0437 10.5801C28.9746 10.0684 28.5884 9.74786 28.2556 9.39779C27.844 8.96937 27.4252 8.54452 27.0042 8.12256C26.5107 7.62348 26.0119 7.12669 25.5159 6.6321C32 7.14279 38.9023 10.1061 42.0226 16.2041C43.0351 18.1854 43.5472 20.4453 43.6791 22.6847C43.7565 24.0051 45.7915 23.8458 45.7147 22.5222C45.4663 18.1594 43.7844 14.0753 40.7147 10.9714C37.9227 8.15242 34.232 6.3587 30.4349 5.3764C29.1337 5.0399 27.8104 4.80874 26.4752 4.66497C27.9834 4.19613 29.5355 3.89195 31.1105 3.71675C32.4123 3.57337 32.2657 1.52041 30.955 1.66705C28.7439 1.91016 26.5344 2.38445 24.4574 3.19496C23.645 3.50945 22.808 3.86565 22.071 4.34422C21.4874 4.71957 21.5138 5.52022 21.9673 5.97007L21.9663 5.97346ZM27.0121 10.7466C27.0247 10.7242 27.0344 10.6995 27.047 10.677C27.0469 10.7201 27.0462 10.7665 27.0543 10.8096C27.0289 10.7449 27.0107 10.7115 27.0153 10.7472L27.0121 10.7466ZM27.1861 11.2187L27.1925 11.2283C27.1925 11.2283 27.1877 11.2274 27.1855 11.2219L27.1861 11.2187Z" fill="#2F94F9"/>
</svg>
