<svg width="84" height="55" viewBox="0 0 84 55" fill="none" xmlns="http://www.w3.org/2000/svg">
<path d="M15.3438 30.155C15.6114 30.4468 15.8086 30.857 15.9352 31.3856C16.0627 31.8956 16.1333 32.4218 16.1473 32.9643C16.1799 33.5075 16.15 33.9827 16.0577 34.3897C16.0366 34.4449 16.0103 34.6212 15.9788 34.9188C15.948 35.1977 15.906 35.5229 15.8525 35.8943C15.7991 36.2656 15.7469 36.609 15.6959 36.9245C15.6458 37.2212 15.5907 37.415 15.5307 37.5059C15.4967 37.8594 15.3886 38.2004 15.2062 38.5288C15.0434 38.8394 14.9259 39.18 14.8538 39.5506C14.8546 39.5319 14.7938 39.6414 14.6715 39.879C14.5491 40.1166 14.4057 40.4094 14.2412 40.7572C14.0775 41.0865 13.9243 41.3882 13.7817 41.6623C13.6585 41.9185 13.5868 42.0649 13.5665 42.1014C13.1176 42.9788 12.5474 43.851 11.856 44.718C11.1646 45.585 10.4521 46.2922 9.71845 46.8397C9.40959 47.0693 9.02613 47.2956 8.56807 47.5187C8.11002 47.7418 7.7695 47.8392 7.54651 47.8109C7.34298 47.7647 7.13864 47.7372 6.9335 47.7284C6.72755 47.7381 6.5216 47.7479 6.31566 47.7577C6.10971 47.7675 5.83198 47.7088 5.48248 47.5816C5.15163 47.4552 4.83983 47.3203 4.54708 47.1769C4.27378 47.0156 4.10997 46.9151 4.05563 46.8754C4.05563 46.8754 3.98385 46.8069 3.8403 46.6699C3.69755 46.5142 3.53655 46.3485 3.35731 46.1726C3.19753 45.9788 3.05518 45.8139 2.93027 45.6777C2.80537 45.5415 2.74291 45.4734 2.74291 45.4734C2.63505 45.3753 2.59286 45.2707 2.61634 45.1596C2.63982 45.0486 2.6256 44.9452 2.57368 44.8495C2.53961 44.7733 2.56309 44.6622 2.64413 44.5162C2.74382 44.3711 2.85244 44.2356 2.96997 44.1099C3.10616 43.985 3.20262 43.9145 3.25938 43.8982C3.3867 43.9785 3.5047 44.0583 3.61337 44.1377C3.7415 44.1993 3.86922 44.2702 3.99655 44.3505C3.98366 44.6488 4.11064 44.9533 4.37749 45.2638C4.66379 45.5564 4.95332 45.7744 5.24607 45.9178C5.3004 45.9576 5.41069 45.9997 5.57692 46.0442C5.7618 46.0896 5.94709 46.1256 6.13277 46.1523C6.31926 46.1604 6.42184 46.1648 6.44049 46.1656C6.90752 46.1671 7.39073 46.0105 7.89012 45.6958C8.40815 45.3818 8.87224 45.0188 9.28241 44.6068C9.71122 44.1956 10.0342 43.8546 10.2515 43.5837C10.5489 43.1855 10.767 42.896 10.9056 42.7151C11.045 42.5156 11.1455 42.3518 11.2071 42.2237C11.2881 42.0777 11.3894 41.8952 11.511 41.6763C11.6333 41.4387 11.8351 41.0924 12.1164 40.6374C12.2792 40.3268 12.4304 40.0718 12.5698 39.8723C12.71 39.6541 12.785 39.4332 12.7946 39.2094C12.5741 39.1251 12.2578 39.0928 11.8459 39.1123C11.4535 39.1141 11.0225 39.1422 10.5531 39.1966C10.1031 39.2332 9.66241 39.2703 9.23106 39.3077C8.81917 39.3272 8.48388 39.3034 8.22521 39.2362C7.9868 39.1325 7.8254 38.976 7.74101 38.7669C7.65743 38.539 7.59291 38.3027 7.54743 38.0578C7.51658 37.907 7.5133 37.7668 7.53759 37.637C7.58133 37.4894 7.69806 37.3824 7.88777 37.3158L10.0138 37.4077C10.613 37.3775 11.1935 37.3465 11.7554 37.3148C12.336 37.2838 12.8468 37.3526 13.2879 37.5211C13.3617 37.543 13.4367 37.5369 13.5129 37.5028C13.59 37.4501 13.6394 37.3868 13.6613 37.313C13.7333 36.9424 13.833 36.5824 13.9602 36.2329C14.0874 35.8834 14.1404 35.5214 14.1192 35.1468C14.1969 34.6456 14.2418 34.2552 14.2539 33.9755C14.266 33.6957 14.2768 33.444 14.2865 33.2202C14.3156 32.9785 14.3573 32.6627 14.4115 32.2727C14.4236 31.993 14.3813 31.6735 14.2847 31.3143C14.189 30.9365 13.9854 30.6755 13.674 30.5312C13.5094 30.4494 13.2977 30.3749 13.039 30.3076C12.7998 30.2226 12.5784 30.1569 12.3749 30.1108C12.1908 30.0468 12.0988 30.0148 12.0988 30.0148C11.8612 29.8924 11.562 29.8982 11.2012 30.0321C10.8591 30.1668 10.5243 30.3485 10.1968 30.5772C9.88789 30.8068 9.63659 31.0014 9.44284 31.1612C9.53287 31.2398 9.58559 31.3169 9.60102 31.3923C9.61645 31.4677 9.58646 31.5131 9.51106 31.5285C9.37971 31.5415 9.25647 31.5829 9.14135 31.6527C9.02704 31.7038 8.92084 31.7833 8.82276 31.8911C8.70603 31.9982 8.5455 32.038 8.34116 32.0105C8.13683 31.983 8.01071 31.8747 7.96282 31.6858C7.95304 31.4799 7.91366 31.31 7.84471 31.1763C7.77575 31.0425 7.74409 30.9103 7.74973 30.7798C7.75617 30.6306 7.84734 30.4664 8.02324 30.2871C8.3572 29.9092 8.71752 29.5698 9.1042 29.2688C9.51033 28.9501 9.93311 28.6787 10.3725 28.4548C10.4106 28.4378 10.5237 28.4146 10.7118 28.3854C10.9186 28.357 11.0609 28.3071 11.1387 28.2357C11.2173 28.1457 11.2927 28.1302 11.3649 28.1894C11.4557 28.2494 11.54 28.2437 11.6179 28.1723C12.1701 28.3643 12.6404 28.5061 13.0288 28.5976C13.4359 28.6899 13.8126 28.837 14.1588 29.0388C14.5238 29.2414 14.9187 29.6134 15.3438 30.155ZM16.5057 46.3202C16.3062 46.1808 16.1269 46.0049 15.968 45.7925C15.8098 45.5614 15.738 45.2781 15.7525 44.9424C15.7605 44.7559 15.8115 44.4405 15.9054 43.9961C15.9994 43.5517 16.1237 43.0526 16.2784 42.4988C16.4331 41.945 16.5862 41.4284 16.7377 40.9492C16.9387 40.6215 17.1117 40.2927 17.2568 39.9627C17.4018 39.6326 17.476 39.4303 17.4792 39.3557C17.5261 39.1335 17.584 38.8744 17.6529 38.5785C17.7404 38.2833 17.8266 38.0161 17.9117 37.7769C17.9968 37.5377 18.0588 37.4002 18.0977 37.3645C18.195 37.2753 18.3093 37.2242 18.4406 37.2112C18.5728 37.1795 18.7025 37.2038 18.8298 37.2841C18.9766 37.3464 19.0833 37.4725 19.1498 37.6622C19.3453 37.8949 19.4362 38.1697 19.4225 38.4867C19.4096 38.7851 19.2877 39.2283 19.0568 39.8162C18.8728 40.1819 18.686 40.6129 18.4964 41.1092C18.3068 41.6055 18.1375 42.0653 17.9884 42.4886C17.8588 42.894 17.7815 43.171 17.7564 43.3193L17.1896 43.463C17.5196 43.1783 17.8312 42.8835 18.1247 42.5786C18.4189 42.2549 18.6353 42.0027 18.7739 41.8219C19.1095 41.4066 19.3952 41.064 19.6311 40.7939C19.8864 40.506 20.2095 40.1649 20.6002 39.7708C20.9917 39.358 21.3666 39.1126 21.725 39.0346C22.1028 38.9388 22.3943 38.8954 22.5994 38.9042C23.0065 38.9966 23.3236 39.2251 23.5507 39.5899C23.7973 39.9369 23.9434 40.4477 23.989 41.1223C23.9777 41.3834 23.9365 41.6899 23.8652 42.0418C23.8126 42.3945 23.7863 42.5709 23.7863 42.5709C23.7863 42.5709 23.9439 42.3815 24.2592 42.0028C24.5932 41.6248 25.0313 41.214 25.5737 40.7704C25.9393 40.5246 26.2907 40.3903 26.628 40.3675C26.9661 40.326 27.2597 40.4508 27.5087 40.7418C27.9823 41.0239 28.282 41.4385 28.4078 41.9858C28.5345 42.5144 28.5428 43.1874 28.4327 44.0048C28.3558 44.4872 28.3308 44.8505 28.3576 45.0945C28.3853 45.3199 28.4315 45.5461 28.4965 45.7732C28.6424 45.8542 28.6636 46.0139 28.5599 46.2523C28.4569 46.4721 28.3402 46.5792 28.2097 46.5735C28.0232 46.5655 27.8103 46.5189 27.5711 46.4338C27.3505 46.3496 27.1506 46.2195 26.9714 46.0436C26.8116 45.8498 26.7385 45.5945 26.7522 45.2774L26.8272 43.543C26.8449 43.1327 26.8407 42.7963 26.8147 42.5336C26.8074 42.2717 26.7676 42.1111 26.6954 42.052C26.4951 41.9312 26.1915 42.0395 25.7845 42.3769C25.3776 42.7144 24.9374 43.1718 24.4641 43.7492C23.9907 44.3267 23.5445 44.924 23.1255 45.5411C22.7462 46.104 22.5079 46.43 22.4106 46.5192C22.3328 46.5906 22.1941 46.5566 21.9946 46.4171C21.59 46.2689 21.3365 46.0804 21.2343 45.8518C21.1515 45.6053 21.1539 45.3345 21.2414 45.0394C21.3483 44.7263 21.4788 44.3022 21.6327 43.7671C21.8052 43.2327 21.9676 42.7165 22.1199 42.2186C22.273 41.7021 22.3731 41.3327 22.42 41.1106C22.3519 40.9581 22.2234 40.9059 22.0344 40.9538C21.865 40.9838 21.6842 41.0601 21.4921 41.1826C21.2618 41.3221 20.9793 41.5902 20.6446 41.9868C20.3098 42.3833 19.9629 42.8448 19.6039 43.3711C19.3648 43.7158 19.1163 44.0601 18.8586 44.4039C18.6016 44.7291 18.365 45.0179 18.1485 45.2701C17.9321 45.5223 17.7465 45.7105 17.5917 45.8346C17.3128 46.2336 17.126 46.4497 17.0312 46.483C16.9363 46.5163 16.7611 46.462 16.5057 46.3202ZM48.0525 48.4957C47.8458 48.5241 47.6402 48.5246 47.4359 48.4971C47.2316 48.4696 47.039 48.3865 46.8581 48.2479C46.79 48.0955 46.704 47.9236 46.6001 47.7323C46.5157 47.5231 46.5141 47.3456 46.5951 47.1996C46.698 46.9798 46.7584 46.6648 46.7761 46.2545C46.8124 45.845 46.9019 45.5032 47.0446 45.2291C47.0648 45.1927 47.0754 45.1651 47.0762 45.1464C47.0964 45.1099 47.1074 45.073 47.109 45.0357C47.1357 44.8501 47.1924 44.619 47.2791 44.3424C47.3852 44.0481 47.4605 43.8178 47.5051 43.6516C47.5254 43.6151 47.5602 43.4577 47.6096 43.1796C47.6589 42.9015 47.7091 42.6047 47.7601 42.2893C47.8111 41.9739 47.8394 41.7509 47.8451 41.6203C47.8491 41.5271 47.8803 41.4537 47.9387 41.4002C48.0165 41.3288 48.0205 41.2355 47.9507 41.1204C47.6403 41.3873 47.2508 41.7535 46.7822 42.219C46.3324 42.6854 45.9007 43.1619 45.4873 43.6485C45.0748 44.1164 44.7489 44.5227 44.5098 44.8674C44.4693 44.9404 44.4199 45.0037 44.3615 45.0572C44.3031 45.1107 44.2541 45.1647 44.2144 45.219C44.1349 45.3277 44.0373 45.4262 43.9213 45.5146C43.8054 45.603 43.7163 45.7206 43.6539 45.8674C43.3231 46.1707 43.0492 46.4579 42.8319 46.7287C42.6334 47.0004 42.3505 47.2778 41.9832 47.5609C41.7384 47.6064 41.5154 47.578 41.3143 47.4759C41.1318 47.3746 40.9396 47.2822 40.7377 47.1988C40.7044 47.1039 40.6618 47.0087 40.6099 46.913C40.5588 46.7987 40.5166 46.6941 40.4833 46.5993C40.5578 46.1727 40.6643 45.6542 40.8028 45.0436C40.9421 44.4143 41.0623 43.7936 41.1635 43.1814C41.2833 42.57 41.3318 42.0957 41.309 41.7584C41.2944 41.6643 41.2883 41.5893 41.2907 41.5334C41.2931 41.4774 41.3239 41.4134 41.3831 41.3412C41.3847 41.3039 41.3863 41.2666 41.3879 41.2293C41.4082 41.1928 41.4187 41.1652 41.4195 41.1466C41.3303 41.0493 41.3157 40.9553 41.3757 40.8644C41.4356 40.7736 41.4397 40.6803 41.3878 40.5847C41.3699 40.5652 41.3427 40.5454 41.3062 40.5251C41.2884 40.5057 41.2612 40.4858 41.2247 40.4655C40.7871 41.0819 40.3137 41.6593 39.8047 42.1979C39.3151 42.7186 38.8336 43.2676 38.3602 43.8451C38.0449 44.2238 37.7361 44.6682 37.4338 45.1783C37.1502 45.6892 36.8146 46.1045 36.4271 46.424C36.2909 46.5489 36.1539 46.6925 36.0161 46.8547C35.8978 46.9991 35.7523 47.1236 35.5796 47.2282C35.5367 47.3571 35.4577 47.4565 35.3425 47.5263C35.2469 47.5782 35.1244 47.6009 34.9752 47.5945C34.6955 47.5824 34.4198 47.477 34.1481 47.2785C33.8764 47.0799 33.7365 46.859 33.7283 46.6157C33.734 46.4852 33.7956 46.3571 33.9131 46.2314C33.9333 46.1949 33.9443 46.158 33.9459 46.1207C33.9662 46.0842 33.986 46.057 34.0055 46.0392C34.3663 45.9053 34.7323 45.6502 35.1035 45.2738C35.4934 44.8983 35.8659 44.494 36.2209 44.0609C36.5767 43.6092 36.901 43.2402 37.1936 42.9539C37.466 42.7041 37.6828 42.4425 37.8441 42.1692C38.0061 41.8773 38.2051 41.5963 38.441 41.3262C38.7361 40.9839 39.0323 40.6137 39.3298 40.2155C39.6459 39.8181 39.9523 39.4297 40.2489 39.0501C40.5642 38.6714 40.8775 38.3392 41.1888 38.0537C41.3161 38.134 41.4438 38.2049 41.572 38.2665C41.7188 38.3289 41.8761 38.3637 42.0439 38.3709C42.1323 38.4869 42.2114 38.6024 42.2812 38.7175C42.3704 38.8148 42.4689 38.9125 42.5768 39.0105C42.8282 39.2456 42.9925 39.5516 43.0696 39.9287C43.1468 40.3057 43.1761 40.7086 43.1575 41.1376C43.131 41.753 43.0387 42.3749 42.8808 43.0034C42.7423 43.614 42.6358 44.1325 42.5613 44.559C42.5605 44.5777 42.5597 44.5963 42.5589 44.615C42.5776 44.6158 42.5865 44.6255 42.5857 44.6442C43.0113 44.3076 43.3926 43.913 43.7298 43.4604C44.067 43.0079 44.4216 42.5841 44.7937 42.1892C45.4794 41.4527 45.9885 40.9142 46.3208 40.5736C46.6718 40.2337 46.9345 39.9928 47.1088 39.8509C47.283 39.709 47.4573 39.567 47.6316 39.4251C47.7662 39.3375 47.9206 39.2227 48.0949 39.0807C48.2887 38.921 48.5412 38.6983 48.8524 38.4128C49.0016 38.4193 49.1415 38.4253 49.2721 38.4309C49.4212 38.4374 49.5611 38.4434 49.6917 38.4491C49.8368 38.5488 49.9455 38.6282 50.0177 38.6874C50.0907 38.7279 50.2103 38.7704 50.3765 38.815C50.3911 38.909 50.4224 39.0505 50.4703 39.2394C50.5182 39.4283 50.5214 39.5686 50.4801 39.6602C50.4372 39.7892 50.4129 39.9189 50.4073 40.0494C50.4016 40.18 50.3494 40.3085 50.2505 40.435C50.0916 40.6524 49.9356 41.0193 49.7825 41.5359C49.6489 42.0346 49.5246 42.5337 49.4096 43.0332C49.314 43.5148 49.2525 43.8578 49.225 44.0622C49.1351 44.4133 49.05 44.6525 48.9698 44.7798C48.8903 44.8885 48.8291 45.0073 48.7862 45.1362C48.7433 45.2652 48.7275 45.414 48.7389 45.5826C48.7511 45.7326 48.7264 45.8717 48.6648 45.9998C48.6454 46.0176 48.6259 46.0355 48.6065 46.0533C48.6065 46.0533 48.5967 46.0622 48.5773 46.0801C48.5692 46.2666 48.5608 46.4624 48.5519 46.6675C48.5625 46.8548 48.5179 47.0211 48.4183 47.1662C48.4499 47.2984 48.4532 47.4387 48.4281 47.5871C48.403 47.7354 48.4152 47.8854 48.4647 48.0371C48.3869 48.1084 48.3184 48.1802 48.2592 48.2524C48.2001 48.3246 48.1312 48.4057 48.0525 48.4957ZM55.2622 49.0033C54.6209 49.1438 54.1697 49.2084 53.9086 49.1971C53.6475 49.1858 53.3734 49.0432 53.0863 48.7692C52.9971 48.6719 52.9452 48.5763 52.9305 48.4822C52.9167 48.3695 52.8729 48.3022 52.7991 48.2803C52.7861 48.149 52.7999 48.0468 52.8404 47.9738C52.9004 47.883 53.0252 47.8043 53.2149 47.7378C53.4874 47.9177 53.8397 47.9796 54.2719 47.9236C54.7041 47.8675 55.1305 47.7271 55.5513 47.5024C55.9915 47.2598 56.3405 46.9666 56.5982 46.6228C56.9905 46.1913 57.2977 45.7842 57.5198 45.4014C57.7426 45 57.8702 44.6411 57.9026 44.3249C57.9107 44.1384 57.8883 44.0067 57.8356 43.9297C57.8023 43.8348 57.7151 43.6909 57.574 43.498C57.2335 43.5954 56.9201 43.7126 56.6339 43.8497C56.3664 43.9876 56.1451 44.1369 55.97 44.2975C55.3904 44.7395 54.9356 45.1029 54.6057 45.3876C54.2944 45.6731 54.0204 45.9602 53.7837 46.2489C53.5657 46.5385 53.2873 46.9282 52.9485 47.418C52.7912 47.598 52.6453 47.7319 52.5108 47.8195C52.3948 47.9079 52.2716 47.9493 52.141 47.9436C52.1809 48.319 52.0407 48.5372 51.7204 48.5981C51.3142 48.4871 51.021 48.353 50.841 48.1958C50.6617 48.0199 50.6195 47.7004 50.7142 47.2374C50.8001 46.9795 50.888 46.675 50.9779 46.3239C51.0686 45.9542 51.1658 45.6501 51.2695 45.4117C51.7687 44.2374 52.2062 43.1913 52.5822 42.2734C52.9768 41.3562 53.3131 40.7075 53.5911 40.3271L54.2754 38.7592C54.5917 38.7915 54.8313 38.8673 54.9943 38.9864C55.1581 39.0869 55.3438 39.3285 55.5515 39.7111C55.5475 39.8044 55.4426 40.0708 55.2367 40.5103C55.0504 40.932 54.8239 41.4173 54.5573 41.9663C54.3093 42.5162 54.0723 43.0291 53.8462 43.5051C53.6396 43.9633 53.4949 44.284 53.4123 44.4673C53.3288 44.6692 53.3864 44.6343 53.5849 44.3626C53.8022 44.0917 54.1718 43.7527 54.6939 43.3455C54.9468 43.1136 55.2548 42.9027 55.618 42.7128C55.982 42.5043 56.2877 42.3494 56.535 42.248C56.8009 42.1473 57.0182 42.0913 57.1868 42.0799C57.3555 42.0685 57.4775 42.0551 57.5529 42.0397C58.0191 42.0598 58.3869 42.1972 58.6561 42.4517C58.9262 42.6876 59.1108 42.9571 59.2098 43.2603C59.3274 43.5644 59.3822 43.8096 59.3742 43.9961C59.4172 44.2969 59.442 44.5876 59.4486 44.8681C59.4746 45.1308 59.4439 45.4098 59.3564 45.7049C59.294 45.8517 59.1826 46.0524 59.0221 46.3071C58.8616 46.5617 58.6728 46.8245 58.4555 47.0954C58.2578 47.3484 58.0247 47.5532 57.7564 47.7098C57.5813 47.8704 57.3498 48.0379 57.062 48.2123C56.7742 48.3867 56.4682 48.5509 56.1439 48.7051C55.8391 48.8414 55.5452 48.9408 55.2622 49.0033ZM61.0615 49.7023C60.7274 49.6505 60.4521 49.5358 60.2355 49.3583C60.0385 49.1629 59.9009 48.8861 59.823 48.5277C59.8367 48.2107 59.8865 47.9232 59.9724 47.6654C60.0777 47.3896 60.164 47.1225 60.2312 46.8638C60.343 46.4389 60.492 46.0156 60.6784 45.5939C60.8648 45.1722 61.0325 44.7497 61.1816 44.3264C61.3048 44.0702 61.4089 43.8224 61.494 43.5832C61.579 43.344 61.6641 43.1048 61.7492 42.8656C61.8553 42.5712 61.961 42.2862 62.0664 42.0105C62.1717 41.7347 62.277 41.459 62.3824 41.1833C62.4674 40.9441 62.5342 40.6948 62.5828 40.4353C62.6501 40.1766 62.708 39.9175 62.7565 39.6581C62.9713 39.4431 63.1992 39.3595 63.44 39.4073C63.6995 39.4559 64.0072 39.6841 64.3633 40.0918C64.4469 40.3196 64.4846 40.5268 64.4766 40.7133C64.4693 40.8811 64.4151 41.0563 64.3138 41.2387C64.2319 41.4034 64.1185 41.6507 63.9734 41.9807C63.847 42.3116 63.7113 42.642 63.5663 42.9721C63.4407 43.2843 63.3463 43.5231 63.2831 43.6885C63.2369 43.8921 63.1198 44.2233 62.9319 44.6823C62.7625 45.1421 62.5831 45.6201 62.3935 46.1164C62.2047 46.594 62.0665 46.9804 61.979 47.2756C61.8551 47.5505 61.7595 47.8173 61.6922 48.076C61.625 48.3346 61.555 48.6586 61.4821 49.0478C61.5121 49.2173 61.4781 49.3559 61.3801 49.4638C61.3014 49.5538 61.1952 49.6333 61.0615 49.7023ZM68.9564 52.1733C68.7699 52.1652 68.6495 52.1413 68.5951 52.1016C68.5587 52.0814 68.5059 52.0044 68.437 51.8706C68.4426 51.74 68.4754 51.6294 68.5354 51.5385C68.614 51.4485 68.7214 51.341 68.8576 51.2161C69.0522 51.0377 69.2767 50.8138 69.5312 50.5446C69.7849 50.294 70.0204 50.0332 70.2376 49.7623C70.4735 49.4923 70.6417 49.2753 70.7422 49.1115C70.8257 48.9096 70.9014 48.67 70.9694 48.3926C71.0561 48.1161 71.144 47.8116 71.2331 47.4792C71.2395 47.33 71.2452 47.1994 71.25 47.0875C71.2743 46.9578 71.3254 46.8572 71.4032 46.7859C71.5394 46.661 71.6537 46.6098 71.7461 46.6325C71.8572 46.656 71.9456 46.7719 72.0114 46.9803C72.0957 47.1895 72.1477 47.5 72.1673 47.9119C72.2242 48.3254 72.2081 48.6984 72.119 49.0309C72.0299 49.3633 71.8723 49.7676 71.6462 50.2436C71.6032 50.3725 71.4736 50.5631 71.2571 50.8153C71.0407 51.0675 70.8251 51.3011 70.6103 51.5161C70.3955 51.731 70.2601 51.8372 70.2042 51.8348C70.1296 51.8316 70.0635 51.8474 70.0059 51.8823C69.9476 51.9358 69.8795 51.9983 69.8017 52.0697C69.7238 52.141 69.6103 52.1735 69.4611 52.1671C69.3298 52.1801 69.1615 52.1822 68.9564 52.1733ZM74.124 42.8396C73.7641 42.9549 73.4628 43.0072 73.2204 42.9968C72.9974 42.9684 72.7505 42.8457 72.4796 42.6285C72.1398 42.2775 72.0331 41.9365 72.1595 41.6057C72.3053 41.257 72.6279 40.9253 73.1273 40.6105C73.4719 40.4199 73.7191 40.3185 73.8691 40.3063C74.0378 40.2949 74.2867 40.371 74.616 40.5347C75.1601 40.9132 75.3857 41.3153 75.2925 41.741C75.2181 42.1675 74.8286 42.5337 74.124 42.8396ZM73.9769 53.5392C73.6266 53.4307 73.3525 53.2881 73.1546 53.1113C72.9754 52.9354 72.8825 52.7072 72.8759 52.4267C72.897 52.3715 72.9099 52.288 72.9147 52.1761C72.9188 52.0829 72.9609 51.9726 73.0411 51.8453C73.0411 51.8453 73.0959 51.8757 73.2054 51.9364C73.3335 51.998 73.5484 51.998 73.85 51.9363C74.2221 51.971 74.4848 51.945 74.6381 51.8582C74.7913 51.7714 75.0146 51.5755 75.3081 51.2706C75.5253 50.9997 75.7725 50.6834 76.0497 50.3217C76.3455 49.9608 76.5453 49.6611 76.6491 49.4227C76.9563 49.2305 77.1788 49.0532 77.3166 48.891C77.4552 48.7102 77.5845 48.5289 77.7045 48.3473C77.7085 48.254 77.7437 48.0874 77.8101 47.8474C77.8774 47.5887 78.0305 47.287 78.2696 46.9424C78.4949 46.485 78.7076 46.1018 78.9078 45.7928C79.1088 45.4652 79.2113 45.2548 79.2153 45.1615C79.2153 45.1615 79.2461 45.0974 79.3077 44.9693C79.3693 44.8412 79.3948 44.6835 79.3842 44.4962C79.4985 44.4451 79.597 44.3279 79.6797 44.1446C79.7818 43.9435 79.8279 43.74 79.8182 43.534C79.8206 43.4781 79.9138 43.2672 80.0977 42.9015C80.2825 42.5171 80.3926 42.1295 80.4282 41.7387C80.6623 41.0762 80.8373 40.4858 80.9531 39.9677C81.0884 39.4317 81.1977 38.8478 81.281 38.2162C81.3644 37.5845 81.4554 36.7757 81.554 35.7897C81.6275 34.9521 81.6825 34.3286 81.7189 33.9191C81.7561 33.491 81.7608 33.1642 81.7332 32.9388C81.7242 32.7142 81.65 32.4868 81.5104 32.2565C81.3497 31.6517 81.2041 31.3465 81.0736 31.3408C81.0176 31.3384 80.9556 31.261 80.8874 31.1086C80.8387 30.9383 80.8573 30.7243 80.9432 30.4664C80.9277 30.391 80.9593 30.3083 81.038 30.2182C81.1166 30.1282 81.2394 30.0962 81.4065 30.1221C81.537 30.1277 81.6745 30.1897 81.8188 30.308C81.9826 30.4085 82.0909 30.4973 82.1436 30.5743C82.2215 30.5029 82.3293 30.601 82.4672 30.8685C82.6246 31.1182 82.7849 31.5175 82.948 32.0664C83.0486 32.3323 83.1229 32.5597 83.1708 32.7487C83.2194 32.9189 83.2483 33.1163 83.2573 33.3409C83.2671 33.5469 83.2542 33.8453 83.2186 34.2361C83.1838 34.6083 83.1333 35.1293 83.067 35.799C83.0388 36.4517 82.9612 37.1677 82.8341 37.947C82.7265 38.7084 82.6006 39.4596 82.4565 40.2008C82.3132 40.9233 82.1633 41.5801 82.007 42.1712C81.8555 42.6504 81.653 43.2302 81.3994 43.9106C81.1466 44.5723 80.8654 45.2421 80.5559 45.9201C80.265 46.5988 79.9866 47.2034 79.7208 47.7337C79.4737 48.2649 79.2706 48.6391 79.1118 48.8565C79.1491 48.8581 79.0883 48.9676 78.9294 49.1849C78.7892 49.4031 78.5902 49.6841 78.3325 50.0279C78.0942 50.354 77.8462 50.6889 77.5884 51.0328C77.3299 51.3953 77.1111 51.7035 76.9319 51.9573C76.6353 52.3368 76.3037 52.6588 75.9373 52.9233C75.5709 53.1877 75.217 53.3779 74.8757 53.494C74.5344 53.61 74.2348 53.6251 73.9769 53.5392Z" fill="#2F94F9"/>
<path d="M77.4742 5.90775C76.0439 7.55709 74.6175 9.20867 73.2153 10.8808C73.0575 11.0709 72.895 11.2622 72.7415 11.4562C72.6965 11.5124 72.6523 11.5718 72.606 11.6233C72.4919 11.8015 72.3127 11.95 72.0557 12.0286C71.8174 12.102 71.4893 12.0614 71.2774 11.9299C70.9781 11.7428 70.7377 11.4027 70.7626 11.0326C70.7931 10.5172 71.1542 10.1685 71.4598 9.79447C71.838 9.33637 72.2237 8.88129 72.6119 8.42891C73.0665 7.89421 73.5267 7.36137 73.9841 6.83096C67.5566 7.82688 60.8962 11.2999 58.2425 17.6149C57.3815 19.6666 57.0405 21.9586 57.077 24.2015C57.0989 25.524 55.0577 25.5179 55.0349 24.1923C54.9552 19.8231 56.3259 15.6243 59.1539 12.2988C61.7264 9.2782 65.2721 7.21252 68.9848 5.948C70.2571 5.51478 71.5592 5.18496 72.8799 4.94138C71.3408 4.58705 69.7702 4.40023 68.1865 4.34374C66.8776 4.29847 66.8697 2.2403 68.1877 2.28815C70.4108 2.36462 72.6496 2.67173 74.7817 3.32406C75.6154 3.57669 76.4767 3.86906 77.2476 4.29096C77.8577 4.62145 77.8915 5.42182 77.473 5.90445L77.4742 5.90775ZM72.801 11.0462C72.7867 11.0247 72.7752 11.0008 72.7609 10.9793C72.7643 11.0224 72.7685 11.0686 72.7636 11.1121C72.7841 11.0457 72.7998 11.011 72.7978 11.047L72.801 11.0462ZM72.6629 11.53L72.6572 11.54C72.6572 11.54 72.6619 11.5387 72.6637 11.5332L72.6629 11.53Z" fill="#2F94F9"/>
</svg>
