<svg width="137" height="53" viewBox="0 0 137 53" fill="none" xmlns="http://www.w3.org/2000/svg">
<path d="M127.853 10.9873C127.638 11.0582 127.392 11.0582 127.117 10.9872C126.842 10.9163 126.587 10.7949 126.353 10.6232C126.137 10.4486 125.984 10.2549 125.895 10.042C125.762 9.6659 125.734 9.17911 125.812 8.58163C125.906 7.96286 126.069 7.30507 126.302 6.60825C126.55 5.89015 126.84 5.19404 127.17 4.51994C127.52 3.84299 127.891 3.24766 128.284 2.73392C128.693 2.1989 129.087 1.81716 129.468 1.58868C129.651 1.42832 129.795 1.32118 129.9 1.26725C130.02 1.19204 130.148 1.16295 130.283 1.17999C130.436 1.19419 130.662 1.2538 130.962 1.35884C131.232 1.39291 131.438 1.44614 131.581 1.51853C131.725 1.59091 131.919 1.74987 132.165 1.9954C132.355 2.24945 132.508 2.50917 132.624 2.77456C132.741 3.03996 132.854 3.34367 132.963 3.6857C133.181 4.12425 133.284 4.42016 133.269 4.57343C133.252 4.70825 133.213 4.81824 133.15 4.90339C133.031 5.11059 133.008 5.20851 133.082 5.19716C133.082 5.19716 133.079 5.23548 133.071 5.31211C133.08 5.36746 133.057 5.46539 133.003 5.60588C132.937 6.03164 132.9 6.47159 132.895 6.92574C132.905 7.3586 132.968 7.70772 133.084 7.97312C133.294 8.35631 133.598 8.55501 133.997 8.56922C134.396 8.58343 134.767 8.35637 135.111 7.88805C135.291 7.70924 135.465 7.5503 135.632 7.41123C135.797 7.2537 135.891 7.24874 135.913 7.39634C135.913 7.39634 135.945 7.41976 136.009 7.46659C136.07 7.49498 136.137 7.5035 136.211 7.49215C136.304 7.47796 136.365 7.50635 136.394 7.57731C136.443 7.64543 136.458 7.7469 136.441 7.88173C136.44 7.99526 136.404 8.13292 136.335 8.29471C136.101 8.61402 135.991 8.8198 136.005 8.91205C136.005 8.91205 135.974 8.95462 135.911 9.03977C135.864 9.10363 135.777 9.21149 135.649 9.36334C135.348 9.61736 134.94 9.7841 134.423 9.86355C133.925 9.94017 133.522 9.89828 133.214 9.7379C132.906 9.57752 132.605 9.34049 132.311 9.02684C132.036 8.71034 131.842 8.42862 131.728 8.18168L131.547 7.92621L130.825 8.57546C130.654 8.80962 130.462 9.0374 130.251 9.25878C130.058 9.47733 129.93 9.62918 129.867 9.71433C129.823 9.79664 129.769 9.87115 129.703 9.93785C129.657 10.0017 129.596 10.0393 129.522 10.0507C129.449 10.062 129.384 10.0719 129.329 10.0805C129.273 10.089 129.246 10.0932 129.246 10.0932C129.257 10.167 129.179 10.2735 129.012 10.4125C128.863 10.5488 128.674 10.6722 128.445 10.7829C128.235 10.8908 128.038 10.9589 127.853 10.9873ZM127.347 9.5354C127.458 9.51837 127.639 9.40556 127.89 9.19695C128.157 8.96705 128.447 8.70522 128.76 8.41146C129.093 8.11486 129.379 7.82536 129.618 7.54294C129.877 7.2577 130.051 7.04198 130.142 6.89581C130.205 6.81066 130.306 6.67229 130.447 6.48071C130.584 6.27067 130.708 6.09115 130.817 5.94214C131.168 5.39718 131.382 4.82596 131.46 4.22848C131.535 3.61255 131.446 3.15415 131.192 2.85327C131.087 2.66167 130.977 2.56516 130.864 2.56374C130.75 2.56231 130.53 2.66235 130.202 2.86387C130 3.02706 129.762 3.3187 129.487 3.73877C129.227 4.13755 128.949 4.60517 128.654 5.14161C128.375 5.65677 128.116 6.18754 127.879 6.73392C127.642 7.2803 127.455 7.78127 127.317 8.23683C127.179 8.69239 127.129 9.04009 127.166 9.27994C127.177 9.35373 127.206 9.41547 127.251 9.46514C127.315 9.51198 127.347 9.5354 127.347 9.5354Z" fill="#2F94F9"/>
<path d="M118.101 21.8924C117.695 21.9548 117.296 21.9406 116.905 21.8498C116.495 21.7618 116.098 21.5773 115.715 21.2962C115.486 20.9159 115.325 20.6668 115.232 20.549C115.122 20.4525 114.931 20.312 114.657 20.1275C114.643 20.0352 114.653 19.8543 114.687 19.5846C114.724 19.3334 114.802 19.1042 114.921 18.897C115.237 18.3762 115.644 17.8887 116.141 17.4346C116.64 16.9989 117.239 16.5952 117.937 16.2234C118.024 16.1723 118.109 16.112 118.193 16.0425C118.298 15.9885 118.397 15.9545 118.489 15.9403C118.581 15.9261 118.628 15.8623 118.629 15.7487C118.649 15.6323 118.731 15.6103 118.874 15.6827C118.961 15.6316 119.027 15.5742 119.074 15.5103C119.121 15.4464 119.212 15.423 119.347 15.4401C119.347 15.4401 119.444 15.3968 119.638 15.3102C119.851 15.2208 120.089 15.1087 120.352 14.9739C120.617 14.8575 120.846 14.7469 121.037 14.6418C121.25 14.5524 121.356 14.5077 121.356 14.5077C121.317 14.0039 121.246 13.4859 121.146 12.9537C121.063 12.4187 120.855 12.0447 120.52 11.8318C120.304 11.6572 120.121 11.4493 119.971 11.208C119.839 10.9639 119.676 10.7056 119.483 10.4331C119.495 10.2614 119.538 10.1131 119.613 9.98823C119.688 9.86334 119.803 9.75123 119.958 9.65189C120.283 9.43193 120.668 9.10837 121.112 8.68121C121.572 8.23276 122.031 7.71832 122.489 7.13789C122.948 6.55746 123.336 5.95006 123.654 5.31569C123.855 4.90697 123.894 4.54223 123.769 4.22149C123.662 3.89791 123.308 3.74462 122.707 3.76162C122.338 3.81837 121.942 4.01137 121.521 4.3406C121.096 4.65139 120.668 5.05726 120.235 5.55822C119.957 5.71432 119.74 5.71928 119.586 5.57309C119.428 5.40846 119.295 5.22112 119.188 5.01107C119.193 4.80245 119.24 4.61583 119.328 4.4512C119.413 4.26813 119.509 4.09286 119.616 3.9254C119.74 3.7551 119.845 3.57842 119.931 3.39534C120.067 3.29884 120.185 3.20518 120.284 3.11436C120.381 3.00508 120.488 2.90362 120.605 2.80995C120.705 2.71913 120.807 2.64676 120.912 2.59283C121.033 2.51762 121.158 2.47008 121.287 2.45022C121.397 2.43319 121.505 2.39772 121.61 2.34379C121.712 2.27142 121.828 2.2253 121.957 2.20543C122.83 2.10897 123.564 2.33607 124.158 2.88675C124.753 3.43743 125.07 4.02144 125.108 4.6388C125.165 5.25331 124.973 6.09489 124.533 7.16353C124.409 7.46581 124.178 7.80357 123.839 8.1768C123.518 8.5472 123.168 8.91263 122.789 9.27309C122.429 9.63071 122.109 9.94434 121.829 10.214C121.547 10.4652 121.382 10.6227 121.335 10.6865C121.533 10.864 121.76 11.1783 122.019 11.6296C122.274 12.0625 122.494 12.5103 122.678 12.9729C122.884 13.4512 122.962 13.8358 122.913 14.1268C123.103 14.1353 123.331 14.0814 123.596 13.965C123.883 13.8643 124.109 13.8011 124.275 13.7756C124.467 13.9161 124.657 14.0474 124.846 14.1694C125.034 14.2915 125.141 14.4355 125.167 14.6016C125.221 14.7066 125.209 14.8123 125.131 14.9188C125.071 15.0224 124.997 15.0905 124.907 15.1231C124.673 15.1969 124.37 15.253 123.998 15.2913C123.626 15.3296 123.277 15.4495 122.949 15.651C122.75 16.0782 122.594 16.5365 122.48 17.0262C122.37 17.5342 122.205 18.06 121.986 18.6036C121.771 19.1656 121.39 19.7623 120.845 20.3939C120.652 20.6124 120.447 20.8139 120.23 20.9984C120.016 21.2013 119.835 21.3142 119.687 21.3369C119.406 21.4745 119.132 21.5923 118.863 21.6902C118.613 21.7853 118.359 21.8527 118.101 21.8924ZM116.694 20.664C116.7 20.7009 116.84 20.6889 117.113 20.6279C117.372 20.5881 117.678 20.4938 118.033 20.3448C118.409 20.2114 118.732 20.039 119.002 19.8275C119.337 19.5494 119.609 19.2336 119.819 18.8802C120.032 18.5453 120.232 18.1841 120.417 17.7967C120.487 17.6349 120.554 17.4547 120.618 17.256C120.684 17.0758 120.731 16.8891 120.758 16.6961C120.606 16.5684 120.396 16.6103 120.126 16.8217C119.856 17.0331 119.53 17.2439 119.147 17.4539C118.745 17.6668 118.262 17.9676 117.699 18.3565C117.157 18.7609 116.757 19.1717 116.5 19.589C116.428 19.7323 116.345 19.8678 116.251 19.9956C116.158 20.1233 116.053 20.2432 115.938 20.3553C116.05 20.4703 116.168 20.5561 116.29 20.6129C116.412 20.6697 116.546 20.6867 116.694 20.664Z" fill="#2F94F9"/>
<path d="M115.772 13.4403C115.129 13.3125 114.595 12.9698 114.169 12.412C113.741 11.8358 113.435 11.2596 113.252 10.6834C113.233 10.6862 113.184 10.7316 113.103 10.8196C113.037 10.8863 112.959 10.9927 112.868 11.1389C112.65 11.4369 112.377 11.8095 112.049 12.2565C111.718 12.6851 111.363 13.0796 110.984 13.4401C110.621 13.7792 110.252 13.9587 109.877 13.9786C109.716 13.909 109.543 13.8317 109.36 13.7465C109.193 13.6401 109.025 13.5336 108.858 13.4272C108.773 13.3647 108.697 13.3009 108.63 13.2356C108.582 13.1675 108.532 13.0901 108.481 13.0035C108.193 12.4813 108.007 12.0094 107.923 11.5879C107.837 11.1479 107.816 10.7072 107.862 10.2659C107.923 9.80322 107.995 9.2916 108.079 8.73102C108.089 8.67283 108.118 8.43228 108.166 8.00936C108.233 7.5836 108.309 7.09966 108.396 6.55753C108.483 6.0154 108.569 5.53003 108.654 5.10144C108.757 4.67001 108.84 4.41172 108.903 4.32657C108.958 4.31805 109.014 4.30954 109.069 4.30103C109.14 4.27123 109.203 4.25207 109.258 4.24356C109.443 4.21518 109.591 4.25848 109.703 4.37344C109.794 4.47278 109.899 4.54162 110.018 4.57994C110.156 4.61543 110.26 4.67504 110.329 4.75878C110.45 4.92909 110.446 5.33569 110.318 5.97858C110.188 6.60302 110.052 7.31333 109.91 8.10949C109.775 8.82902 109.678 9.5521 109.62 10.2787C109.559 10.9869 109.638 11.5603 109.856 11.9988C109.985 11.9789 110.144 11.8413 110.331 11.5858C110.534 11.3091 110.693 11.1147 110.808 11.0026C110.975 10.8635 111.182 10.6144 111.429 10.2554C111.692 9.87506 111.945 9.49614 112.189 9.11864C112.431 8.7227 112.593 8.42396 112.675 8.22244C112.732 8.10039 112.811 7.88042 112.913 7.56252C113.013 7.22618 113.109 6.87138 113.203 6.49813C113.312 6.1036 113.389 5.74242 113.433 5.41458C113.495 5.08391 113.507 4.85542 113.469 4.72911C113.422 4.54745 113.419 4.40624 113.461 4.30548C113.517 4.18343 113.612 4.06493 113.746 3.94998C113.838 3.9358 113.94 3.92019 114.05 3.90316C114.161 3.88614 114.264 3.87976 114.359 3.88402C114.49 3.99614 114.628 4.09762 114.774 4.18846C114.92 4.27929 115.068 4.37935 115.217 4.48864C115.363 4.82499 115.38 5.30397 115.268 5.92558C115.156 6.54718 115.051 7.21491 114.953 7.92877C114.855 8.64262 114.832 9.35435 114.884 10.064C114.934 10.7551 115.211 11.3263 115.715 11.7777C116.077 11.552 116.348 11.3498 116.528 11.171C116.724 10.9709 116.91 10.7722 117.088 10.575C117.262 10.3593 117.492 10.135 117.778 9.90229C117.979 9.98461 118.151 10.1847 118.295 10.5026C118.438 10.8205 118.525 11.081 118.557 11.2839C118.491 11.3506 118.426 11.4173 118.361 11.484C118.311 11.5294 118.273 11.5919 118.248 11.6713C118.174 11.9282 117.99 12.2021 117.694 12.493C117.399 12.784 117.078 13.0316 116.732 13.2359C116.383 13.4218 116.063 13.49 115.772 13.4403Z" fill="#2F94F9"/>
<path d="M99.6603 15.38C99.5298 15.5134 99.3219 15.5737 99.0366 15.5609C98.7513 15.5482 98.5214 15.5269 98.3469 15.497C98.2986 15.4289 98.249 15.3516 98.1979 15.265C98.1468 15.1784 98.1063 15.0997 98.0765 15.0287C98.0439 14.9393 98.0113 14.8499 97.9786 14.7605C97.9644 14.6682 97.9332 14.588 97.885 14.5199C97.9318 14.456 97.9694 14.3936 97.9978 14.3326C98.0446 14.2687 98.0929 14.2141 98.1426 14.1687C98.2348 14.1545 98.3363 14.1389 98.447 14.1218C98.5577 14.1048 98.6592 14.0892 98.7514 14.075C98.838 14.0239 98.9033 13.9572 98.9473 13.8749C99.0069 13.7713 99.092 13.711 99.2027 13.694C99.5689 13.3733 99.9031 12.9064 100.205 12.2933C100.526 11.6774 100.819 10.9997 101.083 10.2603C101.365 9.51809 101.604 8.8014 101.8 8.11026C102.012 7.39783 102.185 6.80461 102.32 6.33061C102.314 6.29371 102.31 6.26603 102.307 6.24758C102.304 6.22913 102.292 6.2121 102.271 6.19649C102.147 6.25325 102.014 6.31143 101.873 6.37103C101.728 6.41218 101.586 6.47179 101.447 6.54984C101.431 6.57112 101.406 6.59383 101.372 6.61795C101.338 6.64208 101.313 6.66478 101.298 6.68607C101.12 6.88333 100.86 6.9706 100.517 6.94788C100.192 6.92232 99.946 6.79955 99.7799 6.57957C99.7317 6.51144 99.6849 6.45254 99.6395 6.40287C99.594 6.35319 99.538 6.29571 99.4713 6.23043C99.5196 6.05303 99.6061 5.87918 99.731 5.70888C99.8715 5.5173 100.031 5.38887 100.21 5.32359C100.691 5.13628 101.167 4.97806 101.638 4.84893C102.125 4.69852 102.621 4.60345 103.124 4.56374C103.628 4.52402 104.134 4.55953 104.642 4.67025C104.737 4.67451 104.823 4.68019 104.9 4.68729C104.976 4.69439 105.056 4.71994 105.138 4.76394C105.26 4.82071 105.384 4.88671 105.509 4.96193C105.634 5.03715 105.749 5.1138 105.856 5.19186C106.002 5.28269 106.122 5.38701 106.215 5.50481C106.309 5.62261 106.378 5.76311 106.422 5.92632C106.487 6.10514 106.535 6.29603 106.567 6.49897C106.616 6.69908 106.638 6.90345 106.633 7.11207C106.611 7.5875 106.549 8.16369 106.445 8.84065C106.357 9.49631 106.275 10.0661 106.198 10.5501C106.087 11.3037 105.993 11.9792 105.915 12.5767C105.834 13.1557 105.761 13.7241 105.696 14.2818C105.467 14.3925 105.235 14.4188 104.999 14.3606C104.764 14.3024 104.549 14.1938 104.354 14.0348C104.241 13.7879 104.167 13.5537 104.133 13.3323C104.096 13.0925 104.124 12.8427 104.216 12.583C104.306 12.3048 104.347 11.9585 104.34 11.5441C104.333 11.1297 104.403 10.7884 104.55 10.5202C104.576 10.4407 104.584 10.3733 104.576 10.318C104.559 10.2073 104.563 9.98941 104.589 9.66441C104.633 9.33658 104.68 8.97043 104.731 8.56596C104.78 8.14304 104.823 7.74921 104.861 7.38448C104.918 7.01691 104.951 6.73804 104.959 6.54786C104.979 6.43149 104.964 6.33002 104.913 6.24344C104.88 6.15403 104.855 6.05398 104.838 5.94328C104.679 5.89218 104.458 5.86946 104.176 5.87513C103.912 5.87795 103.751 5.99716 103.693 6.23274C103.68 6.27248 103.669 6.32144 103.659 6.37963C103.664 6.41653 103.661 6.45485 103.648 6.49458C103.571 6.97853 103.436 7.45254 103.243 7.91661C103.069 8.37784 102.937 8.99305 102.847 9.76226C102.823 9.97372 102.77 10.1802 102.688 10.3817C102.621 10.562 102.566 10.7592 102.524 10.9735C102.527 10.992 102.52 11.0118 102.505 11.0331C102.507 11.0516 102.501 11.0715 102.485 11.0927C102.488 11.1112 102.482 11.1311 102.466 11.1523C102.363 11.3383 102.27 11.532 102.187 11.7335C102.121 11.9137 102.046 12.1046 101.964 12.3061C101.73 12.871 101.388 13.4145 100.94 13.9368C100.51 14.4562 100.083 14.9373 99.6603 15.38Z" fill="#2F94F9"/>
<path d="M96.5384 15.7469C96.202 16.1385 95.7798 16.4018 95.2717 16.5366C94.7821 16.6686 94.2818 16.67 93.7709 16.5408C93.2572 16.3932 92.8094 16.1221 92.4277 15.7275C92.0516 15.3699 91.7777 14.9398 91.606 14.4374C91.4315 13.9166 91.3158 13.2261 91.2591 12.3661C91.2038 11.638 91.3238 10.883 91.619 10.1011C91.9114 9.30065 92.2996 8.57049 92.7835 7.91058C93.286 7.24784 93.8061 6.76178 94.344 6.45242C94.5924 6.22536 94.8102 6.10687 94.9976 6.09694C95.2005 6.06573 95.5078 6.03736 95.9193 6.01183C96.3522 6.00191 96.6786 6.0367 96.8986 6.11618C97.137 6.19283 97.335 6.31347 97.4925 6.47811C97.8118 6.71229 98.0389 6.96066 98.1737 7.22322C98.3057 7.46733 98.3915 7.71853 98.4312 7.97682C98.4199 8.39407 98.2197 8.93477 97.8309 9.59894C97.4576 10.2418 96.9211 10.8059 96.2214 11.2913C95.8354 11.4828 95.4011 11.6063 94.9186 11.6616C94.436 11.7169 94.0209 11.658 93.6732 11.4849C93.3 11.3912 93.0736 11.4543 92.9941 11.6743C92.9118 11.8758 92.8813 12.3527 92.9025 13.1049C92.9366 13.8173 93.0714 14.3254 93.3069 14.6291C93.5397 14.9144 93.8171 15.0606 94.1393 15.0677C94.5196 15.0847 94.8141 15.0961 95.0227 15.1018C95.247 15.0862 95.5017 14.962 95.787 14.7293C96.0538 14.4994 96.2227 14.3695 96.2936 14.3397C96.3618 14.2915 96.4114 14.2461 96.4427 14.2035C96.4895 14.1396 96.591 14.0012 96.7471 13.7884C96.8564 13.6394 96.9437 13.5315 97.009 13.4648C97.0714 13.3797 97.1488 13.33 97.241 13.3158C97.3333 13.3016 97.4234 13.335 97.5114 13.4159C97.5965 13.4783 97.6788 13.5223 97.7583 13.5479C97.9428 13.5195 97.9967 13.6245 97.9201 13.8629C97.8619 14.0985 97.7093 14.3958 97.4623 14.7549C97.2125 15.0955 96.9046 15.4261 96.5384 15.7469ZM95.6084 9.8841C95.7971 9.76064 95.9894 9.59886 96.1853 9.39876C96.3783 9.18021 96.533 8.95812 96.6494 8.73247C96.7814 8.48553 96.836 8.28827 96.8133 8.14067C96.7736 7.88237 96.6211 7.68865 96.3557 7.55949C96.0875 7.41188 95.7234 7.43954 95.2636 7.64246C95.0692 7.72902 94.8598 7.90287 94.6356 8.16399C94.4085 8.40666 94.1949 8.67559 93.9948 8.97078C93.8131 9.26312 93.6641 9.52212 93.5477 9.74777C93.4498 9.97058 93.4221 10.0976 93.4647 10.1288C93.5342 10.2126 93.7024 10.2622 93.9692 10.2779C94.2331 10.275 94.5205 10.2403 94.8313 10.1736C95.1606 10.1041 95.4196 10.0076 95.6084 9.8841Z" fill="#2F94F9"/>
<path d="M83.0432 23.7715C82.8445 23.9532 82.6125 23.9794 82.3471 23.8503C82.1001 23.7183 81.8958 23.4947 81.734 23.1797C81.5722 22.8646 81.5276 22.5126 81.6 22.1238C81.6198 22.0074 81.6468 21.8144 81.6809 21.5447C81.7178 21.2936 81.7313 21.0743 81.7213 20.887C81.7199 20.755 81.7412 20.5251 81.7852 20.1972C81.8321 19.8878 81.8882 19.577 81.9535 19.2648C82.0372 18.9498 82.1061 18.722 82.16 18.5815C82.2423 18.38 82.2835 18.1564 82.2835 17.9109C82.3019 17.6626 82.3012 17.4738 82.2814 17.3447C82.2984 17.2098 82.3218 17.0551 82.3517 16.8806C82.3999 16.7032 82.4539 16.5627 82.5135 16.4591C82.5277 16.3058 82.5589 16.1405 82.6072 15.9631C82.6526 15.7672 82.7115 15.5976 82.7839 15.4543C82.8009 15.3195 82.8045 15.1584 82.7945 14.9711C82.8031 14.7809 82.8428 14.6709 82.9138 14.6411C82.9209 14.5645 82.9187 14.4892 82.9074 14.4154C82.9145 14.3388 82.9358 14.2317 82.9713 14.094C82.9769 13.8854 83.0146 13.5774 83.0841 13.1701C83.1537 12.7628 83.2452 12.3143 83.3588 11.8247C83.4795 11.2585 83.4937 10.7369 83.4014 10.2601C83.3248 9.76191 83.1396 9.47877 82.8459 9.41064C82.6869 9.35954 82.5791 9.27225 82.5223 9.14878C82.4627 9.00686 82.4585 8.85642 82.5096 8.69747C82.5607 8.53852 82.6557 8.42003 82.7948 8.34198C82.9495 8.24264 83.1205 8.18801 83.3079 8.17808C83.5137 8.16532 83.6946 8.17526 83.8507 8.20791C84.004 8.22211 84.0742 8.24907 84.0615 8.28881C84.0757 8.38106 84.1303 8.42932 84.2254 8.43358C84.2538 8.37255 84.3375 8.42578 84.4766 8.59325C84.6313 8.73943 84.781 8.91471 84.9257 9.11908C85.0705 9.32345 85.1499 9.47176 85.1641 9.56401C85.1386 9.64349 85.1272 9.69245 85.1301 9.7109C85.1301 9.7109 85.167 9.70522 85.2408 9.69387C85.2408 9.69387 85.3351 9.63214 85.5239 9.50868C85.7098 9.36677 85.9035 9.21421 86.1051 9.05101C86.3222 8.86653 86.462 8.73171 86.5245 8.64656C86.5245 8.64656 86.5678 8.62102 86.6543 8.56993C86.7565 8.49755 86.8388 8.41879 86.9013 8.33364C87.2476 8.12929 87.64 8.04061 88.0785 8.0676C88.5355 8.09174 88.9116 8.20388 89.2068 8.404C89.6467 8.80849 89.8993 9.22291 89.9646 9.64725C90.0483 10.0688 90.0107 10.6222 89.8517 11.3077C89.829 11.4056 89.7701 11.5752 89.675 11.8165C89.5955 12.0365 89.5146 12.2472 89.4322 12.4487C89.3471 12.6318 89.3045 12.7233 89.3045 12.7233C88.9823 13.4528 88.5693 14.0829 88.0655 14.6137C87.5616 15.1444 87.04 15.6212 86.5007 16.0441C86.3361 16.2017 86.158 16.3329 85.9664 16.4379C85.7904 16.5217 85.63 16.5841 85.4853 16.6253C85.3377 16.648 85.2334 16.6451 85.1723 16.6167C84.9467 16.5003 84.7139 16.2151 84.4741 15.7609C84.4188 16.015 84.3634 16.269 84.308 16.523C84.2683 16.7558 84.2449 16.9105 84.2378 16.9871C84.2392 17.1191 84.2378 17.2326 84.2335 17.3277C84.2264 17.4043 84.1902 17.476 84.1249 17.5427C84.1249 17.5427 84.1214 17.581 84.1143 17.6577C84.1072 17.7343 84.0596 17.8549 83.9716 18.0196C83.8694 18.583 83.7743 19.0698 83.6863 19.4799C83.6011 19.9085 83.5337 20.2683 83.484 20.5592C83.4372 20.8686 83.4031 21.1382 83.3818 21.3681C83.4215 21.872 83.3952 22.3765 83.303 22.8817C83.2135 23.4054 83.1269 23.702 83.0432 23.7715ZM85.1234 15.3778C85.1915 15.3295 85.3328 15.2039 85.5471 15.001C85.777 14.7768 86.0303 14.5206 86.3071 14.2325C86.581 13.926 86.8301 13.6422 87.0543 13.381C87.297 13.1171 87.456 12.9227 87.5312 12.7978C87.6533 12.609 87.7647 12.4125 87.8655 12.2081C87.9634 11.9853 88.0308 11.7483 88.0677 11.4971C88.1004 11.341 88.1394 11.165 88.1848 10.9692C88.2303 10.7733 88.2679 10.5881 88.2977 10.4135C88.3488 10.2546 88.3538 10.1027 88.3126 9.95798C88.2871 9.79193 88.2104 9.66207 88.0827 9.5684C88.0061 9.5613 87.7932 9.6507 87.4441 9.8366C87.0921 10.0041 86.716 10.2602 86.3158 10.605C85.9127 10.9314 85.5777 11.3324 85.3109 11.8078C85.0001 12.3655 84.7936 12.9261 84.6914 13.4895C84.6076 14.0501 84.6033 14.5135 84.6785 14.8796C84.7722 15.2429 84.9205 15.409 85.1234 15.3778Z" fill="#2F94F9"/>
<path d="M70.1587 20.6256C69.9217 20.6809 69.7252 20.6922 69.569 20.6596C69.4101 20.6085 69.21 20.5354 68.9687 20.4403C68.5146 20.1891 68.1619 19.9223 67.9108 19.6398C67.6752 19.3361 67.5425 19.026 67.5127 18.7095C67.5241 18.5378 67.5014 18.3902 67.4446 18.2667C67.4063 18.1404 67.3871 18.0773 67.3871 18.0773C67.2623 18.002 67.2168 17.9524 67.2509 17.9282C67.2821 17.8857 67.3013 17.8261 67.3084 17.7494C67.4503 17.6898 67.4532 17.5855 67.3169 17.4365C67.2389 17.2974 67.2155 16.9611 67.2467 16.4274C67.2936 15.8725 67.383 15.3488 67.515 14.8564C67.576 14.6393 67.664 14.3519 67.779 13.9942C67.9124 13.6338 68.0643 13.2705 68.2346 12.9043C68.4021 12.5197 68.5625 12.2118 68.7158 11.9804C69.0507 11.4568 69.358 11.0601 69.6376 10.7905C69.9328 10.4996 70.272 10.2491 70.6552 10.0391C71.0015 9.83471 71.2563 9.71054 71.4195 9.66655C71.5827 9.62256 71.8303 9.69779 72.1624 9.89224C72.6251 9.95328 72.9855 10.0867 73.2438 10.2925C73.5177 10.477 73.7561 10.7992 73.959 11.259C74.1889 11.7713 74.333 12.4008 74.3911 13.1473C74.4649 13.8725 74.2945 14.8524 73.8801 16.0871C73.6402 16.8606 73.3734 17.4588 73.0796 17.8817C72.8042 18.3017 72.4579 18.7516 72.0406 19.2313C71.7355 19.5804 71.4481 19.8607 71.1784 20.0721C70.9088 20.2836 70.5689 20.468 70.1587 20.6256ZM71.8662 16.9918C72.1501 16.3815 72.358 15.8302 72.49 15.3377C72.6376 14.824 72.7207 14.1974 72.7391 13.458C72.7448 13.2494 72.7157 12.9989 72.6519 12.7065C72.5852 12.3957 72.4951 12.1168 72.3816 11.8699C72.2865 11.6201 72.1822 11.4945 72.0687 11.4931C71.8146 11.4377 71.5471 11.4789 71.2661 11.6165C70.9823 11.7357 70.6934 12.0068 70.3996 12.4297C70.1427 12.8469 69.9206 13.306 69.7333 13.807C69.5644 14.3051 69.421 14.8465 69.3032 15.4312C69.1854 16.016 69.0824 16.6361 68.9944 17.2918C68.9177 18.0213 69.0093 18.5549 69.269 18.8927C69.5471 19.2276 69.9211 19.2645 70.3908 19.0034C70.8578 18.7239 71.3495 18.0533 71.8662 16.9918Z" fill="#2F94F9"/>
<path d="M61.122 22.0154C61.0695 22.0424 60.9361 22.0346 60.7218 21.992C60.5047 21.931 60.2663 21.8543 60.0066 21.7621C59.7625 21.6485 59.5659 21.5371 59.4169 21.4278C59.2409 21.266 59.0742 21.1028 58.9166 20.9382C58.7747 20.7522 58.6839 20.5301 58.6442 20.2718C58.4725 20.015 58.3547 19.7403 58.2908 19.448C58.2426 19.1343 58.1866 18.8313 58.1227 18.539C58.0333 18.0806 58.0624 17.5945 58.2101 17.0807C58.3548 16.5485 58.4734 16.1526 58.5656 15.8929C58.6181 15.6204 58.7516 15.2599 58.9659 14.8115C59.1958 14.3417 59.4917 13.8713 59.8537 13.4001C60.2156 12.929 60.6101 12.5472 61.0373 12.2549C61.3098 12.0619 61.5866 11.8966 61.8676 11.7589C62.1642 11.6 62.5268 11.5631 62.9554 11.6483C63.1669 11.6724 63.3258 11.7235 63.4322 11.8016C63.5387 11.8796 63.6543 11.9563 63.7792 12.0315C63.9098 11.8981 63.9886 11.6121 64.0156 11.1736C64.0582 10.7138 64.0461 10.2057 63.9794 9.64936C63.9284 9.07174 63.817 8.53173 63.6453 8.02933C63.4892 7.50563 63.2671 7.10541 62.979 6.82865C62.4426 6.28791 61.8927 5.96644 61.3292 5.86423C60.7658 5.76202 60.1655 5.91101 59.5283 6.3112C59.2927 6.253 59.0628 6.10894 58.8386 5.87902C58.6328 5.64626 58.5469 5.39506 58.581 5.12541C58.7087 4.97357 58.8734 4.81604 59.0749 4.65284C59.2764 4.48964 59.4851 4.37257 59.7008 4.30162C59.9506 4.20654 60.2032 4.12992 60.4587 4.07174C60.7326 4.01073 61.0299 4.04055 61.3506 4.16119C62.3582 4.32728 63.1459 4.65941 63.7135 5.15758C64.2968 5.63445 64.7417 6.25537 65.0482 7.02034C65.3547 7.7853 65.6059 8.68153 65.8017 9.70904C65.884 9.99857 65.9344 10.2647 65.9528 10.5074C65.9868 10.7287 66.0173 11.1112 66.0443 11.6548C65.8967 11.923 65.8669 12.2203 65.9548 12.5467C66.0584 12.8519 66.0669 13.1527 65.9803 13.4494C66.0101 13.7658 65.9761 14.0355 65.8781 14.2583C65.7802 14.4811 65.7454 14.6848 65.7738 14.8693C65.5836 15.8428 65.2706 16.8164 64.8349 17.7899C64.4176 18.7606 63.8988 19.6242 63.2786 20.3806C62.6584 21.137 61.9395 21.682 61.122 22.0154ZM60.6793 20.2421C60.8752 20.2875 61.1406 20.1712 61.4755 19.893C61.8076 19.5964 62.1376 19.2246 62.4655 18.7776C62.7905 18.3121 63.0538 17.875 63.2553 17.4663C63.3277 17.3229 63.415 17.0923 63.5172 16.7744C63.6378 16.4537 63.7414 16.145 63.828 15.8484C63.9331 15.549 63.9891 15.3609 63.9962 15.2843C64.0913 14.7975 64.1169 14.3498 64.0729 13.941C64.0445 13.511 63.9559 13.2414 63.8069 13.1321C63.567 12.9234 63.2264 12.9192 62.785 13.1192C62.3621 13.3165 61.9704 13.5939 61.6099 13.9516C61.3488 14.2184 61.1266 14.5547 60.9435 14.9606C60.776 15.3452 60.5951 15.7035 60.4006 16.0356C60.439 16.1619 60.4191 16.2783 60.341 16.3847C60.2814 16.4883 60.2126 16.5933 60.1345 16.6998C59.9656 17.1979 59.8755 17.6556 59.8641 18.0728C59.8499 18.4716 59.8499 18.7172 59.8641 18.8094C59.9095 19.1046 60.0024 19.4019 60.1429 19.7014C60.2834 20.0008 60.4622 20.1811 60.6793 20.2421Z" fill="#2F94F9"/>
<path d="M46.4088 23.3718C46.0327 23.5052 45.7879 23.5712 45.6744 23.5697C45.5764 23.547 45.4118 23.459 45.1805 23.3057C44.8626 23.2035 44.5851 23.0574 44.3481 22.8672C44.1296 22.6741 43.9558 22.4648 43.8266 22.2391C43.7131 21.9922 43.6528 21.7843 43.6457 21.6154C43.6017 20.9611 43.6521 20.2452 43.7969 19.4674C43.9417 18.6897 44.1461 17.9312 44.4101 17.1918C44.6741 16.4524 44.9814 15.8102 45.332 15.2653C45.6982 14.699 46.0729 14.3109 46.456 14.1009C46.8023 13.8965 47.1444 13.7872 47.4821 13.7731C47.8199 13.7589 48.0867 13.8973 48.2826 14.1882C48.6416 14.6807 48.6295 15.032 48.2463 15.242C48.191 15.2505 48.1307 15.2881 48.0654 15.3548C47.9972 15.403 47.9689 15.4641 47.9802 15.5379C48.0597 15.5634 48.264 15.5414 48.5933 15.4719C48.9197 15.3839 49.2433 15.2775 49.5641 15.1526C49.9004 15.0065 50.1168 14.8787 50.2133 14.7695C50.3155 14.6971 50.3943 14.6567 50.4497 14.6481C50.505 14.6396 50.6462 14.6368 50.8733 14.6396C51.2011 14.6837 51.375 14.7702 51.3948 14.8994C51.4062 14.9732 51.4452 15.0427 51.5119 15.108C51.5758 15.1548 51.6446 15.1726 51.7184 15.1612C51.8504 15.1598 51.8447 15.2457 51.7014 15.4188C51.5765 15.5891 51.3494 15.8318 51.0201 16.1468C50.7036 16.4222 50.5049 16.6038 50.424 16.6918C50.3587 16.7585 50.3694 16.8891 50.4559 17.0835C50.6574 17.4113 50.7291 17.8158 50.6709 18.2969C50.6127 18.778 50.4544 19.284 50.1961 19.8147C49.9378 20.3455 49.6014 20.8599 49.187 21.3581C48.7882 21.8349 48.3439 22.2621 47.8543 22.6395C47.3803 22.9957 46.8984 23.2398 46.4088 23.3718ZM45.7511 22.2265C45.8249 22.2151 45.9483 22.1583 46.1215 22.0562C46.2918 21.9355 46.428 21.839 46.5302 21.7667C46.5927 21.6815 46.6721 21.5843 46.7687 21.475C46.8808 21.3445 46.9723 21.2643 47.0433 21.2345C47.1171 21.2231 47.2051 21.1813 47.3073 21.1089C47.4066 21.0181 47.5421 20.8556 47.7139 20.6214C47.8828 20.3688 48.1006 20.0048 48.3675 19.5294C48.674 19.0667 48.9033 18.6538 49.0551 18.2905C49.2042 17.9087 49.2099 17.5773 49.0722 17.2963C49.0424 17.2253 48.98 17.1877 48.8849 17.1835C48.8082 17.1764 48.6997 17.1459 48.5592 17.0919C48.3747 17.1203 48.1923 17.1011 48.0121 17.0344C47.8474 16.9464 47.6509 16.835 47.4224 16.7002L46.8945 16.2148L46.4964 16.7576C46.2466 17.0982 46.001 17.5892 45.7597 18.2307C45.5341 18.8509 45.3573 19.4824 45.2296 20.1253C45.099 20.7498 45.0422 21.2401 45.0592 21.5963C45.0833 21.8759 45.1578 22.0533 45.2827 22.1285C45.4076 22.2037 45.5637 22.2364 45.7511 22.2265Z" fill="#2F94F9"/>
<path d="M34.4874 25.6586C34.283 25.5578 34.1262 25.4592 34.0169 25.3627C33.9077 25.2661 33.8466 25.115 33.8339 24.9092C33.8282 24.6268 33.8396 24.3323 33.868 24.0258C33.8935 23.7008 33.939 23.3822 34.0043 23.0699C34.0085 22.7293 34.022 22.3873 34.0448 22.0439C34.0859 21.6976 34.1853 21.3612 34.3428 21.0348C34.5203 20.101 34.6743 19.1991 34.8049 18.3291C34.9511 17.4379 35.1669 16.3848 35.4522 15.17C35.5132 14.9529 35.5736 14.7925 35.6332 14.6889C35.7084 14.564 35.7744 14.4406 35.8312 14.3185C35.8383 14.2419 35.8879 14.1965 35.9802 14.1823C36.088 14.1468 36.2108 14.1468 36.3485 14.1823C36.4833 14.1993 36.5947 14.2483 36.6827 14.3292C36.7536 14.2994 36.8736 14.4037 37.0424 14.6422C37.2298 14.8777 37.3163 15.0722 37.3021 15.2255C37.3135 15.2993 37.3106 15.4036 37.2936 15.5384C37.2766 15.6732 37.2397 15.8016 37.1829 15.9237C37.1204 16.0088 37.0637 16.1309 37.0126 16.2898C36.9586 16.4303 36.8749 16.6226 36.7613 16.8667C36.6563 17.4117 36.5662 17.8694 36.4909 18.2398C36.4157 18.6102 36.3199 19.031 36.2035 19.5022C36.1027 19.7065 36.0395 19.9712 36.014 20.2962C35.9884 20.6212 35.9614 20.937 35.933 21.2435C35.855 21.5955 35.7819 21.9183 35.7137 22.2121C35.664 22.503 35.6449 22.6854 35.6562 22.7592C35.5895 23.185 35.5505 23.6065 35.5391 24.0237C35.5249 24.4225 35.4574 24.7823 35.3368 25.103C35.3609 25.3826 35.3063 25.5799 35.1729 25.6948C35.0579 25.8069 34.8294 25.7948 34.4874 25.6586ZM41.1697 25.0841C40.8688 25.0926 40.6389 25.0713 40.48 25.0202C40.3182 24.9507 40.0117 24.7995 39.5604 24.5667C39.3049 24.3794 38.948 24.0849 38.4896 23.6832C38.0312 23.2816 37.5686 22.8523 37.1017 22.3952C36.632 21.9198 36.2396 21.5174 35.9245 21.1882L36.8251 19.4916C37.1103 19.7499 37.3466 19.9968 37.5339 20.2324C37.7213 20.468 37.8681 20.6248 37.9746 20.7029C38.4954 21.2649 38.9055 21.7212 39.205 22.0718C39.5229 22.4195 39.8017 22.6977 40.0415 22.9063C40.2814 23.1149 40.5262 23.2945 40.776 23.4449C41.0442 23.5925 41.3692 23.7408 41.7509 23.8899C41.812 23.9183 41.8758 23.9651 41.9425 24.0304C42.0092 24.0957 42.0447 24.2035 42.0489 24.354C42.0064 24.5683 41.9432 24.7102 41.8595 24.7797C41.7913 24.828 41.5614 24.9294 41.1697 25.0841ZM35.7947 20.8965C35.6357 20.5999 35.6244 20.2806 35.7607 19.9386C35.9125 19.5752 36.0985 19.3106 36.3184 19.1445C36.3724 19.004 36.4334 18.9097 36.5015 18.8614C36.5853 18.7919 36.6307 18.7188 36.6378 18.6422C36.6633 18.5627 36.74 18.447 36.8677 18.2952C37.0139 18.1405 37.1431 17.9979 37.2552 17.8673C37.522 17.6374 37.82 17.3649 38.1493 17.0499C38.4942 16.7135 38.8206 16.38 39.1286 16.0494C39.4366 15.7187 39.6949 15.4335 39.9035 15.1936C40.1306 14.951 40.2676 14.7977 40.3144 14.7338C40.3584 14.6515 40.4251 14.5941 40.5145 14.5614C40.6195 14.5075 40.7607 14.5047 40.9381 14.5529C41.1681 14.5742 41.3298 14.6438 41.4235 14.7616C41.5143 14.8609 41.5853 15.0766 41.6364 15.4087C41.7229 15.6032 41.6739 15.8373 41.4894 16.1112C41.3205 16.3638 41.0452 16.6611 40.6634 17.0032C40.53 17.1181 40.3483 17.2877 40.1184 17.5119C39.907 17.7333 39.7217 17.9412 39.5628 18.1356C39.445 18.2293 39.2711 18.3882 39.0412 18.6125C38.8269 18.8154 38.6403 19.0141 38.4813 19.2085C38.3479 19.3234 38.1797 19.5193 37.9768 19.796C37.771 20.0543 37.5566 20.2572 37.3338 20.4048C36.8286 21.0491 36.4865 21.4039 36.3077 21.4692C36.1289 21.5345 35.9579 21.3436 35.7947 20.8965Z" fill="#2F94F9"/>
<path d="M29.3653 26.5314C29.1326 26.4917 28.8856 26.4824 28.6245 26.5037C28.3605 26.5065 28.1221 26.4299 27.9092 26.2737C27.6325 26.0708 27.4054 25.8224 27.2281 25.5286C27.0663 25.2136 26.9968 24.8843 27.0195 24.5409C27.0436 24.3294 27.0415 24.1314 27.0131 23.9469C26.9819 23.744 26.9982 23.5432 27.0621 23.3445C27.0493 23.1387 27.0671 22.9471 27.1154 22.7697C27.1608 22.5739 27.2062 22.378 27.2516 22.1822C27.3325 21.8487 27.395 21.518 27.439 21.1902C27.5015 20.8595 27.5838 20.5352 27.686 20.2173C27.8748 19.6028 28.0848 19.0039 28.3162 18.4206C28.566 17.8345 28.7761 17.2356 28.9464 16.6239C28.9975 16.465 29.0663 16.36 29.1529 16.3089C29.2551 16.2365 29.3615 16.1918 29.4722 16.1748C29.6198 16.1521 29.7717 16.1571 29.9278 16.1897C30.0839 16.2224 30.2201 16.2486 30.3365 16.2685C30.4174 16.426 30.5217 16.5516 30.6494 16.6453C30.7772 16.739 30.8382 16.8901 30.8325 17.0987C30.6309 17.5075 30.44 17.924 30.2598 18.3483C30.0951 18.7514 29.9319 19.1636 29.7701 19.5851C29.6239 19.9853 29.4806 20.404 29.34 20.8411C29.2534 21.1377 29.1974 21.4485 29.1718 21.7735C29.1463 22.0985 29.0902 22.4093 29.0036 22.7059C28.9199 23.021 28.8758 23.3488 28.8716 23.6894C28.8645 24.0116 28.8389 24.3366 28.7949 24.6644C28.7906 24.7595 28.8048 24.8517 28.8375 24.9412C28.8857 25.0093 28.9588 25.0547 29.0567 25.0774C29.3008 24.9454 29.5464 24.8227 29.7933 24.7092C30.0402 24.5956 30.2524 24.4402 30.4298 24.243C30.7534 23.891 31.0089 23.5873 31.1962 23.3319C31.3807 23.058 31.5149 22.7635 31.5986 22.4485C31.6795 22.1149 31.7094 21.6949 31.6881 21.1882C31.6895 21.0747 31.6647 20.9746 31.6136 20.888C31.5597 20.783 31.4901 20.6993 31.405 20.6368C31.2276 20.5886 31.058 20.5297 30.8962 20.4601C30.75 20.3693 30.6301 20.265 30.5365 20.1472C30.4584 20.0081 30.4329 19.842 30.4598 19.649C30.4939 19.3794 30.6131 19.1722 30.8175 19.0274C31.0403 18.8799 31.2546 18.7997 31.4604 18.7869C31.5001 18.7997 31.5307 18.8139 31.5519 18.8295C31.5917 18.8423 31.6236 18.8657 31.6477 18.8997C31.8067 18.9508 31.9699 19.0296 32.1374 19.1361C32.302 19.2241 32.4467 19.3057 32.5716 19.3809C32.6766 19.5725 32.8122 19.7783 32.9782 19.9983C33.1442 20.2183 33.2656 20.5773 33.3422 21.0755C33.5011 22.1086 33.3534 22.9907 32.8993 23.7215C32.4635 24.4496 31.8398 25.1215 31.028 25.7374C30.9102 25.8311 30.7803 25.9077 30.6384 25.9673C30.5121 26.0056 30.4007 26.0794 30.3041 26.1887C30.2829 26.1731 30.2013 26.1951 30.0593 26.2547C29.9146 26.2958 29.7712 26.3462 29.6293 26.4058C29.4874 26.4654 29.3994 26.5073 29.3653 26.5314Z" fill="#2F94F9"/>
<path d="M17.6255 28.7619C17.546 28.7364 17.4332 28.6782 17.287 28.5873C17.1593 28.4937 17.0408 28.3986 16.9315 28.3021C16.8677 28.2552 16.8145 28.2162 16.7719 28.185C16.7265 28.1353 16.6839 28.1041 16.6442 28.0913C16.6243 27.9622 16.6378 27.8657 16.6846 27.8018C16.7499 27.7351 16.8138 27.6592 16.8762 27.574C16.933 27.452 17.0444 27.3782 17.2105 27.3526C17.3765 27.3271 17.4986 27.2611 17.5766 27.1547C17.8718 26.8638 18.1748 26.5622 18.4857 26.25C18.7965 25.9378 19.0449 25.5879 19.2308 25.2005C19.4323 24.7918 19.6296 24.3554 19.8227 23.8913C20.0157 23.4273 20.2009 22.9738 20.3783 22.531C20.4323 22.3905 20.5167 22.1415 20.6317 21.7838C20.7467 21.4262 20.8538 21.0792 20.9532 20.7429C21.0682 20.3852 21.1249 20.1404 21.1235 20.0085C20.949 19.9786 20.785 19.9566 20.6318 19.9424C20.4941 19.907 20.3579 19.8807 20.223 19.8637C20.0173 19.6309 19.9023 19.4975 19.8782 19.4634C19.8512 19.4109 19.8151 19.2371 19.7697 18.9419C19.7356 18.7205 19.8342 18.5636 20.0656 18.4714C20.5808 18.26 21.0385 18.1046 21.4387 18.0053C21.8573 17.9031 22.2611 17.7655 22.65 17.5923C22.8969 17.4788 23.2063 17.4029 23.5781 17.3646C23.95 17.3263 24.3317 17.3526 24.7234 17.4434C24.9008 17.4917 25.0534 17.5626 25.1811 17.6563C25.3088 17.75 25.4302 17.8635 25.5451 17.9969C25.8361 18.2921 26 18.5597 26.0368 18.7995C26.0922 19.0365 26.1184 19.2686 26.1156 19.4956C26.1127 19.7227 26.1787 19.9675 26.3135 20.2301C26.261 20.7481 26.2 21.2107 26.1304 21.618C26.058 22.0069 25.992 22.3759 25.9324 22.725C25.8699 23.0557 25.8138 23.3665 25.7641 23.6574C25.7145 23.9484 25.6832 24.2365 25.6704 24.5217C25.642 24.8283 25.5952 25.1376 25.5299 25.4499C25.4646 25.7621 25.4284 26.0793 25.4213 26.4014C25.4213 26.647 25.3375 26.8392 25.1701 26.9783C25.021 27.1146 24.8521 27.2444 24.6634 27.3679C24.5924 27.3977 24.4604 27.3991 24.2674 27.3721C24.09 27.3239 23.9176 27.2465 23.7501 27.14C23.6636 26.9456 23.6168 26.764 23.6097 26.5951C23.6026 26.4262 23.6139 26.2545 23.6438 26.0799C23.6764 25.9238 23.7268 25.5761 23.7949 25.0368C23.8631 24.4975 23.9398 23.8908 24.0249 23.2167C24.1101 22.5426 24.1932 21.916 24.2741 21.337C24.355 20.7579 24.4061 20.3535 24.4274 20.1236C24.4743 19.8142 24.4679 19.5885 24.4083 19.4466C24.3671 19.3018 24.3182 19.1677 24.2614 19.0442C23.8513 18.9562 23.5767 18.9513 23.4376 19.0293C23.3141 19.0861 23.1537 19.1485 22.9565 19.2166C22.8756 19.3046 22.8145 19.399 22.7734 19.4997C22.7322 19.6005 22.7095 19.6984 22.7052 19.7935C22.5846 20.3598 22.4746 20.8111 22.3752 21.1474C22.2943 21.4809 22.2091 21.7868 22.1197 22.0649C22.0275 22.3246 21.921 22.6148 21.8004 22.9356C21.6982 23.2535 21.5669 23.6892 21.4065 24.2426C21.3099 24.5974 21.1723 24.9302 20.9934 25.241C20.8331 25.549 20.694 25.8726 20.5761 26.2118L20.3313 26.646C20.3498 26.6432 20.2873 26.7283 20.144 26.9015C20.0006 27.0746 19.8573 27.2477 19.7139 27.4209C19.589 27.5912 19.5266 27.6763 19.5266 27.6763L18.7708 28.4725C18.6899 28.5604 18.5388 28.6215 18.3174 28.6555C18.096 28.6896 17.8654 28.725 17.6255 28.7619Z" fill="#2F94F9"/>
<path d="M12.2924 29.2705C12.0525 29.3074 11.8517 29.2911 11.6899 29.2215C11.5466 29.1491 11.3607 29.0455 11.1322 28.9107C10.7249 28.5956 10.4219 28.2834 10.2232 27.974C10.0217 27.6461 9.92451 27.3211 9.93162 26.999C9.96427 26.8429 9.96143 26.7016 9.92312 26.5753C9.90042 26.4277 9.88907 26.3539 9.88907 26.3539C9.78263 26.2759 9.74644 26.2248 9.78051 26.2007C9.81173 26.1581 9.84012 26.0971 9.86567 26.0176C9.97637 26.0006 9.99766 25.8934 9.92955 25.6961C9.86995 25.5542 9.89409 25.22 10.002 24.6935C10.1099 24.167 10.2681 23.661 10.4768 23.1757C10.5591 22.9741 10.6882 22.7088 10.8642 22.3795C11.0374 22.0318 11.2304 21.6905 11.4433 21.3556C11.6718 20.9994 11.8826 20.712 12.0756 20.4934C12.4773 20.0351 12.8392 19.6867 13.1613 19.4483C13.4835 19.2098 13.8405 19.0133 14.2322 18.8586C14.6239 18.7039 14.8935 18.6153 15.0411 18.5926C15.2072 18.567 15.4513 18.6806 15.7734 18.9332C16.2261 19.0524 16.5646 19.227 16.7888 19.4569C17.0315 19.684 17.2188 20.0424 17.3508 20.532C17.4913 21.077 17.543 21.7206 17.5061 22.4628C17.4848 23.1838 17.186 24.1268 16.6097 25.292C16.2506 26.0271 15.9029 26.5905 15.5666 26.9822C15.2273 27.3554 14.8143 27.74 14.3275 28.1359C13.9798 28.4538 13.6591 28.7015 13.3653 28.8788C13.0687 29.0378 12.711 29.1683 12.2924 29.2705ZM14.4979 25.9284C14.8641 25.3621 15.1423 24.8378 15.3325 24.3552C15.5411 23.8699 15.7129 23.2674 15.8478 22.5479C15.8903 22.3336 15.8982 22.0774 15.8712 21.7794C15.8414 21.4629 15.7882 21.1784 15.7116 20.9258C15.6506 20.6518 15.5619 20.505 15.4455 20.4851C15.2042 20.39 14.931 20.3942 14.6259 20.4978C14.3179 20.583 14.0036 20.8107 13.6828 21.1811C13.1847 21.7488 12.7787 22.425 12.4651 23.2098C12.1485 23.9762 11.8569 24.8426 11.59 25.809C11.4154 26.5158 11.4331 27.0608 11.6432 27.444C11.8688 27.8059 12.2314 27.8917 12.731 27.7016C13.2461 27.4902 13.8351 26.8991 14.4979 25.9284Z" fill="#2F94F9"/>
<path d="M5.0257 32.0596C4.8781 32.0823 4.69361 31.9879 4.47223 31.7764C4.25084 31.565 4.13235 31.3471 4.11674 31.1229C4.08979 30.8248 4.10755 30.3877 4.17002 29.8115C4.23249 29.2353 4.31199 28.6471 4.40853 28.0468C4.50506 27.4464 4.60159 26.9689 4.69811 26.6141C4.72651 26.3075 4.75135 26.0393 4.77265 25.8094C4.80956 25.5582 4.83157 25.3943 4.83867 25.3177C4.88267 25.2353 4.93589 25.0289 4.99835 24.6982C5.07926 24.3647 5.13392 24.0446 5.16231 23.7381C5.17651 23.5848 5.20775 23.2967 5.25602 22.8738C5.3199 22.4296 5.39231 21.918 5.47323 21.339C5.5726 20.7571 5.66416 20.1859 5.74792 19.6253C5.85013 19.0619 5.93459 18.5673 6.00131 18.1415C6.06803 17.7158 6.10991 17.4355 6.12695 17.3007C6.24049 17.0566 6.31856 16.8274 6.36115 16.6131C6.40373 16.3988 6.42857 16.2533 6.43567 16.1767C6.53502 16.0858 6.58541 15.9837 6.58683 15.8701C6.58542 15.7381 6.57904 15.6352 6.56769 15.5614C6.5535 15.4692 6.56982 15.3911 6.61666 15.3273C6.68195 15.2606 6.70891 15.1903 6.69756 15.1165C6.76285 15.0498 6.7962 14.9597 6.79763 14.8462C6.79622 14.7142 6.83454 14.595 6.9126 14.4885L6.97862 13.9968L8.60716 13.718C8.60431 13.9451 8.59153 14.2303 8.5688 14.5738C8.54324 14.8988 8.43324 15.3501 8.23878 15.9277C8.20328 16.3109 8.14366 16.66 8.05991 16.975C7.99462 17.2873 7.97829 17.4881 8.01092 17.5775C7.9797 17.6201 7.92505 17.8173 7.84698 18.1693C7.78736 18.5184 7.71141 18.9456 7.61914 19.4508C7.54532 19.9532 7.46227 20.457 7.37 20.9622C7.29618 21.4646 7.22308 21.9103 7.15068 22.2991C7.09389 22.6667 7.05415 22.8994 7.03143 22.9974C6.92924 23.3153 6.82987 23.7744 6.73334 24.3747C6.63681 24.975 6.47924 25.7925 6.26064 26.827C6.15844 27.1449 6.04205 27.6161 5.91145 28.2405C5.79931 28.8622 5.71555 29.4227 5.66018 29.9223C5.5679 30.673 5.49691 31.1939 5.44723 31.4848C5.41883 31.7914 5.37838 31.9581 5.32586 31.9851C5.27619 32.0305 5.17614 32.0553 5.0257 32.0596ZM2.7103 15.5315C2.19655 15.6294 1.80485 15.6613 1.5352 15.6272C1.284 15.5903 1.1726 15.4186 1.201 15.112C1.2223 14.8821 1.31668 14.6976 1.48416 14.5585C1.65163 14.4195 1.90638 14.2953 2.24841 14.186C2.44568 14.1179 2.69689 14.0321 3.00202 13.9285C3.3256 13.8221 3.63073 13.7185 3.91742 13.6177C4.51491 13.4503 5.00312 13.3091 5.38205 13.1942C5.77943 13.0764 6.18746 12.9664 6.60613 12.8643C7.02479 12.7621 7.55416 12.6429 8.19423 12.5067C8.72359 12.3875 9.17136 12.2903 9.53751 12.2151C9.91928 12.1186 10.1102 12.0704 10.1102 12.0704C10.1655 12.0619 10.3621 12.0505 10.6998 12.0363C11.0376 12.0222 11.4045 12.0129 11.8004 12.0087C12.1964 12.0045 12.4923 12.0251 12.6881 12.0705C13.1267 12.0975 13.451 12.1798 13.661 12.3175C13.8895 12.4523 14.0647 12.6709 14.1868 12.9732C14.2762 13.186 14.2975 13.3244 14.2506 13.3883C14.201 13.4337 14.108 13.5046 13.9717 13.6011C13.5673 13.7956 13.2635 13.9084 13.0606 13.9396C12.8577 13.9708 12.6199 13.9601 12.3475 13.9076C12.241 13.8296 12.1176 13.7636 11.9771 13.7096C11.855 13.6529 11.6435 13.6287 11.3427 13.6372C11.0574 13.6244 10.6075 13.6464 9.99301 13.7032C9.48493 13.838 9.03717 13.9351 8.64972 13.9947C8.26228 14.0543 8.07565 14.1302 8.08984 14.2225L6.46981 14.5566L5.13503 14.9036C4.95337 14.9504 4.69933 15.0178 4.37291 15.1058C4.04366 15.1753 3.72504 15.2526 3.41707 15.3378C3.10626 15.4045 2.87067 15.469 2.7103 15.5315Z" fill="#2F94F9"/>
<path d="M95.4964 47.0134C93.6825 45.7986 91.8718 44.5805 90.0789 43.3364C89.8767 43.1945 89.6695 43.0526 89.4705 42.9059C89.4122 42.8635 89.354 42.8178 89.2957 42.7803C89.1388 42.6385 88.9268 42.5423 88.6582 42.5341C88.409 42.526 88.1032 42.6515 87.9332 42.8342C87.6938 43.0934 87.5514 43.4848 87.6727 43.8353C87.8378 44.3245 88.2779 44.5658 88.6711 44.8463C89.1566 45.1888 89.6485 45.5263 90.142 45.8606C90.7213 46.2568 91.3055 46.6498 91.8864 47.0411C85.4233 47.7716 78.0838 46.1737 73.8618 40.7796C72.4912 39.0267 71.5592 36.9052 71.0042 34.7317C70.6773 33.4501 68.7096 33.9931 69.0365 35.278C70.1093 39.5141 72.5365 43.2043 76.14 45.6684C79.4167 47.9056 83.3809 48.9655 87.2955 49.2085C88.637 49.2917 89.9801 49.2672 91.3182 49.1547C89.9266 49.9015 88.4606 50.495 86.9475 50.9663C85.6967 51.3544 86.2307 53.3421 87.4896 52.9491C89.6142 52.2904 91.6934 51.4049 93.5786 50.2146C94.3165 49.7515 95.0705 49.2427 95.7032 48.6329C96.2048 48.1535 96.0268 47.3724 95.4961 47.0169L95.4964 47.0134ZM89.6357 43.2858C89.6276 43.3103 89.6227 43.3364 89.6147 43.3608C89.6066 43.3184 89.5985 43.2728 89.5823 43.232C89.6195 43.2907 89.6438 43.3201 89.6325 43.2858L89.6357 43.2858ZM89.3752 42.8553L89.3671 42.8472C89.3671 42.8472 89.3719 42.8472 89.3752 42.8521V42.8553Z" fill="#2F94F9"/>
</svg>
