<svg width="81" height="80" viewBox="0 0 81 80" fill="none" xmlns="http://www.w3.org/2000/svg">
<g filter="url(#filter0_i_3699_24655)">
<circle cx="40.5" cy="40" r="40" fill="#FF0000"/>
</g>
<path fill-rule="evenodd" clip-rule="evenodd" d="M40.5 26C40.5568 26 52.7027 26.0024 55.736 26.8367C57.4149 27.2977 58.7347 28.6504 59.1842 30.3723C59.9958 33.488 60 39.9903 60 40C60 40 59.9997 46.5097 59.1842 49.6277C58.7347 51.3496 57.4149 52.7024 55.736 53.1633C52.7027 53.9976 40.5568 54 40.5 54C40.5 54 28.3034 53.9996 25.2631 53.1633C23.5844 52.7023 22.2653 51.3495 21.8158 49.6277C21.0004 46.5097 21 40 21 40C21 39.9902 21.001 33.488 21.8158 30.3723C22.2653 28.6505 23.5844 27.2977 25.2631 26.8367C28.3034 26.0004 40.5 26 40.5 26ZM36.5968 45.9992L46.7281 40.0009L36.5968 34.0017V45.9992Z" fill="white"/>
<defs>
<filter id="filter0_i_3699_24655" x="0.5" y="0" width="80" height="80" filterUnits="userSpaceOnUse" color-interpolation-filters="sRGB">
<feFlood flood-opacity="0" result="BackgroundImageFix"/>
<feBlend mode="normal" in="SourceGraphic" in2="BackgroundImageFix" result="shape"/>
<feColorMatrix in="SourceAlpha" type="matrix" values="0 0 0 0 0 0 0 0 0 0 0 0 0 0 0 0 0 0 127 0" result="hardAlpha"/>
<feOffset/>
<feGaussianBlur stdDeviation="10"/>
<feComposite in2="hardAlpha" operator="arithmetic" k2="-1" k3="1"/>
<feColorMatrix type="matrix" values="0 0 0 0 1 0 0 0 0 1 0 0 0 0 1 0 0 0 0.4 0"/>
<feBlend mode="normal" in2="shape" result="effect1_innerShadow_3699_24655"/>
</filter>
</defs>
</svg>
